<svg width="200" height="60" viewBox="0 0 200 60" fill="none" xmlns="http://www.w3.org/2000/svg">
<path d="M190.385 60H9.61191C4.30364 60 0 55.8742 0 50.7836V9.21644C0 4.12674 4.30364 -9.15665e-07 9.61191 -9.15665e-07H190.385C195.693 -9.15665e-07 200 4.12674 200 9.21644V50.7836C200 55.8742 195.693 60 190.385 60Z" fill="black"/>
<path d="M48.8661 37.2075C48.5861 37.8728 48.3224 38.5602 48.0124 39.2277C46.9945 41.4187 45.5879 43.3679 43.9221 45.1442C43.2096 45.9048 42.3813 46.5323 41.3657 46.898C40.2876 47.285 39.2026 47.2413 38.1268 46.9251C37.3819 46.7055 36.6554 46.4281 35.9174 46.1864C34.8972 45.8538 33.8515 45.6498 32.7642 45.7074C31.774 45.7606 30.8231 45.9824 29.9024 46.3173C29.0464 46.6273 28.1973 46.9446 27.2974 47.1231C25.9255 47.3956 24.7201 47.0468 23.6259 46.264C22.5015 45.4613 21.627 44.4345 20.7849 43.3768C19.6281 41.9243 18.6426 40.3764 17.8768 38.7022C16.9884 36.7529 16.3291 34.7349 16.0168 32.6283C15.6697 30.2821 15.6767 27.9404 16.454 25.6607C17.3725 22.962 19.0706 20.8664 21.7589 19.5757C23.1978 18.8861 24.7248 18.5535 26.3326 18.6422C27.3807 18.6976 28.3708 19.0169 29.3564 19.3451C30.1684 19.6156 30.9897 19.8707 31.8017 20.1479C32.4703 20.3741 33.1019 20.2321 33.7381 20.0215C34.8694 19.6511 35.9984 19.2719 37.1413 18.9326C38.4507 18.5424 39.7833 18.427 41.1529 18.6244C42.5363 18.824 43.8527 19.1877 45.065 19.864C46.157 20.4716 47.0546 21.2788 47.7972 22.2922C44.755 24.0574 43.1911 26.6032 43.4432 30.0382C43.6977 33.4643 45.7012 35.724 48.8661 37.2075Z" fill="white"/>
<path d="M40.5447 9.63007C40.5447 10.1398 40.5854 10.6408 40.5379 11.1331C40.375 12.8573 39.5921 14.3278 38.4426 15.6292C37.6031 16.577 36.637 17.3881 35.4536 17.9304C34.4897 18.3728 33.476 18.5832 32.3831 18.4964C32.2858 17.9781 32.3129 17.4532 32.3876 16.9305C32.6569 15.0848 33.5484 13.5297 34.8675 12.1915C35.7341 11.3131 36.7931 10.695 37.9493 10.2243C38.7073 9.91852 39.4902 9.70598 40.3116 9.63007C40.3795 9.62356 40.4451 9.63007 40.5447 9.63007Z" fill="white"/>
<path d="M64.6854 38.4973H71.7979L69.6083 32.9285C68.94 31.2368 68.4437 29.847 68.1195 28.7598C67.8526 30.048 67.4761 31.3288 66.9898 32.5994L64.6854 38.4973ZM58.6328 46.7539L66.688 26.6467H69.6782L78.2645 46.7539H75.1023L72.6558 40.6645H63.8849L61.5806 46.7539H58.6328Z" fill="white"/>
<path d="M82.4852 39.5533C82.4852 41.4285 82.881 42.8133 83.6724 43.7091C84.4638 44.6058 85.4234 45.053 86.5485 45.053C87.6942 45.053 88.6745 44.5889 89.4892 43.6617C90.3039 42.7335 90.7126 41.2954 90.7126 39.3478C90.7126 37.4911 90.3143 36.1016 89.5176 35.1781C88.721 34.2544 87.7693 33.793 86.6649 33.793C85.5657 33.793 84.5957 34.2841 83.7526 35.2674C82.9068 36.2506 82.4852 37.6791 82.4852 39.5533ZM80.1523 52.3359V32.1885H82.5008V34.0813C83.0517 33.3401 83.6776 32.7848 84.3733 32.4146C85.069 32.0445 85.9148 31.8593 86.9054 31.8593C88.2038 31.8593 89.3495 32.1794 90.3401 32.8192C91.3333 33.4591 92.0808 34.3622 92.5877 35.5277C93.092 36.6941 93.3455 37.9721 93.3455 39.3616C93.3455 40.8519 93.0662 42.1938 92.5075 43.3873C91.9488 44.5805 91.1393 45.495 90.0763 46.1302C89.0107 46.7656 87.8934 47.0837 86.7218 47.0837C85.8631 47.0837 85.0923 46.9096 84.4095 46.5618C83.7267 46.2147 83.1681 45.7759 82.7284 45.2456V52.3359H80.1523Z" fill="white"/>
<path d="M98.7849 39.5533C98.7849 41.4284 99.1825 42.8134 99.9723 43.709C100.765 44.6056 101.724 45.0531 102.849 45.0531C103.994 45.0531 104.974 44.5889 105.791 43.6616C106.605 42.7333 107.013 41.2955 107.013 39.3478C107.013 37.4912 106.616 36.1015 105.818 35.1781C105.023 34.2545 104.069 33.793 102.965 33.793C101.866 33.793 100.896 34.2841 100.053 35.2672C99.2067 36.2503 98.7849 37.6792 98.7849 39.5533ZM96.4531 52.3359V32.1886H98.801V34.0814C99.3544 33.3401 99.9776 32.7847 100.676 32.4147C101.372 32.0444 102.215 31.8592 103.207 31.8592C104.504 31.8592 105.651 32.1793 106.643 32.8192C107.634 33.4591 108.383 34.3624 108.888 35.5278C109.393 36.694 109.646 37.972 109.646 39.3617C109.646 40.8518 109.367 42.1939 108.81 43.3871C108.252 44.5806 107.44 45.495 106.377 46.1303C105.313 46.7655 104.195 47.0835 103.021 47.0835C102.162 47.0835 101.393 46.9097 100.711 46.5618C100.029 46.2147 99.4672 45.7757 99.0293 45.2458V52.3359H96.4531Z" fill="white"/>
<path d="M120.273 40.2956L122.893 40.0762C123.016 41.0816 123.304 41.9067 123.758 42.5512C124.212 43.1957 124.914 43.7174 125.867 44.1146C126.823 44.5127 127.897 44.7119 129.09 44.7119C130.146 44.7119 131.082 44.5603 131.892 44.2588C132.703 43.9576 133.308 43.5437 133.705 43.0182C134.098 42.4916 134.298 41.9176 134.298 41.2964C134.298 40.6658 134.107 40.1143 133.725 39.6437C133.342 39.1729 132.714 38.7776 131.835 38.4578C131.273 38.2466 130.029 37.92 128.102 37.4765C126.176 37.0328 124.826 36.615 124.052 36.2217C123.05 35.7186 122.303 35.0943 121.812 34.3493C121.321 33.6044 121.075 32.77 121.075 31.8465C121.075 30.8315 121.375 29.8828 121.977 29.0003C122.579 28.1185 123.456 27.4488 124.609 26.9912C125.765 26.5335 127.046 26.3056 128.459 26.3056C130.014 26.3056 131.384 26.5458 132.571 27.0256C133.762 27.5055 134.675 28.2115 135.314 29.1444C135.951 30.0773 136.296 31.133 136.342 32.3123L133.682 32.5049C133.539 31.2334 133.054 30.2734 132.229 29.6243C131.404 28.9751 130.186 28.6506 128.573 28.6506C126.895 28.6506 125.67 28.9453 124.903 29.5351C124.135 30.1246 123.752 30.8362 123.752 31.6678C123.752 32.3906 124.024 32.9848 124.566 33.4509C125.102 33.9176 126.495 34.395 128.753 34.8842C131.007 35.3733 132.557 35.8012 133.396 36.1669C134.618 36.7064 135.517 37.3898 136.099 38.2176C136.681 39.0446 136.972 39.998 136.972 41.0769C136.972 42.1466 136.653 43.1547 136.013 44.1018C135.374 45.0475 134.455 45.7834 133.259 46.3098C132.063 46.8353 130.714 47.0977 129.218 47.0977C127.32 47.0977 125.727 46.8326 124.446 46.3024C123.162 45.7722 122.157 44.9742 121.426 43.9092C120.696 42.8442 120.313 41.6397 120.273 40.2956Z" fill="white"/>
<path d="M146.062 44.5495L146.435 46.7295C145.71 46.8766 145.06 46.9492 144.489 46.9492C143.555 46.9492 142.83 46.8077 142.314 46.5241C141.799 46.2402 141.438 45.8684 141.228 45.4062C141.015 44.9448 140.91 43.9728 140.91 42.4921V34.1117H139.023V32.1918H140.91V28.5849L143.473 27.103V32.1918H146.062V34.1117H143.473V42.6288C143.473 43.3328 143.517 43.7858 143.61 43.9868C143.7 44.1875 143.849 44.3474 144.053 44.4666C144.256 44.5858 144.551 44.6453 144.932 44.6453C145.217 44.6453 145.596 44.6134 146.062 44.5495Z" fill="white"/>
<path d="M150.267 39.4698C150.267 41.3347 150.694 42.7316 151.542 43.6599C152.39 44.5874 153.457 45.0514 154.747 45.0514C156.025 45.0514 157.089 44.5853 157.937 43.6524C158.788 42.7207 159.212 41.2984 159.212 39.3871C159.212 37.5864 158.785 36.2209 157.931 35.2934C157.077 34.3654 156.016 33.9011 154.747 33.9011C153.457 33.9011 152.39 34.3625 151.542 35.2862C150.694 36.2096 150.267 37.604 150.267 39.4698ZM147.621 39.4698C147.621 36.7725 148.403 34.7747 149.966 33.476C151.274 32.3973 152.868 31.8578 154.747 31.8578C156.837 31.8578 158.544 32.5134 159.87 33.8259C161.196 35.1381 161.858 36.95 161.858 39.2643C161.858 41.1385 161.566 42.6126 160.977 43.687C160.391 44.7612 159.537 45.5955 158.418 46.1901C157.297 46.7843 156.073 47.082 154.747 47.082C152.618 47.082 150.898 46.4281 149.587 45.1202C148.277 43.8127 147.621 41.929 147.621 39.4698Z" fill="white"/>
<path d="M164.852 46.7539V32.1883H167.171V34.3962C167.761 33.3628 168.306 32.6821 168.807 32.3528C169.308 32.0235 169.859 31.859 170.462 31.859C171.329 31.859 172.209 32.124 173.107 32.6541L172.221 34.9451C171.59 34.5878 170.96 34.4103 170.332 34.4103C169.77 34.4103 169.262 34.5722 168.816 34.8968C168.367 35.2213 168.047 35.6715 167.857 36.2473C167.57 37.1252 167.426 38.0852 167.426 39.1279V46.7539H164.852Z" fill="white"/>
<path d="M176.582 38.0711H185.066C184.953 36.8452 184.63 35.9263 184.095 35.3143C183.275 34.3627 182.211 33.8875 180.903 33.8875C179.719 33.8875 178.725 34.2668 177.918 35.026C177.114 35.7849 176.668 36.7997 176.582 38.0711ZM185.038 42.0624L187.7 42.3777C187.279 43.8676 186.504 45.0246 185.367 45.8479C184.234 46.6699 182.784 47.082 181.017 47.082C178.795 47.082 177.032 46.4254 175.731 45.1139C174.429 43.8018 173.777 41.9619 173.777 39.5929C173.777 37.1429 174.436 35.2408 175.753 33.8875C177.07 32.5341 178.776 31.858 180.875 31.858C182.907 31.858 184.566 32.521 185.855 33.8465C187.14 35.172 187.786 37.0379 187.786 39.4421C187.786 39.589 187.78 39.8087 187.77 40.1006H176.44C176.535 41.7004 177.006 42.9263 177.855 43.7766C178.703 44.6265 179.764 45.0516 181.033 45.0516C181.977 45.0516 182.784 44.8144 183.449 44.3392C184.117 43.863 184.645 43.1041 185.038 42.0624Z" fill="white"/>
<path d="M60.1725 22.5717H62.6536C63.4222 22.5717 64.023 22.5018 64.4584 22.3666C64.8938 22.229 65.2417 22.0355 65.5019 21.7883C65.8668 21.4386 66.1514 20.9676 66.3533 20.3778C66.5576 19.7879 66.6597 19.0721 66.6597 18.2304C66.6597 17.0647 66.4603 16.1694 66.0614 15.5422C65.6625 14.9173 65.176 14.4977 64.6068 14.2831C64.1933 14.1316 63.5292 14.057 62.6147 14.057H60.1725V22.5717ZM58.6328 23.8867V12.742H62.639C63.5414 12.742 64.2322 12.7933 64.7089 12.9005C65.3754 13.0474 65.9422 13.3132 66.4141 13.6979C67.027 14.1945 67.4868 14.8311 67.7908 15.6028C68.0949 16.3769 68.2457 17.2605 68.2457 18.2537C68.2457 19.1001 68.1435 19.8485 67.9368 20.5037C67.73 21.1565 67.4673 21.6974 67.1438 22.1264C66.8203 22.5554 66.4676 22.8912 66.0857 23.1383C65.7014 23.3831 65.2392 23.5696 64.6968 23.6979C64.1544 23.8238 63.5317 23.8867 62.8287 23.8867H58.6328Z" fill="white"/>
<path d="M71.1186 19.8515C71.1186 20.8847 71.3551 21.6603 71.8256 22.1757C72.2961 22.6887 72.8886 22.9464 73.6031 22.9464C74.3101 22.9464 74.9001 22.6863 75.3706 22.1709C75.8411 21.6531 76.0776 20.8657 76.0776 19.8062C76.0776 18.8088 75.8411 18.0523 75.3681 17.5369C74.8926 17.0215 74.3051 16.7662 73.6031 16.7662C72.8886 16.7662 72.2961 17.0215 71.8256 17.5321C71.3551 18.0452 71.1186 18.8183 71.1186 19.8515ZM69.6523 19.8515C69.6523 18.3554 70.0855 17.2482 70.9543 16.5299C71.6762 15.931 72.56 15.6327 73.6031 15.6327C74.7607 15.6327 75.7066 15.9954 76.441 16.7232C77.1779 17.451 77.5438 18.4556 77.5438 19.737C77.5438 20.7774 77.382 21.5934 77.0559 22.19C76.7298 22.7842 76.2593 23.2471 75.6369 23.5764C75.0146 23.9057 74.3375 24.0703 73.6031 24.0703C72.4231 24.0703 71.4696 23.7076 70.7427 22.9846C70.0158 22.2592 69.6523 21.214 69.6523 19.8515Z" fill="white"/>
<path d="M80.7711 23.8867L78.1914 15.8127H79.6685L81.007 20.4731L81.5071 22.206C81.5301 22.1199 81.6738 21.5644 81.943 20.5419L83.2842 15.8127H84.7509L86.0126 20.4952L86.4332 22.0388L86.9178 20.4804L88.3615 15.8127H89.7488L87.1153 23.8867H85.6331L84.2919 19.0499L83.9663 17.6759L82.261 23.8867H80.7711Z" fill="white"/>
<path d="M90.9453 23.8867V15.8117H92.2312V16.9591C92.8507 16.0748 93.7419 15.6313 94.9102 15.6313C95.4199 15.6313 95.8852 15.7165 96.3112 15.8919C96.7372 16.0672 97.0561 16.2952 97.2678 16.5808C97.4795 16.8639 97.6259 17.2021 97.7121 17.593C97.7644 17.8447 97.7905 18.2884 97.7905 18.9218V23.8867H96.3635V18.9749C96.3635 18.4177 96.3086 18.0011 96.1962 17.7257C96.0864 17.4477 95.8878 17.2272 95.6055 17.0643C95.3232 16.899 94.9913 16.8163 94.6097 16.8163C94.0033 16.8163 93.478 17.0017 93.0362 17.3725C92.5945 17.7408 92.375 18.4428 92.375 19.4772V23.8867H90.9453Z" fill="white"/>
<path d="M99.9492 23.8867V12.7414H101.378V23.8867H99.9492Z" fill="white"/>
<path d="M104.527 19.8505C104.527 20.8846 104.761 21.6594 105.233 22.1739C105.702 22.6883 106.295 22.945 107.009 22.945C107.717 22.945 108.307 22.6863 108.776 22.1702C109.248 21.6529 109.482 20.8642 109.482 19.8048C109.482 18.8069 109.248 18.0507 108.773 17.5354C108.299 17.0209 107.712 16.7642 107.009 16.7642C106.295 16.7642 105.702 17.0202 105.233 17.5316C104.761 18.0442 104.527 18.8172 104.527 19.8505ZM103.059 19.8505C103.059 18.3557 103.492 17.248 104.36 16.5279C105.085 15.93 105.966 15.6315 107.009 15.6315C108.167 15.6315 109.113 15.9951 109.848 16.7224C110.584 17.4497 110.95 18.4543 110.95 19.7369C110.95 20.7759 110.789 21.5936 110.463 22.1889C110.137 22.7842 109.665 23.2472 109.043 23.5765C108.42 23.9058 107.744 24.0703 107.009 24.0703C105.828 24.0703 104.877 23.7077 104.15 22.983C103.422 22.2586 103.059 21.2139 103.059 19.8505Z" fill="white"/>
<path d="M118.002 19.8354C117.482 20.0383 116.707 20.2102 115.671 20.3527C115.082 20.4336 114.667 20.5245 114.423 20.626C114.181 20.7275 113.994 20.8764 113.862 21.0706C113.73 21.2659 113.664 21.4827 113.664 21.7207C113.664 22.0865 113.807 22.3906 114.095 22.6333C114.384 22.8771 114.805 22.998 115.36 22.998C115.91 22.998 116.399 22.8834 116.828 22.6528C117.254 22.4222 117.57 22.106 117.771 21.706C117.925 21.3971 118.002 20.9404 118.002 20.3377V19.8354ZM118.12 22.8918C117.592 23.3224 117.081 23.6265 116.594 23.8044C116.105 23.982 115.58 24.0703 115.019 24.0703C114.093 24.0703 113.383 23.8537 112.886 23.4202C112.388 22.9867 112.141 22.4333 112.141 21.7589C112.141 21.3636 112.234 21.0029 112.421 20.6753C112.608 20.3488 112.855 20.0866 113.158 19.8884C113.463 19.6913 113.807 19.5416 114.186 19.4401C114.467 19.3695 114.89 19.3007 115.456 19.2346C116.608 19.1034 117.458 18.9463 118.002 18.7639C118.005 18.576 118.01 18.4569 118.01 18.4058C118.01 17.8487 117.873 17.4563 117.603 17.2273C117.241 16.9187 116.699 16.7643 115.979 16.7643C115.308 16.7643 114.81 16.8768 114.491 17.1026C114.172 17.328 113.933 17.727 113.782 18.2999L112.385 18.1175C112.512 17.5446 112.721 17.0824 113.012 16.7298C113.304 16.3772 113.724 16.1065 114.274 15.916C114.824 15.7263 115.459 15.6314 116.185 15.6314C116.905 15.6314 117.488 15.7123 117.936 15.8752C118.387 16.037 118.717 16.2407 118.929 16.486C119.14 16.7327 119.289 17.0434 119.374 17.4181C119.421 17.6505 119.445 18.0719 119.445 18.6804V20.5043C119.445 21.7766 119.476 22.5811 119.536 22.919C119.597 23.2555 119.718 23.5783 119.896 23.888H118.406C118.258 23.6044 118.162 23.2724 118.12 22.8918Z" fill="white"/>
<path d="M122.61 19.8586C122.61 20.892 122.837 21.6648 123.293 22.1775C123.747 22.6891 124.285 22.9448 124.902 22.9448C125.526 22.9448 126.056 22.7001 126.493 22.2108C126.93 21.7226 127.149 20.9757 127.149 19.9721C127.149 18.867 126.927 18.056 126.482 17.5398C126.036 17.0226 125.49 16.764 124.84 16.764C124.204 16.764 123.675 17.0124 123.249 17.5092C122.823 18.0058 122.61 18.7889 122.61 19.8586ZM127.123 23.888V22.8693C126.588 23.6701 125.804 24.0703 124.767 24.0703C124.098 24.0703 123.478 23.8925 122.915 23.5383C122.352 23.183 121.918 22.6881 121.607 22.0518C121.299 21.4156 121.145 20.6846 121.145 19.8586C121.145 19.0524 121.285 18.3211 121.565 17.6645C121.845 17.0086 122.265 16.5056 122.826 16.1557C123.386 15.806 124.014 15.6312 124.706 15.6312C125.213 15.6312 125.664 15.7335 126.062 15.939C126.457 16.1447 126.782 16.4116 127.028 16.7409V12.7424H128.449V23.888H127.123Z" fill="white"/>
<path d="M136.143 19.8502C136.143 20.8845 136.377 21.6594 136.848 22.1736C137.319 22.688 137.911 22.9449 138.624 22.9449C139.332 22.9449 139.924 22.6863 140.392 22.17C140.863 21.6528 141.099 20.864 141.099 19.8048C141.099 18.8067 140.863 18.0506 140.389 17.5351C139.915 17.021 139.329 16.764 138.624 16.764C137.911 16.764 137.319 17.0199 136.848 17.5315C136.377 18.044 136.143 18.8169 136.143 19.8502ZM134.676 19.8502C134.676 18.3557 135.109 17.2477 135.976 16.5279C136.701 15.9299 137.584 15.6311 138.624 15.6311C139.782 15.6311 140.73 15.9949 141.463 16.7222C142.2 17.4495 142.567 18.4542 142.567 19.7366C142.567 20.7757 142.405 21.5933 142.079 22.1885C141.752 22.7838 141.281 23.2469 140.66 23.5764C140.037 23.9056 139.361 24.0703 138.624 24.0703C137.446 24.0703 136.493 23.7073 135.765 22.9828C135.037 22.2583 134.676 21.2137 134.676 19.8502Z" fill="white"/>
<path d="M144.242 23.8867V15.8123H145.527V16.9601C146.145 16.0736 147.039 15.63 148.209 15.63C148.715 15.63 149.182 15.7174 149.609 15.8924C150.035 16.0671 150.353 16.296 150.565 16.5804C150.776 16.8643 150.923 17.2008 151.009 17.5915C151.061 17.8446 151.088 18.2883 151.088 18.9216V23.8867H149.659V18.9746C149.659 18.4177 149.603 18.0008 149.494 17.7245C149.382 17.4483 149.185 17.2279 148.903 17.0633C148.621 16.8987 148.288 16.8158 147.906 16.8158C147.297 16.8158 146.774 17.001 146.333 17.3711C145.892 17.7414 145.671 18.4427 145.671 19.4769V23.8867H144.242Z" fill="white"/>
<path d="M160.903 22.6621L161.11 23.8713C160.708 23.9522 160.35 23.9922 160.032 23.9922C159.513 23.9922 159.111 23.9142 158.825 23.7568C158.54 23.5997 158.339 23.3933 158.222 23.1375C158.108 22.8817 158.048 22.343 158.048 21.5217V16.8758H157V15.8117H158.048V13.812L159.468 12.9916V15.8117H160.903V16.8758H159.468V21.5971C159.468 21.9879 159.492 22.2388 159.543 22.3505C159.594 22.4621 159.675 22.5505 159.789 22.6167C159.903 22.6826 160.065 22.7151 160.278 22.7151C160.437 22.7151 160.645 22.6975 160.903 22.6621Z" fill="white"/>
<path d="M162.305 23.8867V12.7411H163.733V16.7396C164.398 16.0001 165.237 15.6301 166.253 15.6301C166.876 15.6301 167.419 15.7483 167.88 15.9835C168.341 16.2189 168.67 16.5454 168.865 16.9601C169.067 17.3758 169.164 17.9795 169.164 18.7701V23.8867H167.736V18.7701C167.736 18.0856 167.581 17.5878 167.273 17.2763C166.964 16.9639 166.525 16.8086 165.96 16.8086C165.536 16.8086 165.14 16.9136 164.767 17.1239C164.392 17.3339 164.129 17.6197 163.968 17.9795C163.812 18.3395 163.733 18.8362 163.733 19.4697V23.8867H162.305Z" fill="white"/>
<path d="M172.414 19.0754H177.116C177.054 18.3964 176.873 17.8867 176.578 17.5472C176.124 17.0199 175.533 16.7568 174.809 16.7568C174.152 16.7568 173.602 16.9669 173.154 17.3875C172.706 17.8077 172.461 18.3705 172.414 19.0754ZM177.1 21.2873L178.577 21.4623C178.344 22.2891 177.912 22.9299 177.284 23.3857C176.656 23.8423 175.85 24.0703 174.871 24.0703C173.639 24.0703 172.663 23.7067 171.941 22.9791C171.22 22.2518 170.859 21.2316 170.859 19.9192C170.859 18.5612 171.223 17.5064 171.954 16.7568C172.682 16.0062 173.63 15.6313 174.793 15.6313C175.919 15.6313 176.839 15.9988 177.551 16.7335C178.266 17.4682 178.624 18.5025 178.624 19.8354C178.624 19.9162 178.621 20.0381 178.615 20.2H172.333C172.386 21.0873 172.647 21.7663 173.12 22.2378C173.59 22.7093 174.177 22.9448 174.88 22.9448C175.402 22.9448 175.85 22.8137 176.22 22.5496C176.59 22.2864 176.883 21.8658 177.1 21.2873Z" fill="white"/>
</svg>
