<svg width="200" height="60" viewBox="0 0 200 60" fill="none" xmlns="http://www.w3.org/2000/svg">
<path d="M190.385 60H9.61191C4.30364 60 0 55.8741 0 50.7834V9.21564C0 4.12587 4.30364 7.49628e-08 9.61191 7.49628e-08H190.385C195.693 7.49628e-08 200 4.12587 200 9.21564V50.7834C200 55.8741 195.693 60 190.385 60Z" fill="black"/>
<path d="M36.1593 29.0703L25.3301 20.3663L14.4805 11.6443V10.7626C14.4805 9.29675 16.1221 8.36938 17.4587 9.08002L34.8 18.292L42.9082 22.6014L36.1593 29.0703Z" fill="#6EEC83"/>
<path d="M14.4805 47.4125V46.5318L25.3309 37.8089L36.1153 29.141L42.8564 35.6017L34.7994 39.8822L17.4606 49.0961C16.1219 49.8067 14.4805 48.8784 14.4805 47.4125Z" fill="#DE4551"/>
<path d="M14.4805 46.5312V11.6427L25.3325 20.3645L36.1599 29.0688L36.1822 29.0866L36.1152 29.1404L25.3325 37.8084L14.4805 46.5312Z" fill="white"/>
<path d="M14.4805 46.5312V11.6427L25.3325 20.3645L36.1599 29.0688L36.1822 29.0866L36.1152 29.1404L25.3325 37.8084L14.4805 46.5312Z" fill="#5FD0FA"/>
<path d="M42.8527 35.6016L36.1133 29.1408L36.1788 29.0868L36.1578 29.0693L42.9065 22.6L51.9494 27.4043C53.3282 28.1372 53.3282 30.0375 51.9494 30.7694L42.8527 35.6016Z" fill="#F6C644"/>
<path d="M36.1149 29.1406L36.1016 29.1259L36.1595 29.0693L36.1818 29.087L36.1149 29.1406Z" fill="white"/>
<path d="M67.1849 39.3708V36.7692H74.1966V42.9211C73.5152 43.5537 72.5277 44.1098 71.234 44.5907C69.9402 45.0725 68.6317 45.3125 67.3059 45.3125C65.6197 45.3125 64.1507 44.9738 62.8989 44.2958C61.6447 43.6188 60.7041 42.6494 60.072 41.3883C59.4425 40.1278 59.1289 38.7569 59.1289 37.2742C59.1289 35.6662 59.4795 34.2365 60.1831 32.9863C60.8868 31.7362 61.9163 30.7783 63.2717 30.1104C64.3037 29.5978 65.59 29.3411 67.1306 29.3411C69.1304 29.3411 70.6933 29.7438 71.8166 30.5475C72.9424 31.3522 73.6658 32.4635 73.9868 33.882L70.7575 34.4616C70.5279 33.7036 70.1032 33.1044 69.4761 32.6654C68.849 32.2264 68.0663 32.007 67.1306 32.007C65.7085 32.007 64.5778 32.4384 63.7384 33.3027C62.8989 34.1667 62.4817 35.4484 62.4817 37.1479C62.4817 38.981 62.9063 40.3557 63.7556 41.2728C64.6049 42.1891 65.7184 42.6475 67.0961 42.6475C67.7775 42.6475 68.4614 42.5193 69.1453 42.2625C69.8316 42.0069 70.4192 41.6962 70.9105 41.3305V39.3708H67.1849Z" fill="white"/>
<path d="M79.6261 39.4578C79.6261 40.5675 79.9023 41.4176 80.452 42.0073C81.0016 42.5969 81.6792 42.892 82.4845 42.892C83.2924 42.892 83.9674 42.5969 84.512 42.0073C85.0591 41.4176 85.3301 40.5601 85.3301 39.4365C85.3301 38.3407 85.0591 37.498 84.512 36.9083C83.9674 36.3187 83.2924 36.0229 82.4845 36.0229C81.6792 36.0229 81.0016 36.3187 80.452 36.9083C79.9023 37.498 79.6261 38.3481 79.6261 39.4578ZM76.4609 39.2997C76.4609 38.3165 76.7141 37.3651 77.2203 36.4441C77.7265 35.5244 78.4424 34.822 79.3679 34.3375C80.296 33.8528 81.3314 33.6111 82.4743 33.6111C84.2384 33.6111 85.6881 34.1598 86.8156 35.2592C87.9431 36.3586 88.5081 37.7472 88.5081 39.4262C88.5081 41.1191 87.938 42.5217 86.8002 43.635C85.6599 44.7484 84.2256 45.3047 82.4947 45.3047C81.426 45.3047 80.4059 45.0731 79.4344 44.6089C78.4628 44.1457 77.7265 43.4667 77.2203 42.5709C76.7141 41.6752 76.4609 40.5851 76.4609 39.2997Z" fill="white"/>
<path d="M93.3749 39.4578C93.3749 40.5674 93.6522 41.4175 94.2016 42.0073C94.7509 42.5969 95.427 42.8918 96.2325 42.8918C97.0407 42.8918 97.7168 42.5969 98.2609 42.0073C98.8075 41.4175 99.0796 40.56 99.0796 39.4363C99.0796 38.3406 98.8075 37.4981 98.2609 36.9082C97.7168 36.3186 97.0407 36.0227 96.2325 36.0227C95.427 36.0227 94.7509 36.3186 94.2016 36.9082C93.6522 37.4981 93.3749 38.3482 93.3749 39.4578ZM90.2109 39.2996C90.2109 38.3166 90.4645 37.3649 90.9689 36.4442C91.476 35.5242 92.1917 34.822 93.1187 34.3374C94.0457 33.8526 95.081 33.6109 96.222 33.6109C97.9888 33.6109 99.4361 34.1597 100.564 35.2592C101.694 36.3586 102.257 37.7472 102.257 39.4261C102.257 41.119 101.686 42.5217 100.548 43.6351C99.4097 44.7485 97.9756 45.3047 96.2457 45.3047C95.1761 45.3047 94.154 45.073 93.1847 44.6088C92.2128 44.1457 91.476 43.4668 90.9689 42.5708C90.4645 41.6752 90.2109 40.5851 90.2109 39.2996Z" fill="white"/>
<path d="M107.146 39.2274C107.146 40.4143 107.385 41.283 107.864 41.8345C108.346 42.3862 108.936 42.6614 109.641 42.6614C110.395 42.6614 111.032 42.3787 111.552 41.8131C112.074 41.2475 112.333 40.4104 112.333 39.301C112.333 38.1419 112.085 37.2816 111.587 36.7197C111.089 36.158 110.458 35.8771 109.696 35.8771C108.955 35.8771 108.346 36.1523 107.864 36.704C107.385 37.2555 107.146 38.0963 107.146 39.2274ZM104.389 45.7906L107.916 46.2017C107.973 46.5951 108.109 46.8648 108.321 47.0127C108.615 47.223 109.075 47.3289 109.706 47.3289C110.512 47.3289 111.116 47.2125 111.519 46.9809C111.791 46.8267 111.995 46.5773 112.137 46.2332C112.232 45.9878 112.278 45.5339 112.278 44.8744V43.2408C111.356 44.4492 110.191 45.0528 108.784 45.0528C107.216 45.0528 105.973 44.4176 105.058 43.1461C104.34 42.1415 103.98 40.8915 103.98 39.3957C103.98 37.5205 104.451 36.0873 105.393 35.0976C106.335 34.1071 107.505 33.6122 108.904 33.6122C110.349 33.6122 111.538 34.2195 112.477 35.4344V33.8642H115.367V43.905C115.367 45.225 115.253 46.2119 115.027 46.8648C114.798 47.5185 114.48 48.0311 114.069 48.4031C113.658 48.7751 113.111 49.0673 112.428 49.2776C111.742 49.4886 110.877 49.5938 109.826 49.5938C107.848 49.5938 106.446 49.2692 105.619 48.6189C104.791 47.9698 104.375 47.1458 104.375 46.1485C104.375 46.0499 104.381 45.9309 104.389 45.7906Z" fill="white"/>
<path d="M118.422 45.0508V29.607H121.509V45.0508H118.422Z" fill="white"/>
<path d="M131.614 38.499C131.591 37.6422 131.361 36.991 130.921 36.5445C130.48 36.0991 129.946 35.8759 129.316 35.8759C128.643 35.8759 128.086 36.1111 127.646 36.5818C127.206 37.0525 126.99 37.6915 126.995 38.499H131.614ZM131.437 41.491L134.513 41.986C134.119 43.0676 133.494 43.8909 132.639 44.4564C131.787 45.0218 130.719 45.3047 129.438 45.3047C127.407 45.3047 125.905 44.6693 124.93 43.3979C124.161 42.3794 123.777 41.0941 123.777 39.5414C123.777 37.6877 124.283 36.2358 125.294 35.1857C126.305 34.1357 127.583 33.611 129.128 33.611C130.867 33.611 132.236 34.1599 133.241 35.2592C134.244 36.3586 134.724 38.0422 134.678 40.3108H126.941C126.964 41.1888 127.214 41.8716 127.688 42.3598C128.166 42.8482 128.759 43.0918 129.469 43.0918C129.952 43.0918 130.361 42.9663 130.69 42.7134C131.02 42.4602 131.267 42.053 131.437 41.491Z" fill="white"/>
<path d="M146.724 32.2195V36.6015H148.506C149.789 36.6015 150.644 36.5215 151.078 36.3595C151.508 36.1978 151.85 35.9448 152.093 35.6006C152.34 35.2565 152.462 34.8565 152.462 34.3999C152.462 33.838 152.289 33.3749 151.945 33.0094C151.601 32.6437 151.164 32.4159 150.638 32.3246C150.249 32.254 149.468 32.2195 148.298 32.2195H146.724ZM143.473 45.0508V29.607H148.693C150.671 29.607 151.96 29.6841 152.563 29.8384C153.483 30.0701 154.258 30.5742 154.879 31.3499C155.503 32.1267 155.814 33.1284 155.814 34.3581C155.814 35.3057 155.636 36.103 155.277 36.7495C154.918 37.3959 154.46 37.9026 153.908 38.2721C153.356 38.6404 152.791 38.8841 152.221 39.0039C151.443 39.1511 150.321 39.2254 148.848 39.2254H146.724V45.0508H143.473Z" fill="white"/>
<path d="M158.461 45.0508V29.6068H161.55V45.0508H158.461Z" fill="white"/>
<path d="M171.156 39.6793C170.76 39.806 170.134 39.9566 169.276 40.1323C168.418 40.308 167.859 40.4802 167.594 40.6486C167.193 40.9219 166.989 41.2699 166.989 41.6911C166.989 42.1062 167.149 42.4642 167.473 42.7657C167.797 43.0677 168.208 43.2186 168.705 43.2186C169.26 43.2186 169.794 43.0438 170.298 42.692C170.671 42.4252 170.918 42.0985 171.035 41.7127C171.115 41.4595 171.156 40.9787 171.156 40.269V39.6793ZM167.023 37.2767L164.22 36.7921C164.535 35.7105 165.078 34.9105 165.847 34.3907C166.615 33.8706 167.76 33.6111 169.276 33.6111C170.652 33.6111 171.68 33.7673 172.353 34.08C173.026 34.3925 173.501 34.7886 173.776 35.2706C174.051 35.7513 174.19 36.6341 174.19 37.9196L174.156 41.3749C174.156 42.3583 174.205 43.0837 174.304 43.5506C174.403 44.0174 174.588 44.518 174.859 45.0517H171.804C171.723 44.8556 171.625 44.5636 171.507 44.1775C171.455 44.0017 171.418 43.8864 171.396 43.8296C170.872 44.3216 170.307 44.6899 169.705 44.9364C169.103 45.1819 168.464 45.3047 167.782 45.3047C166.578 45.3047 165.631 44.9923 164.939 44.3671C164.248 43.7423 163.902 42.9515 163.902 41.9973C163.902 41.3648 164.06 40.8012 164.375 40.3063C164.689 39.8104 165.131 39.432 165.699 39.1678C166.267 38.9045 167.084 38.6749 168.155 38.4776C169.6 38.2181 170.6 37.9764 171.156 37.7513V37.4563C171.156 36.8871 171.01 36.4815 170.717 36.2398C170.424 35.9969 169.868 35.8762 169.057 35.8762C168.507 35.8762 168.078 35.9794 167.77 36.1868C167.461 36.3942 167.214 36.7569 167.023 37.2767Z" fill="white"/>
<path d="M175.777 33.8642H179.063L181.856 41.8085L184.581 33.8642H187.779L183.657 44.6315L182.919 46.5808C182.65 47.2338 182.39 47.7324 182.147 48.0765C181.9 48.4206 181.618 48.6998 181.298 48.9137C180.979 49.1286 180.589 49.2952 180.124 49.4141C179.659 49.5343 179.133 49.5938 178.544 49.5938C177.952 49.5938 177.37 49.5343 176.8 49.4141L176.524 47.0964C177.009 47.1883 177.442 47.2338 177.832 47.2338C178.55 47.2338 179.082 47.032 179.424 46.6275C179.769 46.2237 180.032 45.7093 180.216 45.0845L175.777 33.8642Z" fill="white"/>
<path d="M63.7633 19.7899V18.5157L67.6762 18.5082V22.5237C67.0763 23.0836 66.4569 23.505 65.8157 23.7877C65.1745 24.0705 64.5162 24.2109 63.841 24.2109C62.9398 24.2109 62.1335 23.9951 61.4267 23.5625C60.7198 23.1302 60.1588 22.4976 59.7483 21.6671C59.3354 20.8364 59.1289 19.8383 59.1289 18.6737C59.1289 17.4945 59.3354 16.4666 59.7507 15.5924C60.1661 14.717 60.7101 14.0716 61.3805 13.6567C62.0509 13.2409 62.8476 13.0334 63.7633 13.0334C64.4409 13.0334 65.0311 13.1536 65.5388 13.3943C66.0464 13.6353 66.4642 13.9766 66.7921 14.4185C67.12 14.8604 67.3677 15.4676 67.5305 16.2387L66.4302 16.5921C66.282 15.983 66.095 15.5272 65.8715 15.225C65.6432 14.9235 65.3469 14.6865 64.9777 14.5142C64.6085 14.3421 64.1956 14.2567 63.7317 14.2567C63.0613 14.2567 62.4832 14.412 61.9999 14.7244C61.5165 15.0371 61.1255 15.5225 60.8316 16.1812C60.5353 16.8405 60.3895 17.6442 60.3895 18.593C60.3895 20.0383 60.7053 21.1209 61.3344 21.841C61.9659 22.5619 62.7844 22.9218 63.7948 22.9218C64.2758 22.9218 64.7688 22.811 65.274 22.5907C65.7792 22.3693 66.18 22.106 66.4788 21.8019V19.7899H63.7633Z" fill="white"/>
<path d="M69.4844 24.0273V13.2256H76.1642V14.5H70.7081V17.801H75.8192V19.0763H70.7081V22.7529H76.3802V24.0273H69.4844Z" fill="white"/>
<path d="M80.4372 24.0273V14.5001H77.3945V13.2259H84.7187V14.5001H81.6609V24.0273H80.4372Z" fill="white"/>
<path d="M89.5547 24.0273V13.2257H90.7783V24.0273H89.5547Z" fill="white"/>
<path d="M95.2801 24.0273V14.5H92.2383V13.2258H99.5633V14.5H96.5031V24.0273H95.2801Z" fill="white"/>
<path d="M105.085 18.7845C105.085 20.1167 105.39 21.151 106.004 21.8857C106.616 22.6216 107.359 22.9879 108.236 22.9879C109.134 22.9879 109.886 22.6177 110.492 21.8746C111.1 21.1323 111.403 20.0413 111.403 18.6005C111.403 17.6712 111.246 16.8407 110.935 16.1078C110.692 15.547 110.332 15.0984 109.848 14.7619C109.364 14.4251 108.834 14.2568 108.26 14.2568C107.335 14.2568 106.578 14.625 105.98 15.3626C105.382 16.1003 105.085 17.2406 105.085 18.7845ZM103.824 18.7661C103.824 16.9235 104.246 15.5078 105.093 14.5182C105.937 13.5285 106.992 13.0335 108.252 13.0335C109.066 13.0335 109.81 13.2542 110.481 13.6968C111.152 14.1386 111.685 14.7813 112.077 15.6232C112.469 16.4658 112.664 17.4695 112.664 18.6331C112.664 20.2347 112.285 21.5388 111.528 22.5461C110.692 23.6566 109.596 24.2109 108.244 24.2109C106.881 24.2109 105.785 23.6418 104.952 22.5015C104.2 21.4699 103.824 20.2253 103.824 18.7661Z" fill="white"/>
<path d="M114.176 24.0273V13.2257H115.428L120.289 21.7235V13.2257H121.456V24.0273H120.204L115.354 15.5277V24.0273H114.176Z" fill="white"/>
</svg>
