<svg width="61" height="60" viewBox="0 0 61 60" fill="none" xmlns="http://www.w3.org/2000/svg">
<g clip-path="url(#clip0_2342_71735)">
<path d="M5.04829 -0.21239C5.34246 -0.215836 5.63664 -0.219283 5.93972 -0.222833C6.91043 -0.231902 7.88068 -0.229201 8.85142 -0.225574C9.52687 -0.227668 10.2023 -0.230178 10.8778 -0.233087C12.2927 -0.23725 13.7076 -0.235423 15.1225 -0.229578C16.9358 -0.2227 18.7486 -0.232103 20.5619 -0.246173C21.9565 -0.254957 23.351 -0.254388 24.7456 -0.251067C25.4141 -0.250739 26.0827 -0.25349 26.7512 -0.259376C27.686 -0.266344 28.6198 -0.260547 29.5545 -0.251453C29.8305 -0.25613 30.1065 -0.260806 30.3909 -0.265625C31.8022 -0.237686 32.4105 -0.0804129 33.4742 0.871765C34.1831 2.14805 34.2959 2.8704 34.2831 4.32101C34.2829 4.77733 34.2828 5.23365 34.2827 5.7038C34.2744 6.1922 34.2662 6.6806 34.2577 7.1838C34.2554 7.68704 34.2531 8.19028 34.2508 8.70877C34.2434 10.0419 34.229 11.3745 34.2113 12.7075C34.1949 14.0696 34.1876 15.4318 34.1795 16.794C34.1619 19.4631 34.1351 22.132 34.1014 24.801C33.623 24.8068 33.1446 24.8127 32.6517 24.8187C30.8782 24.8418 29.1048 24.8727 27.3314 24.906C26.5636 24.9193 25.7957 24.9305 25.0279 24.9396C23.9246 24.953 22.8217 24.9739 21.7186 24.9963C21.3748 24.9989 21.031 25.0014 20.6768 25.004C20.1965 25.0159 20.1965 25.0159 19.7064 25.028C19.4248 25.0325 19.1432 25.0369 18.8531 25.0415C17.8437 25.2557 17.4981 25.5624 16.9014 26.401C16.7197 27.3515 16.7197 27.3515 16.7461 28.4275C16.7424 28.84 16.7386 29.2525 16.7347 29.6775C16.7383 30.345 16.7383 30.345 16.742 31.026C16.7403 31.7117 16.7403 31.7117 16.7386 32.4112C16.7377 33.3783 16.74 34.3453 16.745 35.3123C16.7514 36.7951 16.745 38.2775 16.7374 39.7604C16.7381 40.6989 16.7397 41.6374 16.742 42.576C16.7396 43.021 16.7372 43.466 16.7347 43.9245C16.7385 44.337 16.7422 44.7495 16.7461 45.1744C16.7476 45.7193 16.7476 45.7193 16.749 46.2751C16.8345 47.2181 16.8345 47.2181 17.4108 47.9168C18.2426 48.5 18.6967 48.558 19.7064 48.5739C20.0266 48.5819 20.3469 48.5898 20.6768 48.5979C21.0206 48.6005 21.3644 48.603 21.7186 48.6057C22.2488 48.6164 22.2488 48.6164 22.7896 48.6274C23.9185 48.6491 25.0474 48.6626 26.1764 48.676C26.9418 48.6893 27.7072 48.703 28.4725 48.7174C30.3488 48.7514 32.225 48.7781 34.1014 48.801C34.148 50.2925 34.1764 51.7839 34.2014 53.276C34.2148 53.698 34.2282 54.1201 34.242 54.5549C34.2498 55.1678 34.2498 55.1678 34.2577 55.7932C34.266 56.1681 34.2744 56.5431 34.2831 56.9294C34.0369 58.3815 33.5542 58.9742 32.5014 60.001C31.4347 60.2017 30.6202 60.2715 29.5545 60.2534C29.1133 60.2577 29.1133 60.2577 28.6631 60.2621C27.6923 60.2689 26.7222 60.2611 25.7514 60.2525C25.076 60.2529 24.4005 60.2539 23.725 60.2555C22.31 60.2566 20.8953 60.2507 19.4803 60.2398C17.667 60.2261 15.8542 60.2285 14.0409 60.236C12.6463 60.2402 11.2518 60.2367 9.85725 60.2307C9.18872 60.2286 8.52017 60.2288 7.85164 60.2313C6.91695 60.2335 5.98291 60.2253 5.04829 60.2144C4.6343 60.2183 4.6343 60.2183 4.21194 60.2223C2.95981 60.1973 2.2363 60.1043 1.23063 59.3342C0.312824 58.1596 0.300393 57.5427 0.298244 56.063C0.291476 55.3463 0.291476 55.3463 0.284572 54.6151C0.287811 54.0922 0.29105 53.5694 0.294386 53.0307C0.292218 52.4734 0.289369 51.9162 0.28589 51.359C0.278596 49.8465 0.281424 48.3343 0.286497 46.8219C0.290547 45.2392 0.286791 43.6566 0.284279 42.0739C0.281368 39.4161 0.285205 36.7584 0.292824 34.1006C0.301532 31.0277 0.298711 27.9549 0.289902 24.882C0.282641 22.2438 0.281616 19.6057 0.285804 16.9675C0.288298 15.3918 0.28863 13.8161 0.283345 12.2404C0.278724 10.7589 0.281928 9.27771 0.291176 7.79629C0.294301 6.99316 0.289547 6.19001 0.284572 5.38689C0.289084 4.90908 0.293595 4.43127 0.298244 3.93898C0.298847 3.52367 0.29945 3.10836 0.300072 2.68046C0.795679 0.0233658 2.68852 -0.234709 5.04829 -0.21239ZM12.5014 2.80099C12.3694 3.32899 12.2374 3.85699 12.1014 4.40099C15.4014 4.40099 18.7014 4.40099 22.1014 4.40099C22.2334 4.00499 22.3654 3.60899 22.5014 3.20099C21.4785 2.68954 20.7545 2.75564 19.6108 2.76193C18.992 2.76386 18.992 2.76386 18.3608 2.76583C17.9287 2.76918 17.4966 2.77254 17.0514 2.77599C16.6162 2.77779 16.181 2.7796 15.7327 2.78146C14.6556 2.78618 13.5785 2.79277 12.5014 2.80099ZM14.1014 52.801C13.6522 54.3451 13.5561 55.2162 14.1264 56.726C15.1235 57.8518 15.827 58.1356 17.3014 58.401C18.6714 58.0505 19.6727 57.5612 20.5014 56.401C20.9398 55.272 20.9398 55.272 20.9014 54.001C20.0025 52.3042 20.0025 52.3042 18.5014 51.201C16.48 50.9764 15.4725 51.2732 14.1014 52.801Z" fill="white"/>
<path d="M18.1016 33.6016C29.0576 33.6016 40.0136 33.6016 51.3016 33.6016C51.3016 37.9576 51.3016 42.3136 51.3016 46.8016C50.61 47.4931 49.722 47.252 48.8001 47.2558C48.4992 47.255 48.1983 47.2542 47.8883 47.2533C47.4151 47.2544 47.4151 47.2544 46.9324 47.2554C45.8846 47.2572 44.8369 47.256 43.7891 47.2547C43.0642 47.255 42.3393 47.2553 41.6144 47.2558C40.0931 47.2564 38.5719 47.2556 37.0506 47.2537C35.096 47.2514 33.1415 47.2527 31.187 47.2551C29.6895 47.2566 28.1921 47.2561 26.6946 47.2551C25.9737 47.2548 25.2529 47.2552 24.532 47.2561C23.5263 47.2571 22.5206 47.2556 21.5148 47.2533C21.0635 47.2545 21.0635 47.2545 20.603 47.2558C18.5473 47.2473 18.5473 47.2473 18.1016 46.8016C18.1016 42.4456 18.1016 38.0896 18.1016 33.6016ZM37.3016 39.6016C36.8309 40.5429 36.8351 41.1538 36.8266 42.2016C36.8209 42.5192 36.8152 42.8368 36.8094 43.1641C36.8229 44.0897 36.8229 44.0897 37.7016 44.8016C38.6635 44.9139 38.6635 44.9139 39.7266 44.8766C40.086 44.874 40.4453 44.8714 40.8156 44.8688C41.6909 44.8991 41.6909 44.8991 42.1016 44.4016C42.141 43.6691 42.1535 42.9351 42.1516 42.2016C42.1526 41.8014 42.1536 41.4013 42.1547 40.9891C42.213 40.024 42.213 40.024 41.7016 39.6016C40.9604 39.5727 40.2182 39.568 39.4766 39.5766C39.0718 39.5802 38.667 39.5838 38.25 39.5875C37.937 39.5921 37.624 39.5968 37.3016 39.6016ZM43.7016 40.0016C43.6622 40.734 43.6497 41.468 43.6516 42.2016C43.6505 42.6017 43.6495 43.0018 43.6484 43.4141C43.5901 44.3792 43.5901 44.3792 44.1016 44.8016C44.7585 44.8514 45.4178 44.8718 46.0766 44.8766C46.4349 44.8822 46.7933 44.8879 47.1625 44.8938C48.178 44.8943 48.178 44.8943 48.9016 44.0016C49.0139 43.0396 49.0139 43.0396 48.9766 41.9766C48.974 41.6172 48.9714 41.2578 48.9688 40.8875C48.9991 40.0123 48.9991 40.0123 48.5016 39.6016C47.7691 39.5622 47.0351 39.5497 46.3016 39.5516C45.7014 39.55 45.7014 39.55 45.0891 39.5484C44.124 39.4901 44.124 39.4901 43.7016 40.0016Z" fill="white"/>
<path d="M18.1016 26.4013C22.3712 26.3921 26.6409 26.385 30.9106 26.3806C32.893 26.3785 34.8753 26.3757 36.8577 26.3712C38.7692 26.3668 40.6806 26.3644 42.592 26.3634C43.323 26.3626 44.0539 26.3612 44.7848 26.359C45.805 26.3562 46.8251 26.3557 47.8452 26.3559C48.1505 26.3545 48.4557 26.353 48.7703 26.3516C50.8559 26.3557 50.8559 26.3557 51.3016 26.8013C51.3016 28.5173 51.3016 30.2333 51.3016 32.0013C40.3456 32.0013 29.3896 32.0013 18.1016 32.0013C18.1016 30.1533 18.1016 28.3053 18.1016 26.4013Z" fill="white"/>
<path d="M40.4242 -0.126322C45.8425 -0.0729691 50.6105 2.37737 54.5492 6.0143C58.2228 9.85631 60.5887 14.9697 60.5242 20.3237C60.5206 20.714 60.517 21.1043 60.5133 21.5065C60.5086 21.8009 60.504 22.0953 60.4992 22.3987C59.8328 22.4158 59.1657 22.4149 58.4992 22.3987C57.7555 21.6549 57.9376 20.3231 57.8492 19.3237C57.2547 14.2016 54.7589 9.82878 50.8992 6.39868C46.9618 3.47814 42.8816 2.62697 38.0992 1.99868C37.8742 1.22368 37.8742 1.22368 37.6992 0.398679C38.419 -0.321147 39.4509 -0.104384 40.4242 -0.126322Z" fill="white"/>
<path d="M40.0742 5.47488C43.8688 5.51906 47.2128 7.18561 50.0992 9.59988C53.5605 13.2253 54.9829 17.0652 54.8992 21.9999C54.2368 22.1528 53.5694 22.2855 52.8992 22.3999C52.2182 21.7189 52.3179 20.7561 52.1992 19.8249C51.5578 15.9347 50.1485 13.1943 47.0805 10.6749C44.3632 8.8057 41.3136 8.11966 38.0992 7.59988C37.8742 6.82488 37.8742 6.82488 37.6992 5.99988C38.368 5.33109 39.1559 5.49935 40.0742 5.47488Z" fill="white"/>
<path d="M38.0992 11.2005C41.1434 11.0374 43.2275 11.5527 45.7742 13.2505C48.1747 15.4476 49.1026 18.0651 49.282 21.252C49.2877 21.499 49.2934 21.746 49.2992 22.0005C48.6392 22.1325 47.9792 22.2645 47.2992 22.4005C47.2002 22.0045 47.1012 21.6085 46.9992 21.2005C46.0942 18.0802 44.9349 16.0897 42.1492 14.3255C41.2216 13.9341 41.2216 13.9341 39.8492 13.8005C38.4992 13.6005 38.4992 13.6005 37.6992 12.8005C37.8492 11.9505 37.8492 11.9505 38.0992 11.2005Z" fill="white"/>
<path d="M41.3019 17.2C42.4769 18.025 42.4769 18.025 43.3019 19.2C43.3284 20.7371 43.2295 21.5968 42.2519 22.8C40.8683 23.3826 39.9367 23.1653 38.5019 22.8C37.7269 22.35 37.7269 22.35 37.3019 21.6C37.1017 20.0277 37.062 19.1598 37.9519 17.825C39.2046 17.0009 39.828 16.9293 41.3019 17.2Z" fill="#222222"/>
<path d="M17.3008 52.6758C17.6968 52.717 18.0928 52.7583 18.5008 52.8008C19.3008 54.0008 19.3008 54.0008 19.2758 55.0258C18.9008 56.0008 18.9008 56.0008 17.9508 56.5508C16.9008 56.8008 16.9008 56.8008 15.7008 56.4008C15.4508 55.0508 15.4508 55.0508 15.3008 53.6008C16.1008 52.8008 16.1008 52.8008 17.3008 52.6758Z" fill="#222222"/>
<path d="M45.3008 41.1992C45.9608 41.1992 46.6208 41.1992 47.3008 41.1992C47.3008 41.8592 47.3008 42.5192 47.3008 43.1992C46.6408 43.1992 45.9808 43.1992 45.3008 43.1992C45.3008 42.5392 45.3008 41.8792 45.3008 41.1992Z" fill="#222222"/>
<path d="M38.5 41.1992C39.16 41.1992 39.82 41.1992 40.5 41.1992C40.5 41.8592 40.5 42.5192 40.5 43.1992C39.84 43.1992 39.18 43.1992 38.5 43.1992C38.5 42.5392 38.5 41.8792 38.5 41.1992Z" fill="#222222"/>
</g>
<defs>
<clipPath id="clip0_2342_71735">
<rect width="60" height="60" fill="white" transform="translate(0.5)"/>
</clipPath>
</defs>
</svg>
