<svg width="61" height="60" viewBox="0 0 61 60" fill="none" xmlns="http://www.w3.org/2000/svg">
<g clip-path="url(#clip0_2342_71715)">
<path d="M11.2992 23.6016C13.1541 25.1637 14.9607 26.7606 16.6992 28.4516C16.9189 28.6563 17.1385 28.861 17.3648 29.0719C17.9867 29.6797 17.9867 29.6797 18.8992 30.8016C18.7858 32.1501 18.2582 32.7694 17.2773 33.6562C17.0314 33.8875 16.7854 34.1188 16.532 34.357C16.0157 34.8316 15.497 35.3035 14.9758 35.7727C13.1389 37.5117 12.1765 39.0988 11.6992 41.6016C11.677 43.5014 12.2358 44.865 13.3992 46.3516C15.2907 47.8132 16.8166 48.65 19.2764 48.5394C22.2536 48.0408 24.3026 46.0096 26.2992 43.9016C26.6782 43.5117 26.6782 43.5117 27.0648 43.1141C27.6802 42.4801 28.2914 41.8427 28.8992 41.2016C30.8557 42.8289 32.6886 44.5393 34.4742 46.3516C34.7096 46.5887 34.945 46.8259 35.1875 47.0703C35.759 47.6465 36.3292 48.2239 36.8992 48.8016C32.8667 53.7302 28.3087 58.9451 21.6992 60.0016C15.9943 60.5412 11.0795 59.6427 6.49921 56.0016C6.25326 55.8103 6.00731 55.619 5.7539 55.4219C3.06335 53.0535 0.731217 48.7744 0.428413 45.1554C0.255277 38.7604 0.842305 34.3324 5.33105 29.5074C6.22745 28.5951 7.1348 27.6958 8.04921 26.8016C8.36271 26.4917 8.67621 26.1818 8.99921 25.8625C9.76407 25.107 10.5307 24.3534 11.2992 23.6016Z" fill="white"/>
<path d="M34.2741 0.823327C36.6459 2.19019 38.5226 4.14131 39.5116 6.73739C40.035 9.14053 40.2237 12.0741 39.0991 14.3233C38.9011 14.6121 38.7031 14.9008 38.4991 15.1983C38.3006 15.0436 38.1021 14.889 37.8975 14.7296C36.1596 13.3972 34.4246 12.2413 32.4991 11.1983C32.6888 10.9096 32.8786 10.6208 33.0741 10.3233C33.7098 9.17897 34.0371 8.50082 34.0991 7.19833C33.5124 5.40737 33.0174 4.08203 31.2991 3.19833C29.8016 2.74258 29.102 2.72275 27.6241 3.27333C26.0745 4.27196 25.4851 4.98717 24.9491 6.74833C24.8876 8.28607 25.3612 9.07006 26.0991 10.3983C26.0991 10.7943 26.0991 11.1903 26.0991 11.5983C25.8913 11.6906 25.6835 11.7829 25.4694 11.878C23.5966 12.7538 22.3347 13.6782 20.8991 15.1983C20.6351 15.1983 20.3711 15.1983 20.0991 15.1983C18.8144 12.5108 18.8394 9.06908 19.546 6.19364C20.7088 3.57477 22.9837 1.87629 25.3741 0.423327C28.3904 -0.417277 31.39 -0.496713 34.2741 0.823327Z" fill="white"/>
<path d="M57.2985 25.1993C59.2167 26.8614 60.3913 28.7121 60.6047 31.2758C60.6027 31.7208 60.6006 32.1658 60.5985 32.6243C60.6016 33.2933 60.6016 33.2933 60.6047 33.9758C60.5031 35.1455 60.307 35.8116 59.6985 36.7993C59.486 36.6353 59.2736 36.4713 59.0547 36.3024C58.7722 36.0869 58.4896 35.8713 58.1985 35.6493C57.92 35.4358 57.6416 35.2223 57.3547 35.0024C56.5596 34.4423 55.7791 34.0079 54.8985 33.5993C55.1089 33.1043 55.1089 33.1043 55.3235 32.5993C55.808 30.7905 55.7401 29.8248 55.2985 27.9993C54.1854 26.6897 53.5845 26.4294 51.8735 26.2493C50.6228 26.3857 49.9136 26.485 48.8985 27.1993C47.9077 28.6854 47.9243 29.8778 48.0985 31.5993C48.4513 32.7521 48.4513 32.7521 48.8985 33.5993C48.5729 33.795 48.5729 33.795 48.2407 33.9946C47.8114 34.2568 47.8114 34.2568 47.3735 34.5243C47.0904 34.696 46.8073 34.8677 46.5157 35.0446C45.6849 35.5693 45.6849 35.5693 45.0438 36.2665C44.4985 36.7993 44.4985 36.7993 43.6985 36.7993C42.6333 34.4345 42.4536 32.0184 43.1454 29.5008C44.3213 26.8315 46.4405 24.9069 49.1235 23.8243C52.2179 23.3179 54.5596 23.6561 57.2985 25.1993Z" fill="white"/>
<path d="M34.6367 13.5161C35.6714 14.2683 36.5155 14.9856 37.3008 15.9989C37.3758 16.7989 37.3758 16.7989 36.9008 17.5989C34.6305 19.8164 32.5541 20.5132 29.3508 20.5489C26.6058 20.5026 24.6307 20.1386 22.6648 18.1583C22.1825 17.5944 21.7372 16.9991 21.3008 16.3989C24.8005 12.5162 29.7135 10.558 34.6367 13.5161Z" fill="white"/>
<path d="M55.4124 5.52022C57.362 6.87301 58.0818 8.50909 58.5015 10.7983C58.4564 12.3248 58.3907 13.82 57.7015 15.1983C56.1037 14.9525 55.0036 14.1158 53.7015 13.1983C53.8335 12.8023 53.9655 12.4063 54.1015 11.9983C54.2583 10.38 54.2583 10.38 54.1015 8.79835C53.072 7.58718 52.4405 7.25369 50.8765 6.99835C49.4163 7.24689 48.9686 7.61012 48.1015 8.79835C47.4841 10.4742 47.8581 11.5709 48.5015 13.1983C47.9862 13.5339 47.4692 13.8667 46.9515 14.1983C46.6638 14.384 46.376 14.5696 46.0796 14.7608C45.3015 15.1983 45.3015 15.1983 44.5015 15.1983C43.4426 13.0144 43.4216 11.0416 44.1515 8.74835C44.9889 6.71005 46.3239 5.75318 48.2265 4.67335C50.8439 4.00377 53.051 4.17755 55.4124 5.52022Z" fill="white"/>
<path d="M17.4234 18.1523C19.1846 18.5588 20.1737 19.8024 21.4 21.0758C21.6547 21.3261 21.9094 21.5765 22.1719 21.8344C23.1964 22.8753 23.984 23.7238 24.5516 25.0789C24.4812 26.3369 24.0414 26.7782 23.175 27.6758C22.9208 27.9455 22.6666 28.2151 22.4047 28.493C21.9037 28.9962 21.4021 29.4987 20.9 30.0008C19.3986 29.8911 18.6765 29.1176 17.6563 28.0742C17.3546 27.7687 17.053 27.4632 16.7422 27.1484C16.4313 26.8275 16.1203 26.5065 15.8 26.1758C15.4829 25.8533 15.1658 25.5307 14.8391 25.1984C14.0566 24.4018 13.2771 23.6026 12.5 22.8008C13.1177 21.4953 13.7426 20.6694 14.825 19.7008C15.2249 19.3326 15.2249 19.3326 15.6328 18.957C16.5 18.4008 16.5 18.4008 17.4234 18.1523Z" fill="white"/>
<path d="M35.0549 35.8828C36.9441 36.0919 37.9679 37.5455 39.2516 38.8486C39.5321 39.1147 39.8126 39.3808 40.1016 39.6549C42.0807 41.6341 42.0807 41.6341 42.175 43.2846C41.655 44.5081 41.1238 45.2439 40.1766 46.1736C39.9017 46.4536 39.6269 46.7336 39.3438 47.0221C38.5016 47.5986 38.5016 47.5986 37.7517 47.5301C36.6578 47.1036 36.0778 46.5107 35.2578 45.6721C34.9562 45.3666 34.6545 45.0611 34.3438 44.7463C34.0328 44.4253 33.7219 44.1043 33.4016 43.7736C33.0845 43.4511 32.7673 43.1286 32.4406 42.7963C31.6582 41.9997 30.8787 41.2004 30.1016 40.3986C30.2652 40.2078 30.4289 40.017 30.5976 39.8204C30.8129 39.5693 31.0282 39.3183 31.25 39.0596C31.4632 38.811 31.6764 38.5624 31.896 38.3063C32.3746 37.747 32.851 37.1856 33.3266 36.6236C34.1016 35.9986 34.1016 35.9986 35.0549 35.8828Z" fill="white"/>
<path d="M55.4234 35.1013C56.6326 35.7881 57.6758 36.4567 58.4984 37.6013C58.5234 38.4013 58.5234 38.4013 58.0984 39.2013C56.2373 41.0624 54.2958 41.5221 51.7234 41.7263C49.3981 41.6542 47.3652 40.9789 45.6984 39.3263C45.4344 39.021 45.1704 38.7158 44.8984 38.4013C45.8525 36.3808 46.9616 35.7697 48.8984 34.8013C51.1384 34.0546 53.2761 34.0759 55.4234 35.1013Z" fill="white"/>
<path d="M53.7453 14.3023C54.8516 14.8852 55.587 15.3258 56.0766 16.5008C56.0848 16.7318 56.0931 16.9628 56.1016 17.2008C54.1338 18.9998 52.3508 19.0393 49.7344 18.9586C48.057 18.7439 47.2914 18.3907 46.1016 17.2008C46.1016 16.8048 46.1016 16.4088 46.1016 16.0008C48.294 13.9861 50.8761 13.2769 53.7453 14.3023Z" fill="white"/>
<path d="M30.9016 3.99995C31.8516 4.39995 31.8516 4.39995 32.5016 5.19995C32.9156 6.63374 33.0433 7.91035 32.6266 9.34995C31.6743 10.529 30.8048 10.7548 29.3266 10.9749C28.1016 10.7999 28.1016 10.7999 26.9516 9.97495C26.1016 8.79995 26.1016 8.79995 25.8516 7.39995C26.3706 4.49309 28.0794 3.58944 30.9016 3.99995Z" fill="white"/>
<path d="M30.5 23.6016C31.275 23.7266 31.275 23.7266 32.1 24.0016C32.6568 25.6719 32.0293 26.4555 31.3 28.0016C31.8693 27.9768 31.8693 27.9768 32.45 27.9516C33.7 28.0016 33.7 28.0016 34.5 28.8016C34.3552 30.3467 33.785 31.5612 33.075 32.9266C32.893 33.2798 32.711 33.633 32.5234 33.9969C32.3837 34.2624 32.244 34.528 32.1 34.8016C31.44 34.6696 30.78 34.5376 30.1 34.4016C30.344 32.9784 30.7313 31.7284 31.3 30.4016C30.9123 30.4098 30.5245 30.4181 30.125 30.4266C28.9 30.4016 28.9 30.4016 28.5 30.0016C28.6307 27.5178 29.2711 25.7507 30.5 23.6016Z" fill="white"/>
<path d="M5.30188 9.19922C7.51727 9.39614 7.51727 9.39614 8.45188 10.4242C8.67463 10.8078 8.67463 10.8078 8.90188 11.1992C9.42988 10.5392 9.95788 9.87922 10.5019 9.19922C12.0837 9.41297 12.7576 10.1311 13.8019 11.2992C14.0844 11.6065 14.367 11.9138 14.6581 12.2305C15.391 13.3333 15.4398 13.9026 15.3019 15.1992C14.4269 15.3242 14.4269 15.3242 13.3019 15.1992C12.1769 14.1992 12.1769 14.1992 11.3019 13.1992C10.9059 13.7272 10.5099 14.2552 10.1019 14.7992C8.41651 14.6013 7.68136 14.1794 6.57688 12.8992C6.21414 12.4939 6.21414 12.4939 5.84407 12.0805C5.20152 11.0361 5.19447 10.4039 5.30188 9.19922Z" fill="white"/>
<path d="M45.3 44.3984C45.9701 44.5129 46.6375 44.6456 47.3 44.7984C47.35 47.4984 47.35 47.4984 46.9 48.3984C47.6796 48.2871 47.6796 48.2871 48.475 48.1734C49.3609 48.0469 49.3609 48.0469 50.1 47.9984C50.232 48.1304 50.364 48.2624 50.5 48.3984C50.4846 49.3976 50.4421 50.3776 50.375 51.3734C50.3608 51.6511 50.3466 51.9288 50.332 52.2148C50.1966 54.3018 50.1966 54.3018 49.3 55.1984C48.45 55.0484 48.45 55.0484 47.7 54.7984C47.65 51.6984 47.65 51.6984 48.1 50.7984C46.516 50.9964 46.516 50.9964 44.9 51.1984C44.4786 48.9981 44.4735 47.0068 44.9 44.7984C45.032 44.6664 45.164 44.5344 45.3 44.3984Z" fill="white"/>
<path d="M53.2984 27.5996C54.0234 28.0496 54.0234 28.0496 54.4984 28.7996C54.6434 30.1528 54.7322 31.1467 54.0984 32.3746C52.8004 33.0642 51.5305 33.0615 50.0984 32.7996C49.2734 32.1746 49.2734 32.1746 48.8984 31.1996C48.8984 29.7746 48.8984 29.7746 49.2984 28.3996C50.6563 27.1926 51.5939 26.9716 53.2984 27.5996Z" fill="white"/>
<path d="M51.1004 8.27344C51.7934 8.33531 51.7934 8.33531 52.5004 8.39844C53.3004 9.59844 53.3004 9.59844 53.1754 10.8484C52.9004 11.9984 52.9004 11.9984 52.5004 12.3984C51.1254 12.4984 51.1254 12.4984 49.7004 12.3984C48.8407 11.1089 48.7472 10.6916 48.9004 9.19844C49.7004 8.39844 49.7004 8.39844 51.1004 8.27344Z" fill="white"/>
</g>
<defs>
<clipPath id="clip0_2342_71715">
<rect width="60" height="60" fill="white" transform="translate(0.5)"/>
</clipPath>
</defs>
</svg>
