<svg width="61" height="60" viewBox="0 0 61 60" fill="none" xmlns="http://www.w3.org/2000/svg">
<g clip-path="url(#clip0_2342_71704)">
<path d="M55.3008 30.0007C56.4508 30.6257 56.4508 30.6257 57.3008 31.6007C57.7297 33.0753 57.9244 33.9427 57.2404 35.3435C56.3616 36.5996 55.3507 37.6655 54.2664 38.7413C53.9431 39.0658 53.9431 39.0658 53.6133 39.3967C53.1591 39.8515 52.7038 40.3053 52.2477 40.7581C51.553 41.4485 50.8626 42.1431 50.1727 42.8382C49.7292 43.2812 49.2854 43.7239 48.8414 44.1663C48.6368 44.3726 48.4321 44.5789 48.2213 44.7914C45.6101 47.369 43.9048 47.7787 40.3367 47.8366C39.512 47.8618 38.6872 47.8871 37.8625 47.9124C36.566 47.9454 35.2695 47.9758 33.9729 48.0041C32.7189 48.0335 31.4655 48.0721 30.2117 48.1116C29.8238 48.1171 29.4358 48.1226 29.0361 48.1282C26.8771 48.1718 26.8771 48.1718 25.0438 49.2188C24.8646 49.4768 24.6854 49.7349 24.5008 50.0007C22.8987 49.3592 21.8299 48.2323 20.6445 47.0226C20.4337 46.8106 20.2229 46.5987 20.0057 46.3803C19.3355 45.7056 18.6681 45.0282 18.0008 44.3507C17.5458 43.8917 17.0906 43.4328 16.6352 42.9741C15.5216 41.8518 14.4105 40.7269 13.3008 39.6007C14.0314 38.008 15.0656 36.9648 16.3508 35.8007C16.6742 35.5073 16.6742 35.5073 17.0042 35.2079C19.346 33.1356 21.6588 31.6566 24.9008 31.6007C26.8134 32.0101 28.4679 32.5121 30.1008 33.6007C31.1987 33.722 31.1987 33.722 32.4367 33.7101C33.1239 33.7225 33.1239 33.7225 33.825 33.7351C34.7906 33.7455 35.7562 33.7528 36.7219 33.757C37.1805 33.7662 37.6392 33.7755 38.1117 33.7851C38.7412 33.79 38.7412 33.79 39.3835 33.795C40.7781 34.0518 41.2531 34.4809 42.1008 35.6007C42.2869 37.0893 42.3042 38.0142 41.6008 39.3507C40.1152 40.7302 38.1784 40.4539 36.257 40.4398C35.9663 40.4392 35.6756 40.4386 35.3761 40.4381C34.4509 40.4358 33.5259 40.4308 32.6008 40.4257C31.9721 40.4237 31.3435 40.4219 30.7148 40.4202C29.1768 40.4158 27.6388 40.4089 26.1008 40.4007C26.2988 40.7967 26.2988 40.7967 26.5008 41.2007C28.3937 41.2404 30.2863 41.2694 32.1795 41.2886C32.8228 41.2966 33.466 41.3075 34.1092 41.3214C35.0367 41.3409 35.9638 41.3499 36.8914 41.357C37.3191 41.3693 37.3191 41.3693 37.7553 41.382C40.4057 41.3832 41.7204 40.3214 43.6051 38.5809C43.9728 38.2064 44.3406 37.8319 44.7195 37.446C44.9184 37.245 45.1174 37.044 45.3223 36.837C45.9504 36.2018 46.5758 35.564 47.2008 34.9257C47.8319 34.2836 48.4635 33.642 49.0964 33.0016C49.6668 32.4241 50.2352 31.8447 50.8035 31.2653C52.2786 29.844 53.269 29.8285 55.3008 30.0007Z" fill="white"/>
<path d="M29.7503 14.2823C30.3382 14.2845 30.926 14.2862 31.5139 14.2874C33.0534 14.292 34.5927 14.3037 36.1321 14.3171C37.7061 14.3294 39.2801 14.3348 40.8542 14.3409C43.9368 14.3537 47.0193 14.3742 50.1018 14.3995C50.1117 16.0442 50.119 17.6888 50.1238 19.3335C50.1258 19.8934 50.1285 20.4533 50.132 21.0132C50.1368 21.8164 50.1389 22.6197 50.1409 23.4229C50.143 23.9068 50.1451 24.3907 50.1472 24.8892C50.1018 25.9995 50.1018 25.9995 49.7018 26.3995C48.6429 26.4375 47.5944 26.4497 46.5353 26.4449C46.2036 26.4449 45.872 26.445 45.5302 26.4451C44.4286 26.4448 43.3269 26.4417 42.2253 26.4385C41.4635 26.4378 40.7018 26.4372 39.9401 26.4368C37.9312 26.4353 35.9222 26.4313 33.9133 26.4269C31.8649 26.4228 29.8166 26.421 27.7682 26.419C23.7461 26.4147 19.724 26.4079 15.7018 26.3995C15.1695 25.3348 15.2568 24.5245 15.2628 23.3338C15.2641 22.8852 15.2653 22.4367 15.2667 21.9745C15.27 21.5042 15.2734 21.034 15.2768 20.5495C15.2786 20.0761 15.2804 19.6028 15.2823 19.1151C15.287 17.9432 15.2936 16.7713 15.3018 15.5995C15.8595 15.6203 15.8595 15.6203 16.4284 15.6417C16.9229 15.6525 17.4174 15.6633 17.9268 15.6745C18.4141 15.6884 18.9014 15.7023 19.4034 15.7167C20.8917 15.7017 20.8917 15.7017 22.0175 14.9995C24.4195 13.9324 27.1734 14.2534 29.7503 14.2823ZM41.3018 17.5995C41.3018 19.7115 41.3018 21.8235 41.3018 23.9995C42.2836 24.0077 43.2653 24.016 44.2768 24.0245C44.7412 24.0299 44.7412 24.0299 45.215 24.0355C45.9107 24.0384 46.6064 24.0196 47.3018 23.9995C47.8453 23.5462 47.8453 23.5462 47.755 22.3495C47.7534 21.5822 47.7534 21.5822 47.7518 20.7995C47.7529 20.288 47.7539 19.7765 47.755 19.2495C47.8453 18.0527 47.8453 18.0527 47.3018 17.5995C46.2887 17.5702 45.2894 17.5626 44.2768 17.5745C43.2951 17.5827 42.3133 17.591 41.3018 17.5995ZM18.1018 18.3995C17.9698 18.7955 17.8378 19.1915 17.7018 19.5995C18.8913 20.1942 19.967 20.0439 21.2925 20.0385C21.5666 20.038 21.8406 20.0374 22.1231 20.0368C22.9993 20.0346 23.8756 20.0296 24.7518 20.0245C25.3456 20.0225 25.9393 20.0206 26.5331 20.019C27.9893 20.0146 29.4456 20.0077 30.9018 19.9995C30.9018 19.4715 30.9018 18.9435 30.9018 18.3995C26.6778 18.3995 22.4538 18.3995 18.1018 18.3995ZM18.1018 21.5995C17.9698 21.9955 17.8378 22.3915 17.7018 22.7995C20.7378 22.7995 23.7738 22.7995 26.9018 22.7995C26.7698 22.4035 26.6378 22.0075 26.5018 21.5995C23.7298 21.5995 20.9578 21.5995 18.1018 21.5995Z" fill="white"/>
<path d="M9.30078 37.6016C10.6096 38.1746 11.4736 38.8769 12.4777 39.8877C12.934 40.3441 12.934 40.3441 13.3995 40.8097C13.7238 41.138 14.048 41.4664 14.382 41.8047C14.7171 42.1409 15.0523 42.4772 15.3975 42.8236C16.4672 43.8977 17.534 44.9746 18.6008 46.0516C19.3256 46.7804 20.0506 47.509 20.7758 48.2375C22.5529 50.0234 24.3277 51.8116 26.1008 53.6016C25.287 55.282 24.2564 56.4069 22.9508 57.7266C22.7389 57.9516 22.5269 58.1767 22.3086 58.4086C21.6789 59.0469 21.6789 59.0469 20.5008 60.0016C19.0208 59.9096 18.2988 59.1457 17.2871 58.1241C16.9749 57.8118 16.6627 57.4995 16.341 57.1778C16.0081 56.8386 15.6751 56.4994 15.332 56.15C14.988 55.8043 14.644 55.4586 14.2896 55.1024C13.1905 53.9966 12.0956 52.8867 11.0008 51.7766C10.2568 51.0265 9.51252 50.2768 8.76797 49.5273C6.9424 47.6885 5.1203 45.8464 3.30078 44.0016C3.67908 43.5566 4.05789 43.1122 4.43691 42.6679C4.64781 42.4203 4.8587 42.1727 5.07599 41.9177C5.89494 40.979 6.76345 40.1005 7.65078 39.2266C7.96325 38.9177 8.27572 38.6088 8.59766 38.2906C8.82969 38.0632 9.06172 37.8358 9.30078 37.6016Z" fill="white"/>
<path d="M22.6984 0.651864C24.8193 2.66668 26.1374 4.24951 26.2484 7.27686C26.2176 9.61085 25.687 11.0893 24.0984 12.8019C22.4267 14.3525 20.927 14.9276 18.6484 15.0019C16.1336 14.8666 14.5629 14.171 12.7984 12.3769C11.4465 10.6825 10.9413 8.95992 10.8984 6.80186C11.3526 4.12375 12.4796 2.10821 14.6734 0.476864C17.3065 -0.400823 20.1589 -0.527216 22.6984 0.651864ZM18.0984 2.80186C17.8344 3.59386 17.5704 4.38586 17.2984 5.20186C16.3744 5.33386 15.4504 5.46586 14.4984 5.60186C14.9865 6.67809 14.9865 6.67809 15.6984 7.60186C15.7549 8.6701 15.7154 9.73159 15.6984 10.8019C16.8975 10.8403 16.8975 10.8403 18.0484 10.5769C19.2791 10.4046 20.1082 10.4868 21.2984 10.8019C21.3397 10.2986 21.3809 9.79536 21.4234 9.27686C21.6119 7.70576 21.6119 7.70576 22.3234 6.85186C22.5132 6.70336 22.7029 6.55486 22.8984 6.40186C22.8984 6.13786 22.8984 5.87386 22.8984 5.60186C22.4529 5.51111 22.0074 5.42036 21.5484 5.32686C20.0984 4.80186 20.0984 4.80186 19.5234 3.75186C19.4121 3.28161 19.4121 3.28161 19.2984 2.80186C18.9024 2.80186 18.5064 2.80186 18.0984 2.80186Z" fill="white"/>
<path d="M26.8984 4.00123C29.8643 3.99198 32.8301 3.98486 35.796 3.9805C37.173 3.97841 38.55 3.97557 39.9271 3.97105C41.5087 3.96589 43.0903 3.96394 44.6719 3.96216C45.4169 3.95907 45.4169 3.95907 46.1769 3.95591C46.6333 3.95588 47.0898 3.95585 47.5601 3.95582C47.9642 3.95493 48.3684 3.95404 48.7848 3.95312C49.6984 4.00123 49.6984 4.00123 50.0984 4.40123C50.0984 5.58923 50.0984 6.77723 50.0984 8.00123C42.5744 8.00123 35.0504 8.00123 27.2984 8.00123C27.1664 6.68123 27.0344 5.36123 26.8984 4.00123Z" fill="white"/>
<path d="M27.2992 9.19922C34.8232 9.19922 42.3472 9.19922 50.0992 9.19922C50.0992 10.3872 50.0992 11.5752 50.0992 12.7992C42.0472 12.7992 33.9952 12.7992 25.6992 12.7992C26.2272 11.6112 26.7552 10.4232 27.2992 9.19922Z" fill="white"/>
</g>
<defs>
<clipPath id="clip0_2342_71704">
<rect width="60" height="60" fill="white" transform="translate(0.5)"/>
</clipPath>
</defs>
</svg>
