<svg width="61" height="60" viewBox="0 0 61 60" fill="none" xmlns="http://www.w3.org/2000/svg">
<g clip-path="url(#clip0_2342_71750)">
<path d="M12.9239 -0.115283C13.2524 -0.11797 13.581 -0.120657 13.9196 -0.123425C15.0073 -0.131033 16.0949 -0.132588 17.1827 -0.133447C17.9384 -0.136017 18.6942 -0.138709 19.45 -0.141516C21.0351 -0.146309 22.6202 -0.147788 24.2053 -0.147314C26.236 -0.147233 28.2664 -0.158153 30.297 -0.171932C31.8584 -0.18083 33.4197 -0.18245 34.9811 -0.182027C35.7297 -0.182971 36.4783 -0.186509 37.2268 -0.192693C38.2744 -0.200536 39.3216 -0.19823 40.3692 -0.193408C40.678 -0.197904 40.9869 -0.202399 41.3051 -0.207031C42.7884 -0.189695 43.622 -0.0482079 44.8813 0.763074C46.3876 2.30794 46.1502 3.75604 46.1373 5.80405C46.1368 6.1403 46.1362 6.47655 46.1356 6.82299C46.1334 7.89898 46.1284 8.97494 46.1233 10.0509C46.1213 10.7796 46.1194 11.5082 46.1178 12.2369C46.1134 14.0249 46.1065 15.8129 46.0983 17.6009C45.7519 17.6042 45.4056 17.6074 45.0487 17.6107C41.7823 17.6419 38.516 17.6768 35.2497 17.7159C33.5705 17.7359 31.8913 17.7544 30.212 17.7697C28.591 17.7844 26.9701 17.803 25.3491 17.8242C24.7312 17.8316 24.1132 17.8376 23.4952 17.8423C22.6286 17.849 21.7622 17.8607 20.8956 17.8734C20.1562 17.8814 20.1562 17.8814 19.4018 17.8895C18.1235 17.9988 17.2344 18.2161 16.0983 18.8009C14.9169 20.6028 15.1833 22.8737 15.192 24.9509C15.1913 25.3518 15.1905 25.7526 15.1897 26.1656C15.1892 27.0115 15.1906 27.8574 15.194 28.7033C15.1983 29.9963 15.194 31.2891 15.1889 32.5822C15.1894 33.4051 15.1905 34.228 15.192 35.0509C15.1904 35.4368 15.1888 35.8227 15.1871 36.2203C15.1488 38.8314 15.1488 38.8314 16.0983 41.2009C17.7086 42.0299 19.1009 42.1091 20.8956 42.1285C21.169 42.1325 21.4424 42.1365 21.7241 42.1406C22.6223 42.1529 23.5204 42.1598 24.4186 42.1666C25.0435 42.174 25.6684 42.1819 26.2933 42.19C27.934 42.2105 29.5746 42.2264 31.2153 42.2413C32.8912 42.2573 34.567 42.2777 36.2428 42.2978C39.5279 42.3365 42.8131 42.3702 46.0983 42.4009C46.1379 44.529 46.1669 46.6569 46.1862 48.7852C46.1942 49.5088 46.2051 50.2324 46.219 50.9559C46.2384 51.9975 46.2475 53.0388 46.2545 54.0806C46.2628 54.4028 46.271 54.7249 46.2796 55.0569C46.2802 56.6528 46.2169 57.4144 45.3385 58.7959C43.8383 60.2332 42.4971 60.0673 40.5181 60.0781C40.1896 60.0813 39.861 60.0846 39.5226 60.088C38.4327 60.0979 37.3429 60.1045 36.253 60.1103C35.8811 60.1124 35.5092 60.1146 35.1261 60.1168C33.1579 60.1274 31.1897 60.1352 29.2214 60.141C27.1876 60.1476 25.154 60.1655 23.1202 60.1859C21.5572 60.1994 19.9942 60.204 18.4311 60.2063C17.6813 60.2089 16.9316 60.215 16.1819 60.2246C15.1323 60.2373 14.0834 60.2373 13.0337 60.2343C12.7242 60.2409 12.4148 60.2475 12.0959 60.2542C10.4816 60.2355 9.78313 60.0701 8.51481 59.0363C7.36117 57.5734 7.24759 56.8895 7.2421 55.0529C7.23982 54.597 7.23753 54.1411 7.23518 53.6713C7.23473 53.1687 7.23429 52.666 7.23383 52.1481C7.23184 51.6206 7.22985 51.0931 7.22781 50.5496C7.22255 49.1 7.21998 47.6504 7.2182 46.2007C7.21703 45.2952 7.21539 44.3897 7.2136 43.4842C7.20813 40.6516 7.20426 37.8189 7.20272 34.9863C7.20093 31.7156 7.19391 28.4449 7.18232 25.1742C7.17368 22.6468 7.16964 20.1194 7.1691 17.592C7.16869 16.0821 7.16632 14.5724 7.15918 13.0626C7.15259 11.6419 7.15172 10.2214 7.15523 8.80075C7.15569 8.03155 7.1502 7.26235 7.14453 6.49318C7.14676 6.03385 7.14899 5.57453 7.15128 5.10129C7.1507 4.70301 7.15011 4.30472 7.1495 3.89437C7.3265 2.59354 7.72437 1.85428 8.49828 0.800928C10.0005 -0.200567 11.1839 -0.117315 12.9239 -0.115283ZM17.6983 4.00093C17.6983 4.39693 17.6983 4.79293 17.6983 5.20093C18.3096 5.81229 18.8579 5.65179 19.7099 5.65269C20.2225 5.65458 20.2225 5.65458 20.7455 5.65651C21.1171 5.6557 21.4888 5.65489 21.8717 5.65405C22.251 5.65444 22.6303 5.65482 23.0211 5.65521C23.8251 5.65549 24.6291 5.65474 25.4331 5.65308C26.6666 5.65094 27.9 5.65305 29.1334 5.65562C29.9129 5.65535 30.6923 5.65484 31.4717 5.65405C32.028 5.65527 32.028 5.65527 32.5955 5.65651C32.9385 5.65525 33.2815 5.65398 33.6349 5.65269C34.0888 5.65221 34.0888 5.65221 34.5518 5.65172C35.3355 5.64658 35.3355 5.64658 36.0983 5.20093C36.0983 4.80493 36.0983 4.40893 36.0983 4.00093C30.0263 4.00093 23.9543 4.00093 17.6983 4.00093ZM26.4983 54.4009C26.1023 54.5989 26.1023 54.5989 25.6983 54.8009C25.6983 55.1969 25.6983 55.5929 25.6983 56.0009C26.3583 56.0009 27.0183 56.0009 27.6983 56.0009C27.6983 55.6049 27.6983 55.2089 27.6983 54.8009C27.3023 54.6689 26.9063 54.5369 26.4983 54.4009Z" fill="white"/>
<path d="M20.439 18.983C20.9035 18.9878 20.9035 18.9878 21.3773 18.9928C21.7066 18.99 22.0359 18.9872 22.3752 18.9843C23.4628 18.9772 24.5499 18.9819 25.6375 18.9873C26.3937 18.9862 27.1498 18.9847 27.906 18.9827C29.4905 18.9803 31.0748 18.9837 32.6592 18.9912C34.6904 19.0003 36.7212 18.9951 38.7523 18.9855C40.3137 18.9797 41.875 18.9816 43.4363 18.9857C44.1852 18.9868 44.9342 18.9855 45.6831 18.9817C46.7298 18.9777 47.776 18.9839 48.8227 18.9928C49.1323 18.9895 49.442 18.9863 49.761 18.983C51.8824 19.0164 52.0807 19.1805 53.7 20.7998C53.7 23.9678 53.7 27.1358 53.7 30.3998C41.424 30.3998 29.148 30.3998 16.5 30.3998C16.5 19.0451 16.5 19.0451 20.439 18.983Z" fill="white"/>
<path d="M16.5 36.8008C28.776 36.8008 41.052 36.8008 53.7 36.8008C53.7 39.2008 53.7 39.2008 53.1048 40.1378C51.7076 41.0597 50.4418 41.0247 48.8227 41.0078C48.3287 41.012 48.3287 41.012 47.8248 41.0163C46.7372 41.0233 45.6501 41.0187 44.5625 41.0133C43.8063 41.0144 43.0502 41.0159 42.294 41.0179C40.7095 41.0203 39.1252 41.0169 37.5408 41.0094C35.5097 41.0003 33.4788 41.0055 31.4477 41.0151C29.8863 41.0209 28.325 41.019 26.7637 41.0149C26.0148 41.0138 25.2658 41.0151 24.5169 41.0189C23.4702 41.0229 22.424 41.0167 21.3773 41.0078C21.0677 41.0111 20.758 41.0143 20.439 41.0176C19.0859 40.9963 18.2354 40.8901 17.0952 40.1378C16.5 39.2008 16.5 39.2008 16.5 36.8008Z" fill="white"/>
<path d="M16.5 32C28.776 32 41.052 32 53.7 32C53.7 33.056 53.7 34.112 53.7 35.2C41.424 35.2 29.148 35.2 16.5 35.2C16.5 34.144 16.5 33.088 16.5 32Z" fill="white"/>
</g>
<defs>
<clipPath id="clip0_2342_71750">
<rect width="60" height="60" fill="white" transform="translate(0.5)"/>
</clipPath>
</defs>
</svg>
