<svg width="24" height="24" viewBox="0 0 24 24" fill="none" xmlns="http://www.w3.org/2000/svg">
<rect width="24" height="24" rx="12" fill="url(#paint0_linear_1620_57752)"/>
<path d="M9.34707 7.92811L9.81435 8.76542C10.2361 9.52105 10.0668 10.5123 9.40259 11.1765C9.40259 11.1765 8.59703 11.9822 10.0576 13.4428C11.5178 14.903 12.324 14.0979 12.324 14.0979C12.9882 13.4337 13.9794 13.2644 14.735 13.6861L15.5723 14.1534C16.7134 14.7902 16.8481 16.3903 15.8452 17.3933C15.2426 17.9959 14.5043 18.4648 13.6882 18.4957C12.3143 18.5478 9.98118 18.2002 7.64075 15.8597C5.30033 13.5193 4.95263 11.1861 5.00472 9.81229C5.03566 8.99618 5.50458 8.25791 6.10722 7.65527C7.11015 6.65235 8.71028 6.78711 9.34707 7.92811Z" fill="white"/>
<path d="M11.667 5.45348C11.7147 5.15908 11.9929 4.95937 12.2873 5.00703C12.3056 5.01052 12.3642 5.02148 12.3949 5.02832C12.4564 5.04201 12.5421 5.06307 12.6489 5.09419C12.8626 5.15643 13.1611 5.25896 13.5194 5.42322C14.2367 5.75209 15.1913 6.32736 16.1819 7.31794C17.1725 8.30852 17.7477 9.2631 18.0766 9.98042C18.2409 10.3387 18.3434 10.6372 18.4056 10.8509C18.4367 10.9578 18.4578 11.0435 18.4715 11.1049C18.4783 11.1356 18.4834 11.1603 18.4868 11.1785L18.491 11.201C18.5386 11.4953 18.3407 11.7852 18.0463 11.8329C17.7528 11.8804 17.4762 11.6816 17.4274 11.3886C17.4259 11.3807 17.4217 11.3596 17.4173 11.3397C17.4084 11.2998 17.3931 11.2366 17.3687 11.1529C17.32 10.9856 17.2354 10.737 17.0949 10.4305C16.8142 9.81829 16.3095 8.97288 15.4182 8.08162C14.527 7.19036 13.6815 6.68564 13.0693 6.40497C12.7628 6.26445 12.5142 6.17983 12.3469 6.1311C12.2633 6.10674 12.1582 6.08262 12.1183 6.07374C11.8252 6.0249 11.6195 5.74704 11.667 5.45348Z" fill="white"/>
<path fill-rule="evenodd" clip-rule="evenodd" d="M11.8295 7.93867C11.9114 7.65191 12.2103 7.48586 12.4971 7.56779L12.3488 8.08702C12.4971 7.56779 12.4971 7.56779 12.4971 7.56779L12.4982 7.56809L12.4992 7.56841L12.5016 7.56911L12.5072 7.57078L12.5215 7.57521C12.5323 7.57868 12.5459 7.58321 12.562 7.58894C12.5944 7.60042 12.6371 7.61674 12.6895 7.6392C12.7944 7.68416 12.9377 7.75358 13.1138 7.85777C13.4662 8.06634 13.9473 8.41279 14.5125 8.97797C15.0777 9.54315 15.4241 10.0242 15.6327 10.3767C15.7369 10.5527 15.8063 10.696 15.8513 10.8009C15.8737 10.8533 15.8901 10.8961 15.9015 10.9284C15.9073 10.9446 15.9118 10.9581 15.9153 10.969L15.9197 10.9832L15.9213 10.9888L15.9221 10.9912L15.9223 10.9923C15.9223 10.9923 15.9227 10.9934 15.4034 11.1417L15.9227 10.9934C16.0046 11.2801 15.8385 11.579 15.5518 11.6609C15.2675 11.7421 14.9712 11.5796 14.8863 11.2973L14.8837 11.2896C14.8799 11.2788 14.8719 11.2575 14.8586 11.2264C14.832 11.1642 14.7837 11.0625 14.7033 10.9267C14.5427 10.6555 14.2528 10.2456 13.7488 9.74164C13.2449 9.23768 12.835 8.94774 12.5638 8.7872C12.428 8.70683 12.3263 8.65852 12.2641 8.63188C12.233 8.61855 12.2117 8.6106 12.2009 8.60676L12.1931 8.60411C11.9109 8.51923 11.7483 8.22299 11.8295 7.93867Z" fill="white"/>
<defs>
<linearGradient id="paint0_linear_1620_57752" x1="0" y1="0" x2="28.7905" y2="9.53449" gradientUnits="userSpaceOnUse">
<stop stop-color="#EDAD67"/>
<stop offset="1" stop-color="#4EC1D3"/>
</linearGradient>
</defs>
</svg>
