<svg width="80" height="80" viewBox="0 0 80 80" fill="none" xmlns="http://www.w3.org/2000/svg">
<circle cx="40" cy="40" r="39" fill="url(#paint0_linear_2342_71957)" stroke="white" stroke-width="2"/>
<path d="M59.6044 52.1288L56.9053 53.2892C56.8595 53.1646 56.8119 53.0338 56.7639 52.9009C56.6387 52.5547 56.5072 52.1846 56.4031 51.8915C56.3128 51.6373 56.2431 51.441 56.2159 51.3684L56.2159 51.3684L56.2135 51.3622L53.6811 44.7441L53.6811 44.7441L53.68 44.7412C53.545 44.3914 53.4093 44.0238 53.2706 43.6477C53.0953 43.1727 52.9151 42.6843 52.7248 42.2015C53.0301 42.0709 53.3407 41.943 53.6578 41.8125C53.8284 41.7423 54.0009 41.6713 54.1754 41.5986C54.9164 41.2951 55.6539 40.9834 56.3879 40.6637C56.4239 40.7618 56.4594 40.8592 56.4919 40.9482C56.5558 41.1236 56.6079 41.2664 56.6282 41.3186C56.6284 41.3191 56.6285 41.3196 56.6287 41.3201L59.6756 49.2109L59.6759 49.2118C59.998 50.0436 60.3103 50.879 60.613 51.718C60.5181 51.7565 60.422 51.7951 60.324 51.8344C60.0986 51.9249 59.8632 52.0193 59.6098 52.1266L59.6098 52.1265L59.6044 52.1288Z" stroke="white" stroke-width="2"/>
<path d="M24.0441 40.858C24.0686 40.7909 24.093 40.7242 24.1172 40.6579L24.7291 40.9247L24.7306 40.9253L27.8462 42.2776C27.8324 42.3129 27.8184 42.3484 27.8043 42.3842C27.7337 42.5634 27.6601 42.7504 27.5833 42.9536L27.5833 42.9536L27.5813 42.959C27.1728 44.0592 26.7569 45.1566 26.3336 46.2512L26.3336 46.2512L26.3314 46.257L23.6325 53.3672C23.1679 53.1638 22.5819 52.9051 21.9852 52.6401C21.3262 52.3474 20.6561 52.0478 20.1239 51.8069C20.0491 51.7731 19.9771 51.7405 19.9084 51.7093C19.9611 51.576 20.0184 51.4306 20.0797 51.2646C20.5018 50.1377 20.9329 49.0142 21.373 47.894L21.3731 47.8941L21.3759 47.8866L22.9256 43.8487L22.9256 43.8487L22.9281 43.8419L23.8399 41.4138L23.8399 41.4138L23.8409 41.4111C23.9114 41.2216 23.9784 41.038 24.0441 40.858Z" stroke="white" stroke-width="2"/>
<path d="M41.0451 45.1414L41.7187 45.7747L48.3843 52.0413L50.3998 53.9137L50.4066 53.9201L50.4066 53.9202C50.6475 54.1482 50.8622 54.3581 51.0705 54.5617C51.1674 54.6565 51.263 54.7499 51.3592 54.8432C51.3863 54.8251 51.4153 54.806 51.4461 54.7857L51.4462 54.7857L52.4837 54.1055L52.495 54.0981L52.4951 54.0982C52.924 53.8252 53.3572 53.5592 53.7946 53.3003L51.1659 46.4209L51.1655 46.4197L50.3923 44.4042L50.3899 44.398L50.39 44.398C50.3354 44.253 50.2855 44.1161 50.2376 43.985C50.2008 43.8841 50.1653 43.7867 50.1299 43.6918C50.0655 43.6925 49.9996 43.6913 49.9324 43.6879C49.4325 43.6625 48.925 43.5298 48.5483 43.4313C48.4704 43.411 48.3981 43.3921 48.3327 43.3759C47.8687 43.2626 47.4038 43.1534 46.9379 43.0484L46.9351 43.0478C46.2488 42.891 45.362 42.6945 44.4821 42.5508C43.5834 42.404 42.771 42.3264 42.2091 42.3725L42.2079 42.3726C41.9181 42.3961 41.6793 42.4343 41.4642 42.5028L41.4642 42.5028C40.8072 42.712 40.1222 43.1528 39.4399 43.7406C38.764 44.3229 38.1399 45.0061 37.5971 45.6437L36.8596 45.0158L37.5971 45.6437C37.0255 46.3151 36.5127 47.0573 35.9809 47.839C35.8877 47.976 35.8161 48.0742 35.7586 48.153C35.7538 48.1597 35.749 48.1662 35.7444 48.1726C35.8488 48.2764 35.9681 48.3765 36.0647 48.4534L41.0451 45.1414ZM41.0451 45.1414L40.361 45.7634M41.0451 45.1414L40.361 45.7634M40.361 45.7634C40.2491 45.8652 40.1359 45.949 39.984 46.0615M40.361 45.7634L39.984 46.0615M36.338 48.6651C36.3542 48.6535 36.3709 48.6414 36.3884 48.6287C36.4571 48.579 36.5387 48.52 36.6524 48.4423L36.6524 48.4423C37.1737 48.0861 37.6886 47.7202 38.2123 47.3472L38.2123 47.3472C38.3 47.2847 38.3871 47.2228 38.4737 47.1613C38.9235 46.8416 39.3583 46.5326 39.7865 46.209L36.338 48.6651ZM36.338 48.6651C36.2624 48.611 36.1861 48.5502 36.1054 48.4859C36.092 48.4752 36.0785 48.4643 36.0648 48.4535L36.338 48.6651ZM39.984 46.0615C39.9248 46.1054 39.8597 46.1536 39.7865 46.2089L39.984 46.0615ZM35.5733 47.971C35.5734 47.971 35.5745 47.973 35.5764 47.9768C35.5741 47.9729 35.5731 47.971 35.5733 47.971Z" stroke="white" stroke-width="2"/>
<path d="M44.6414 54.0701L44.575 53.9189L44.1653 53.775L44.1353 53.7645L43.8829 54.4833L43.6114 54.8162L42.9183 55.1205L42.9355 55.1596L43.0878 55.5065L43.2706 55.591C43.5454 55.8665 43.9122 56.1701 44.1857 56.3966C44.2842 56.478 44.3706 56.5495 44.4363 56.6062L44.4407 56.61L47.2644 59.0149C47.2654 59.0157 47.2664 59.0166 47.2675 59.0175C47.321 59.0637 47.3911 59.1213 47.4563 59.1749L47.4808 59.195C47.5598 59.2599 47.641 59.327 47.7183 59.3933C47.7739 59.441 47.8222 59.4839 47.862 59.5209C47.862 59.5397 47.8614 59.5589 47.8604 59.5778M44.6414 54.0701L31.6714 53.7187C31.7664 53.705 31.8624 53.6971 31.959 53.6951H31.959C32.0541 53.6931 32.1496 53.6967 32.2452 53.7063C33.1192 53.7914 33.8013 54.3302 34.2208 54.844L34.2208 54.844C34.2706 54.905 34.3174 54.9665 34.3614 55.0284C34.7533 55.0101 35.1566 55.0815 35.5638 55.2727L35.5638 55.2727C36.2264 55.5839 36.7516 56.1355 37.0968 56.7319C37.5349 56.7983 37.9278 56.9757 38.2319 57.1714C38.6587 57.4461 38.9746 57.7913 39.2082 58.1666L39.4447 57.8581C39.929 58.1749 40.3919 58.5469 40.807 58.8806C40.9214 58.9726 41.0322 59.0616 41.1388 59.1458C41.1398 59.1466 41.1408 59.1473 41.1418 59.1481L43.1864 60.7381L43.1876 60.739C43.2994 60.8262 43.4152 60.9216 43.5221 61.0097L43.5302 61.0164C43.6433 61.1096 43.7497 61.1971 43.8559 61.2804C44.0768 61.4536 44.2444 61.5658 44.3687 61.6241C44.3761 61.6274 44.3831 61.6303 44.3898 61.6329L44.3902 61.633C44.3972 61.6356 44.4046 61.638 44.4127 61.6403L44.4142 61.6408C44.4185 61.642 44.4229 61.6432 44.4276 61.6442C44.4305 61.6449 44.4334 61.6455 44.4364 61.6462C44.4446 61.6478 44.4526 61.6491 44.4602 61.65C44.4689 61.6511 44.4767 61.6517 44.4838 61.652L44.4838 61.652C44.4927 61.6524 44.5011 61.6524 44.509 61.6521C44.5169 61.6518 44.5248 61.6512 44.5327 61.6503C44.5403 61.6494 44.5483 61.6482 44.5566 61.6466L44.5606 61.6458C44.6391 61.6308 44.77 61.5541 44.8591 61.4156C44.8965 61.3576 44.9281 61.2929 44.9539 61.2176C44.6357 60.9239 44.2962 60.6383 43.94 60.3388C43.8224 60.2398 43.703 60.1394 43.5819 60.0366L43.5748 60.0305L43.5748 60.0305L41.677 58.3888C41.6767 58.3886 41.6765 58.3884 41.6762 58.3882C41.3859 58.1381 41.0978 57.8855 40.8118 57.6303L40.8107 57.6294C40.8069 57.6259 40.7986 57.619 40.7866 57.6089C40.7081 57.5432 40.4733 57.3463 40.3242 57.1602L41.5624 55.646C41.803 55.7698 42.0999 55.9901 42.3146 56.1536C42.4343 56.2449 42.5528 56.3376 42.6567 56.419L42.6863 56.4422C42.7782 56.5142 42.854 56.5737 42.9144 56.6197C43.7765 57.2634 44.6304 57.9177 45.4762 58.5828C45.4762 58.5828 45.4762 58.5828 45.4762 58.5828L46.599 59.4638C46.7099 59.5507 46.7969 59.622 46.8705 59.6823C47.0159 59.8015 47.109 59.8778 47.2314 59.9474C47.2644 59.9661 47.3236 59.9862 47.3924 59.9914C47.3977 59.9917 47.4034 59.9919 47.4095 59.992C47.4179 59.9921 47.4251 59.992 47.4312 59.9918M44.6414 54.0701C44.7858 54.1676 44.9181 54.268 45.035 54.3593C45.1099 54.4178 45.1745 54.4692 45.2342 54.5168C45.3325 54.5952 45.4177 54.663 45.5141 54.7346L45.5194 54.7385L45.5194 54.7385C46.5493 55.5135 47.5688 56.302 48.5778 57.104M44.6414 54.0701L48.5778 57.104M47.8604 59.5778C47.8604 59.5778 47.8604 59.5778 47.8604 59.5778L47.9241 59.5811C47.9241 59.5811 47.9241 59.5811 47.9242 59.5811M47.8604 59.5778L47.9242 59.5811M47.8604 59.5778C47.8547 59.6872 47.8168 59.7793 47.6985 59.8831L47.6953 59.886C47.6904 59.8903 47.685 59.8949 47.679 59.8997L47.6781 59.9004C47.6736 59.904 47.6688 59.9077 47.6636 59.9115C47.657 59.9162 47.651 59.9204 47.6454 59.924L48.191 60.761L47.6467 59.9231C47.6391 59.9281 47.6331 59.9318 47.6284 59.9345C47.6227 59.9378 47.6166 59.9412 47.6101 59.9445L47.6093 59.9449C47.6039 59.9478 47.5979 59.9507 47.5913 59.9537C47.5848 59.9567 47.5784 59.9594 47.572 59.962L47.5714 59.9623C47.5686 59.9634 47.5657 59.9645 47.5626 59.9657C47.5594 59.9668 47.5562 59.968 47.5527 59.9692C47.5462 59.9714 47.5395 59.9735 47.5325 59.9756L47.8112 60.936L47.5342 59.9751C47.5267 59.9772 47.5196 59.9791 47.5128 59.9807C47.5094 59.9815 47.5057 59.9824 47.5017 59.9832C47.4983 59.9839 47.4948 59.9846 47.491 59.9853L47.6749 60.9676L47.4928 59.985C47.4859 59.9862 47.479 59.9874 47.472 59.9883C47.4681 59.9888 47.4642 59.9893 47.4605 59.9897C47.4578 59.99 47.4552 59.9902 47.4527 59.9904L47.4508 59.9906C47.4437 59.9912 47.4371 59.9916 47.4312 59.9918M47.9242 59.5811C47.9354 59.5926 47.942 59.5999 47.9449 59.6032C47.9422 59.5998 47.9364 59.5924 47.9286 59.5814M47.9242 59.5811L47.9286 59.5814M47.4312 59.9918C47.4312 59.9918 47.4312 59.9918 47.4312 59.9918L47.4665 60.9912L47.4312 59.9918ZM44.2422 62.6271C44.2745 62.6335 44.307 62.6388 44.3398 62.6427C44.3737 62.6469 44.4078 62.6497 44.442 62.6511C44.4762 62.6525 44.5103 62.6527 44.5445 62.6515C44.5787 62.6502 44.6128 62.6477 44.6468 62.6438C44.6807 62.6399 44.7145 62.6346 44.7481 62.6281C45.1378 62.5537 45.4876 62.2869 45.7 61.9568C45.7985 61.8038 45.87 61.6432 45.9211 61.4765C45.8174 61.4018 45.7191 61.3249 45.6321 61.255L44.2422 62.6271ZM44.2422 62.6271L44.3716 62.2414L44.3247 62.1996L44.2685 62.1494L44.2679 62.1489L44.2156 62.1022L44.2155 62.1021L44.1672 62.059L44.2422 62.6271ZM47.9286 59.5814L48.538 59.6131M47.9286 59.5814L47.9434 60.8905C47.9651 60.8818 47.9865 60.8726 48.0078 60.8629C48.029 60.8532 48.05 60.8429 48.0706 60.8322C48.0914 60.8214 48.1118 60.8102 48.132 60.7984C48.1521 60.7867 48.1719 60.7744 48.1915 60.7617C48.2111 60.749 48.2303 60.7357 48.2492 60.7221C48.2681 60.7084 48.2867 60.6943 48.3048 60.6797C48.323 60.665 48.3409 60.65 48.3583 60.6346C48.6194 60.4054 48.7878 60.1225 48.8421 59.7893C48.7402 59.7383 48.6378 59.6778 48.538 59.6131M48.538 59.6131C48.4189 59.5359 48.3035 59.4525 48.1976 59.3721C48.1976 59.3721 48.1975 59.372 48.1975 59.372C48.1274 59.3187 48.0614 59.2668 48.0013 59.2187C47.869 59.1129 47.7396 59.005 47.6267 58.9108L47.6257 58.91C47.5696 58.8632 47.5186 58.8207 47.4721 58.7823L47.9065 59.5471L47.9066 59.5474C47.9148 59.561 47.9223 59.5724 47.9286 59.5813L48.538 59.6131ZM36.3364 42.6481C35.3134 43.7191 34.4463 44.9094 33.6622 46.044L33.6622 46.0441C33.6404 46.0756 33.612 46.1159 33.5791 46.1627C33.4763 46.3086 33.3293 46.5174 33.2002 46.7186C33.0501 46.9526 32.812 47.3414 32.7253 47.7154L32.7253 47.7155C32.6189 48.1743 32.7233 48.5955 32.83 48.881C32.941 49.1777 33.096 49.4365 33.2169 49.6188L33.2169 49.6189C33.7777 50.4647 34.774 51.4393 36.0347 51.6838C36.3115 51.7375 36.7344 51.7732 37.1654 51.5982L36.8184 50.7438L37.1654 51.5982C37.417 51.496 37.634 51.3539 37.7897 51.2455C37.8873 51.1776 37.9493 51.1323 38.0018 51.0939C38.0607 51.0508 38.1075 51.0166 38.1787 50.9694L38.1787 50.9694L38.1835 50.9663C38.9437 50.4562 39.6951 49.9335 40.4378 49.3982L40.4378 49.3982L40.4418 49.3952C40.6214 49.2644 40.7698 49.1505 40.9064 49.0452C42.9868 50.9422 45.051 52.8568 47.0989 54.789L47.1031 54.7929L49.0375 56.5974C49.038 56.5979 49.0385 56.5983 49.0389 56.5987C49.136 56.69 49.227 56.7737 49.3132 56.853C49.5255 57.0484 49.709 57.2173 49.8851 57.4069L36.3364 42.6481ZM36.3364 42.6481C35.2877 42.7114 34.3244 42.9231 33.1634 43.1783C33.0044 43.2133 32.8416 43.249 32.6744 43.2854C32.6166 43.2979 32.5579 43.3108 32.4985 43.3238C31.8688 43.4617 31.1506 43.619 30.3931 43.6604C30.2833 43.951 30.1712 44.2418 30.0606 44.5286C29.946 44.8256 29.8331 45.1183 29.7262 45.4021C29.1067 47.0747 28.4747 48.7426 27.8304 50.4058M36.3364 42.6481L26.4407 51.277C26.1643 52.0374 25.8873 52.7994 25.5625 53.535M27.8304 50.4058C27.8303 50.4059 27.8303 50.4061 27.8302 50.4063L26.8977 50.045L27.8306 50.4051C27.8305 50.4054 27.8305 50.4056 27.8304 50.4058ZM27.8304 50.4058C27.6884 50.7735 27.5456 51.1661 27.3987 51.5697C27.2066 52.0977 27.0076 52.6446 26.7949 53.1789M26.7949 53.1789C26.5824 53.0418 26.385 52.9091 26.1795 52.748L25.5625 53.535M26.7949 53.1789C26.6925 53.4363 26.5868 53.6908 26.4773 53.9389L25.5625 53.535M26.7949 53.1789C26.8573 53.2191 26.9209 53.2597 26.9865 53.3015C27.1728 53.4203 27.3743 53.5488 27.6045 53.706L27.6119 53.711L27.6119 53.7111C28.204 54.1233 28.7923 54.541 29.3768 54.964C29.4251 54.9326 29.4716 54.9027 29.5154 54.8744C29.5947 54.8234 29.6654 54.7779 29.7221 54.7396L25.5625 53.535M49.1349 58.8078L49.4616 58.6112L49.4617 58.6111L49.6201 58.5158C49.599 58.4807 49.5763 58.4469 49.5529 58.4147C49.5528 58.4147 49.5528 58.4146 49.5528 58.4146C49.4665 58.2957 49.3707 58.1984 49.3107 58.1393C49.2175 58.0474 49.1142 57.9557 49.0207 57.8755C48.9259 57.7941 48.8302 57.7152 48.7509 57.6501L48.7305 57.6333C48.6565 57.5724 48.606 57.5309 48.5724 57.5019L48.5724 57.5018L48.5668 57.4971L49.1349 58.8078ZM49.1349 58.8078C49.1349 58.8078 49.1348 58.8078 49.1348 58.8077L49.1349 58.8078ZM48.5778 57.104C48.6767 57.1822 48.788 57.2751 48.894 57.3635L48.9077 57.375C49.0224 57.4706 49.1365 57.5656 49.2501 57.6565C49.4998 57.8561 49.6653 57.9675 49.7434 58.0038L49.7435 58.0038C49.7484 58.0061 49.7548 58.0083 49.7664 58.0092C49.779 58.0101 49.8013 58.0097 49.8337 58.0017L49.8339 58.0017C49.8872 57.9886 49.9356 57.9586 49.9783 57.8871L50.8367 58.4001L49.9783 57.8871C50.0406 57.7828 50.0498 57.6781 50.0297 57.6011L50.0296 57.6011L50.0296 57.6011C50.0285 57.5965 50.0156 57.5476 49.8851 57.4069L48.5778 57.104ZM31.1173 53.8684C30.7966 53.997 30.5187 54.1749 30.2985 54.3278C30.1988 54.3971 30.1008 54.4685 30.0141 54.5316C30.004 54.539 29.994 54.5463 29.9842 54.5535C29.8862 54.6248 29.8024 54.6853 29.7222 54.7395L31.1173 53.8684ZM41.392 62.2922C41.3935 62.2836 41.395 62.2751 41.3964 62.2665L41.8973 62.7136C41.8722 62.7248 41.8477 62.733 41.8239 62.7385L41.8239 62.7385C41.7482 62.7561 41.6312 62.755 41.3907 62.6353C41.3654 62.6227 41.3397 62.6093 41.3135 62.595C41.3455 62.5022 41.3727 62.4015 41.392 62.2923L41.392 62.2922Z" stroke="white" stroke-width="2"/>
<path d="M32.079 56.7129C32.0598 56.7354 32.0374 56.7615 32.0112 56.7912C31.8825 56.9372 31.7151 57.1152 31.537 57.297C31.3599 57.4779 31.179 57.6557 31.0259 57.8005C30.9493 57.8729 30.882 57.9348 30.8274 57.9834C30.8001 58.0076 30.7776 58.0272 30.7597 58.0423C30.7529 58.0479 30.7472 58.0527 30.7425 58.0565C30.726 58.0338 30.7125 58.008 30.7044 57.9842C30.7024 57.9784 30.6986 57.9651 30.6955 57.9464C30.6949 57.9422 30.6943 57.9381 30.6938 57.9341C30.7208 57.903 30.7536 57.8663 30.7919 57.8241C30.9188 57.6848 31.085 57.5105 31.2587 57.3336C31.4318 57.1572 31.6064 56.9843 31.7483 56.8484C31.8545 56.7466 31.9188 56.6886 31.9474 56.6628L32.079 56.7129ZM32.079 56.7129C32.0558 56.6783 32.0269 56.6478 32.0013 56.6274C31.9767 56.6384 31.9657 56.6458 31.9626 56.648L31.9624 56.6481L32.079 56.7129ZM30.6203 58.0225C30.6203 58.0226 30.621 58.0215 30.6226 58.0194C30.6212 58.0214 30.6204 58.0225 30.6203 58.0225Z" stroke="white" stroke-width="2"/>
<path d="M32.7305 59.9369L32.732 59.9378C32.7694 59.9622 32.8068 59.9765 32.8639 59.9756C32.868 59.9745 32.8719 59.9734 32.8758 59.9723C32.8795 59.9712 32.8829 59.9702 32.886 59.9693C32.9459 59.9171 33.0197 59.8412 33.1177 59.7301C33.1465 59.6974 33.1831 59.6549 33.2238 59.6076C33.3126 59.5045 33.4211 59.3784 33.5119 59.2812L32.7305 59.9369ZM32.7305 59.9369C32.7274 59.9349 32.7242 59.9327 32.7208 59.9303C32.717 59.9275 32.7137 59.925 32.7107 59.9226L32.0881 60.7051L32.712 59.9236C32.7078 59.9203 32.7046 59.9176 32.7022 59.9155C32.699 59.9127 32.6959 59.9098 32.6928 59.9068L32.6849 59.8987C32.6819 59.8955 32.6794 59.8927 32.6774 59.8902L32.6765 59.8892M32.7305 59.9369L32.6765 59.8892M32.6765 59.8892C32.6745 59.8869 32.6722 59.884 32.6695 59.8805C32.6664 59.8764 32.6643 59.8735 32.6631 59.8718L32.6625 59.8708M32.6765 59.8892L32.6625 59.8708M32.6625 59.8708C32.6601 59.8673 32.6579 59.864 32.6559 59.8608L32.6502 59.851C32.6481 59.8472 32.646 59.8433 32.644 59.8391L32.64 59.8304L32.64 59.8304M32.6625 59.8708L32.64 59.8304M32.64 59.8304L32.6392 59.8286M32.64 59.8304L32.6392 59.8286M32.6392 59.8286L32.6351 59.8183L32.6346 59.8171M32.6392 59.8286L32.6346 59.8171M32.6346 59.8171C32.6338 59.8149 32.6325 59.8112 32.6308 59.8059L32.628 59.7964L32.628 59.7964M32.6346 59.8171L32.628 59.7964M32.628 59.7964L32.6274 59.7939M32.628 59.7964L32.6274 59.7939M32.6274 59.7939L32.6251 59.7842M32.6274 59.7939L32.6251 59.7842M34.4238 57.925L34.4236 57.9249C34.4081 57.916 34.3995 57.9138 34.3931 57.9125C34.3891 57.9118 34.3815 57.9106 34.3694 57.9102C34.3029 57.9636 34.2234 58.0405 34.119 58.1531C34.0884 58.186 34.0459 58.2332 33.9979 58.2866C33.9047 58.3901 33.7906 58.5169 33.7017 58.6085L34.4238 57.925ZM34.4238 57.925C34.4411 57.9349 34.4989 57.9778 34.5609 58.0563C34.5805 58.0812 34.5969 58.1051 34.6101 58.1267C34.6061 58.1314 34.6021 58.136 34.5981 58.1406L34.5979 58.1409M34.4238 57.925L34.5979 58.1409M34.5979 58.1409C34.3943 58.3732 34.2052 58.5658 33.9978 58.7771M34.5979 58.1409L33.9978 58.7771M32.6251 59.7842C32.6217 59.7678 32.6212 59.7581 32.6211 59.7538C32.621 59.7496 32.6214 59.7486 32.6212 59.7493C32.6211 59.75 32.6212 59.7487 32.623 59.7446C32.6248 59.7402 32.6294 59.7305 32.6395 59.7154L32.6251 59.7842ZM33.0737 59.2309C32.8473 59.4589 32.701 59.6235 32.6395 59.7154L33.0737 59.2309ZM33.0737 59.2309C33.1493 59.1547 33.2491 59.0568 33.3503 58.9575M33.0737 59.2309L33.3503 58.9575M33.3503 58.9575C33.4814 58.8288 33.6149 58.6978 33.7016 58.6085L33.3503 58.9575ZM33.9978 58.7771C33.8493 58.9284 33.6914 59.0893 33.512 59.2812L33.9978 58.7771ZM31.8056 60.3872C31.8164 60.4045 31.8275 60.4215 31.839 60.4382L31.8056 60.3872ZM31.8056 60.3872C31.7949 60.3698 31.7847 60.3523 31.7748 60.3345M31.8056 60.3872L31.7748 60.3345M31.7748 60.3345C31.765 60.3166 31.7556 60.2986 31.7466 60.2803M31.7748 60.3345L31.7466 60.2803M31.7466 60.2803C31.7376 60.2621 31.7291 60.2436 31.7211 60.2249M31.7466 60.2803L31.7211 60.2249M31.7211 60.2249C31.713 60.2062 31.7054 60.1873 31.6983 60.1683M31.7211 60.2249L31.6983 60.1683M31.6983 60.1683C31.6912 60.1492 31.6845 60.1299 31.6783 60.1106M31.6983 60.1683L31.6783 60.1106M31.6783 60.1106C31.6721 60.0912 31.6664 60.0716 31.6612 60.052L31.6783 60.1106Z" stroke="white" stroke-width="2"/>
<path d="M35.0632 61.4739L35.0632 61.4739C35.083 61.49 35.0945 61.495 35.105 61.4985C35.1166 61.5025 35.1417 61.5093 35.1895 61.5132C35.2029 61.5125 35.2144 61.5118 35.2245 61.511C35.2517 61.4871 35.2958 61.4474 35.3595 61.3862C35.4937 61.2573 35.6583 61.0892 35.8318 60.9073C36.0629 60.6649 36.2591 60.4526 36.4228 60.2755C36.5269 60.1629 36.6178 60.0645 36.6962 59.9817L35.0632 61.4739ZM35.0632 61.4739C35.0157 61.4353 34.9843 61.3968 34.9666 61.3671C34.9657 61.3656 34.9649 61.3642 34.9641 61.3628M35.0632 61.4739L34.9641 61.3628M34.9641 61.3628C34.9656 61.3609 34.9672 61.359 34.9689 61.3571L34.9641 61.3628ZM36.7229 59.6306L36.7228 59.6305C36.7032 59.6121 36.6904 59.6027 36.6842 59.5986L36.7229 59.6306ZM36.7229 59.6306C36.8014 59.7042 36.8337 59.7756 36.8445 59.8218M36.7229 59.6306L36.8445 59.8218M36.8445 59.8218C36.8434 59.8231 36.8422 59.8245 36.841 59.8259C36.8258 59.8434 36.8071 59.864 36.7823 59.8906C36.7636 59.9105 36.7452 59.93 36.7235 59.9528C36.715 59.9618 36.7059 59.9714 36.6962 59.9817L36.8445 59.8218ZM35.5728 60.7092C35.3531 60.9339 35.1584 61.1331 34.9689 61.357L35.5728 60.7092ZM35.5728 60.7092C35.677 60.6026 35.7868 60.4903 35.9043 60.3669L35.5728 60.7092ZM35.9044 60.3668C35.9884 60.2786 36.0707 60.186 36.1428 60.1048C36.1492 60.0976 36.1555 60.0905 36.1617 60.0835C36.2297 60.0068 36.2901 59.9387 36.3513 59.8727C36.481 59.7329 36.5727 59.6492 36.6402 59.6016C36.6479 59.6001 36.6602 59.5981 36.679 59.5959C36.6795 59.596 36.6799 59.596 36.6803 59.5961L35.9044 60.3668Z" stroke="white" stroke-width="2"/>
<path d="M37.598 62.6638L37.597 62.6634C37.5882 62.6601 37.5795 62.6561 37.5706 62.6514L37.5706 62.6514L37.5621 62.6469C37.546 62.6386 37.5307 62.6282 37.5169 62.6167C37.5377 62.592 37.5622 62.5634 37.5908 62.5306C37.7068 62.3978 37.8534 62.2389 38.007 62.0787C38.1602 61.9189 38.3145 61.764 38.4442 61.6394C38.4646 61.6198 38.4842 61.6012 38.5027 61.5838C38.5299 61.6278 38.5567 61.6846 38.5754 61.7526C38.5466 61.7874 38.5113 61.8286 38.4703 61.875C38.3757 61.9821 38.2599 62.1066 38.1403 62.229C38.0201 62.3521 37.9029 62.4661 37.8052 62.5545C37.7346 62.6183 37.694 62.6506 37.6794 62.6624C37.6774 62.663 37.6752 62.6637 37.6727 62.6644C37.6626 62.6674 37.6504 62.6706 37.6343 62.6742C37.6315 62.6736 37.6287 62.673 37.6259 62.6724C37.6165 62.6701 37.6072 62.6673 37.598 62.6638Z" stroke="white" stroke-width="2"/>
<path d="M44.0677 30.7541C41.7716 28.721 38.2674 28.9363 36.2344 31.2325" stroke="white" stroke-miterlimit="10"/>
<path d="M47.344 27.537C43.1224 23.8057 36.6883 24.1885 32.957 28.4101" stroke="white" stroke-miterlimit="10"/>
<path d="M50.8933 24.3459C44.5908 18.7609 34.9756 19.3469 29.3906 25.6495" stroke="white" stroke-miterlimit="10"/>
<path d="M54.7108 21.1996C46.1719 13.6294 33.1364 14.4188 25.5781 22.9577" stroke="white" stroke-miterlimit="10"/>
<path d="M40.144 35.6122C41.0951 35.6122 41.8661 34.8412 41.8661 33.8901C41.8661 32.939 41.0951 32.168 40.144 32.168C39.1929 32.168 38.4219 32.939 38.4219 33.8901C38.4219 34.8412 39.1929 35.6122 40.144 35.6122Z" stroke="white" stroke-miterlimit="10"/>
<defs>
<linearGradient id="paint0_linear_2342_71957" x1="0" y1="0" x2="95.9684" y2="31.7816" gradientUnits="userSpaceOnUse">
<stop stop-color="#EDAD67"/>
<stop offset="1" stop-color="#4EC1D3"/>
</linearGradient>
</defs>
</svg>
