<svg width="28" height="28" viewBox="0 0 28 28" fill="none" xmlns="http://www.w3.org/2000/svg">
<rect width="28" height="28" rx="14" fill="url(#paint0_linear_2342_72056)"/>
<path d="M18.4333 17.6167H18.4415M18.76 15.1667H19.25C20.0111 15.1667 20.3915 15.1667 20.6917 15.291C21.0919 15.4567 21.4099 15.7748 21.5757 16.1749C21.7 16.4751 21.7 16.8556 21.7 17.6167C21.7 18.3777 21.7 18.7582 21.5757 19.0584C21.4099 19.4586 21.0919 19.7766 20.6917 19.9424C20.3915 20.0667 20.0111 20.0667 19.25 20.0667H9.45C8.68896 20.0667 8.30845 20.0667 8.00828 19.9424C7.60807 19.7766 7.2901 19.4586 7.12433 19.0584C7 18.7582 7 18.3777 7 17.6167C7 16.8556 7 16.4751 7.12433 16.1749C7.2901 15.7748 7.60807 15.4567 8.00828 15.291C8.30845 15.1667 8.68896 15.1667 9.45 15.1667H9.94M14.35 15.9833V7M14.35 15.9833L11.9 13.5333M14.35 15.9833L16.8 13.5333" stroke="white" stroke-linecap="round" stroke-linejoin="round"/>
<defs>
<linearGradient id="paint0_linear_2342_72056" x1="0" y1="0" x2="33.5889" y2="11.1236" gradientUnits="userSpaceOnUse">
<stop stop-color="#EDAD67"/>
<stop offset="1" stop-color="#4EC1D3"/>
</linearGradient>
</defs>
</svg>
