<svg width="24" height="24" viewBox="0 0 24 24" fill="none" xmlns="http://www.w3.org/2000/svg">
<rect width="24" height="24" rx="12" fill="url(#paint0_linear_1620_57759)"/>
<path d="M10.04 16.08H7.304C6.49753 16.08 6.09428 16.08 5.78625 15.923C5.5153 15.785 5.29501 15.5647 5.15695 15.2938C5 14.9857 5 14.5825 5 13.776V8.304C5 7.49753 5 7.09428 5.15695 6.78625C5.29501 6.5153 5.5153 6.29501 5.78625 6.15695C6.09428 6 6.49753 6 7.304 6H15.656C16.4625 6 16.8657 6 17.1738 6.15695C17.4447 6.29501 17.665 6.5153 17.803 6.78625C17.96 7.09428 17.96 7.49753 17.96 8.304V9.6M17.6768 8.34885L14.0359 10.7761C13.1122 11.3919 12.6503 11.6999 12.151 11.8195C11.7098 11.9252 11.2499 11.9252 10.8087 11.8195C10.3095 11.6999 9.84761 11.3919 8.92382 10.7761L5.10617 8.23101M12.92 17.52L14.378 17.2284C14.5051 17.203 14.5687 17.1902 14.6279 17.167C14.6805 17.1464 14.7306 17.1196 14.7769 17.0873C14.8292 17.0508 14.8749 17.0051 14.9667 16.9133L17.96 13.92C18.3577 13.5223 18.3577 12.8777 17.96 12.48C17.5623 12.0823 16.9177 12.0823 16.52 12.48L13.5267 15.4733C13.4349 15.5651 13.3892 15.6108 13.3527 15.6631C13.3204 15.7094 13.2936 15.7595 13.273 15.8121C13.2498 15.8713 13.237 15.9349 13.2116 16.062L12.92 17.52Z" stroke="white" stroke-linecap="round" stroke-linejoin="round"/>
<defs>
<linearGradient id="paint0_linear_1620_57759" x1="0" y1="0" x2="28.7905" y2="9.53449" gradientUnits="userSpaceOnUse">
<stop stop-color="#EDAD67"/>
<stop offset="1" stop-color="#4EC1D3"/>
</linearGradient>
</defs>
</svg>
