<svg width="28" height="29" viewBox="0 0 28 29" fill="none" xmlns="http://www.w3.org/2000/svg">
<path d="M14 2.01172C7.39999 2.01172 2 7.42135 2 14.084C2 20.1081 6.39199 25.1081 12.128 26.0117V17.578H9.07999V14.084H12.128V11.4213C12.128 8.39726 13.916 6.73461 16.664 6.73461C17.972 6.73461 19.34 6.96352 19.34 6.96352V9.93942H17.828C16.34 9.93942 15.872 10.8671 15.872 11.819V14.084H19.208L18.668 17.578H15.872V26.0117C18.6997 25.5633 21.2746 24.1147 23.1319 21.9274C24.9891 19.7402 26.0065 16.9582 26 14.084C26 7.42135 20.6 2.01172 14 2.01172Z" fill="white"/>
</svg>
