<svg width="28" height="29" viewBox="0 0 28 29" fill="none" xmlns="http://www.w3.org/2000/svg">
<g clip-path="url(#clip0_1620_57720)">
<path d="M14 0.0117188C6.26719 0.0117188 0 6.27891 0 14.0117C0 21.7445 6.26719 28.0117 14 28.0117C21.7328 28.0117 28 21.7445 28 14.0117C28 6.27891 21.7328 0.0117188 14 0.0117188ZM10.0844 19.8687H7.35547V11.1352H10.0844V19.8687ZM8.64609 10.0414H8.62422C7.63437 10.0414 6.99453 9.37422 6.99453 8.52656C6.99453 7.6625 7.65625 7.01172 8.6625 7.01172C9.66875 7.01172 10.2867 7.6625 10.3086 8.52656C10.3141 9.36875 9.67422 10.0414 8.64609 10.0414ZM21 19.8687H17.9047V15.3516C17.9047 14.1703 17.4234 13.3609 16.357 13.3609C15.5422 13.3609 15.0883 13.9078 14.8805 14.4328C14.8039 14.6188 14.8148 14.8812 14.8148 15.1492V19.8687H11.7469C11.7469 19.8687 11.7852 11.8625 11.7469 11.1352H14.8148V12.5078C14.9953 11.9062 15.9742 11.0531 17.5383 11.0531C19.4797 11.0531 21 12.3109 21 15.0125V19.8687Z" fill="white"/>
</g>
<defs>
<clipPath id="clip0_1620_57720">
<rect width="28" height="28" fill="white" transform="translate(0 0.0117188)"/>
</clipPath>
</defs>
</svg>
