<svg width="49" height="48" viewBox="0 0 49 48" fill="none" xmlns="http://www.w3.org/2000/svg">
<rect x="0.5" width="48" height="48" rx="24" fill="white"/>
<path fill-rule="evenodd" clip-rule="evenodd" d="M13.4102 31.4258H15.7818V35.5759H13.4102V31.4258Z" fill="#AF7065"/>
<path fill-rule="evenodd" clip-rule="evenodd" d="M35.3422 12.4538C35.3422 12.4538 34.6725 12.4624 33.9688 12.4665C33.6169 12.4683 33.2564 12.4695 32.9694 12.4677C32.6823 12.4659 32.4039 12.4514 32.4541 12.4573C32.3767 12.4481 32.2982 12.4542 32.2232 12.4754C32.1481 12.4965 32.078 12.5323 32.0168 12.5806C31.9556 12.6289 31.9045 12.6888 31.8665 12.7568C31.8285 12.8249 31.8042 12.8998 31.7952 12.9772C31.786 13.0546 31.7921 13.1331 31.8133 13.2081C31.8344 13.2831 31.8702 13.3533 31.9185 13.4145C31.9668 13.4757 32.0267 13.5267 32.0947 13.5648C32.1628 13.6028 32.2377 13.627 32.3151 13.6361C32.5052 13.6584 32.6674 13.6519 32.9624 13.6534C33.2171 13.6552 33.5241 13.6552 33.831 13.6534L26.5621 20.4379L24.5773 17.4608C24.3805 17.1654 23.9699 17.108 23.6995 17.3381L11.8416 27.4169C11.592 27.6292 11.5619 28.0036 11.7744 28.2529C11.9867 28.5025 12.3611 28.5325 12.6105 28.3201L23.9601 18.6732L25.9623 21.6758C26.1654 21.9797 26.5924 22.0293 26.8597 21.78L34.7562 14.4107V16.011C34.7562 16.1683 34.8187 16.319 34.9299 16.4302C35.0411 16.5414 35.1919 16.6039 35.3491 16.6039C35.5063 16.6039 35.6572 16.5414 35.7684 16.4302C35.8795 16.319 35.942 16.1683 35.942 16.011V13.0467C35.942 12.9682 35.9264 12.8905 35.8962 12.8182C35.866 12.7458 35.8217 12.6801 35.7659 12.625C35.7101 12.5698 35.6439 12.5263 35.5712 12.4969C35.4984 12.4675 35.4206 12.4529 35.3422 12.4538Z" fill="#AF7065"/>
<path fill-rule="evenodd" clip-rule="evenodd" d="M18.1523 28.4609H20.5239V35.5754H18.1523C18.1523 33.2039 18.1523 30.8324 18.1523 28.4609Z" fill="#AF7065"/>
<path fill-rule="evenodd" clip-rule="evenodd" d="M22.8945 25.5625H25.2661V35.5755H22.8945C22.8945 32.2378 22.8945 28.9002 22.8945 25.5625Z" fill="#AF7065"/>
<path fill-rule="evenodd" clip-rule="evenodd" d="M27.6367 23.7188H30.0083V35.5762H27.6367C27.6367 31.6237 27.6367 27.6712 27.6367 23.7188Z" fill="#AF7065"/>
<path fill-rule="evenodd" clip-rule="evenodd" d="M32.3828 20.1602H34.7544V35.5749H32.3828C32.3828 30.4366 32.3828 25.2984 32.3828 20.1602Z" fill="#AF7065"/>
</svg>
