<svg width="49" height="48" viewBox="0 0 49 48" fill="none" xmlns="http://www.w3.org/2000/svg">
<rect x="0.5" width="48" height="48" rx="24" fill="white"/>
<path d="M39.2005 23.9229C39.2005 20.9985 38.3335 18.1397 36.7093 15.7081C35.085 13.2765 32.7766 11.3813 30.0755 10.2622C27.3744 9.1431 24.4022 8.85032 21.5348 9.42085C18.6674 9.99138 16.0335 11.3997 13.9663 13.4675C11.899 15.5354 10.4911 18.17 9.92074 21.0382C9.35038 23.9065 9.64316 26.8795 10.762 29.5813C11.8808 32.2831 13.7754 34.5924 16.2063 36.2171C18.6371 37.8418 21.495 38.709 24.4186 38.709" stroke="#9C7435" stroke-linecap="round" stroke-linejoin="round"/>
<path d="M9.63672 23.918H39.2005" stroke="#9C7435" stroke-linecap="round" stroke-linejoin="round"/>
<path d="M24.4119 38.709C21.559 38.709 19.2383 32.0848 19.2383 23.9229C19.2383 15.7609 21.559 9.13672 24.4119 9.13672C27.2648 9.13672 29.5856 15.7609 29.5856 23.9229" stroke="#9C7435" stroke-linecap="round" stroke-linejoin="round"/>
<path d="M33.8377 38.5222C36.6951 38.5222 39.0114 36.2052 39.0114 33.347C39.0114 30.4889 36.6951 28.1719 33.8377 28.1719C30.9804 28.1719 28.6641 30.4889 28.6641 33.347C28.6641 36.2052 30.9804 38.5222 33.8377 38.5222Z" stroke="#9C7435" stroke-linecap="round" stroke-linejoin="round"/>
<path d="M40.6812 40.1829L37.4883 37.0039" stroke="#9C7435" stroke-linecap="round" stroke-linejoin="round"/>
</svg>
