<svg width="42" height="42" viewBox="0 0 42 42" fill="none" xmlns="http://www.w3.org/2000/svg">
<path fill-rule="evenodd" clip-rule="evenodd" d="M21 6.5C22.9698 6.49999 24.9203 6.88797 26.7402 7.64178C28.5601 8.3956 30.2137 9.50049 31.6066 10.8934C32.9995 12.2862 34.1044 13.9398 34.8582 15.7597C35.612 17.5796 36 19.5301 36 21.5C36 29.7842 29.2842 36.5 21 36.5C12.7158 36.5 6 29.7842 6 21.5C6 13.2158 12.7158 6.5 21 6.5ZM22.5 23H19.5C15.7864 23 12.5983 25.2491 11.2232 28.4596C13.3989 31.5106 16.9671 33.5 21 33.5C25.0328 33.5 28.601 31.5106 30.7768 28.4594C29.4017 25.2491 26.2136 23 22.5 23ZM21 11C18.5147 11 16.5 13.0147 16.5 15.5C16.5 17.9853 18.5147 20 21 20C23.4852 20 25.5 17.9853 25.5 15.5C25.5 13.0147 23.4853 11 21 11Z" fill="white"/>
</svg>
