<svg width="49" height="48" viewBox="0 0 49 48" fill="none" xmlns="http://www.w3.org/2000/svg">
<rect x="0.5" width="48" height="48" rx="24" fill="white"/>
<path opacity="0.5" d="M14.685 16.083L14.685 16.083C14.6336 16.1563 14.5662 16.3122 14.5079 16.6146C14.4513 16.9087 14.4108 17.298 14.3833 17.8029C14.3283 18.8136 14.3281 20.2189 14.3281 22.1211V22.1245V22.1279V22.1312V22.1346V22.1379V22.1413V22.1447V22.148V22.1514V22.1548V22.1581V22.1615V22.1649V22.1682V22.1716V22.175V22.1783V22.1817V22.1851V22.1885V22.1919V22.1952V22.1986V22.202V22.2054V22.2088V22.2121V22.2155V22.2189V22.2223V22.2257V22.2291V22.2325V22.2359V22.2393V22.2427V22.2461V22.2494V22.2528V22.2562V22.2596V22.263V22.2664V22.2699V22.2733V22.2767V22.2801V22.2835V22.2869V22.2903V22.2937V22.2971V22.3005V22.304V22.3074V22.3108V22.3142V22.3176V22.321V22.3245V22.3279V22.3313V22.3347V22.3382V22.3416V22.345V22.3484V22.3519V22.3553V22.3587V22.3622V22.3656V22.369V22.3725V22.3759V22.3794V22.3828V22.3862V22.3897V22.3931V22.3966V22.4V22.4035V22.4069V22.4104V22.4138V22.4173V22.4207V22.4242V22.4276V22.4311V22.4345V22.438V22.4415V22.4449V22.4484V22.4519V22.4553V22.4588V22.4622V22.4657V22.4692V22.4727V22.4761V22.4796V22.4831V22.4865V22.49V22.4935V22.497V22.5005V22.5039V22.5074V22.5109V22.5144V22.5179V22.5214V22.5248V22.5283V22.5318V22.5353V22.5388V22.5423V22.5458V22.5493V22.5528V22.5563V22.5598V22.5633V22.5668V22.5703V22.5738V22.5773V22.5808V22.5843V22.5878V22.5913V22.5948V22.5983V22.6018V22.6053V22.6089V22.6124V22.6159V22.6194V22.6229V22.6264V22.63V22.6335V22.637V22.6405V22.6441V22.6476V22.6511V22.6546V22.6582V22.6617V22.6652V22.6688V22.6723V22.6758V22.6794V22.6829V22.6865V22.69V22.6935V22.6971V22.7006V22.7042V22.7077V22.7113V22.7148V22.7184V22.7219V22.7255V22.729V22.7326V22.7361V22.7397V22.7432V22.7468V22.7504V22.7539V22.7575V22.761V22.7646V22.7682V22.7717V22.7753V22.7789V22.7824V22.786V22.7896V22.7932V22.7967V22.8003V22.8039V22.8075V22.811V22.8146V22.8182V22.8218V22.8254V22.829V22.8325V22.8361V22.8397V22.8433V22.8469V22.8505V22.8541V22.8577V22.8613V22.8649V22.8685V22.8721V22.8757V22.8793V22.8829V22.8865V22.8901V22.8937V22.8973V22.9009V22.9045V22.9081V22.9117V22.9153V22.9189V22.9226V22.9262V22.9298V22.9334V22.937V22.9407V22.9443V22.9479V22.9515V22.9551V22.9588V22.9624V22.966V22.9697V22.9733V22.9769V22.9806V22.9842V22.9878V22.9915V22.9951V22.9987V23.0024V23.006V23.0097V23.0133V23.0169V23.0206V23.0242V23.0279V23.0315V23.0352V23.0388V23.0425V23.0461V23.0498V23.0535V23.0571V23.0608V23.0644V23.0681V23.0718V23.0754V23.0791V23.0827V23.0864V23.0901V23.0937V23.0974V23.1011V23.1048V23.1084V23.1121V23.1158V23.1195V23.1231V23.1268V23.1305V23.1342V23.1379V23.1415V23.1452V23.1489V23.1526V23.1563V23.16V23.1637V23.1674V23.1711V23.1748V23.1784V23.1821V23.1858V23.1895V23.1932V23.1969V23.2006V23.2044V23.2081V23.2118V23.2155V23.2192V23.2229V23.2266V23.2303V23.234V23.2377V23.2415V23.2452V23.2489V23.2526V23.2563V23.26V23.2638V23.2675V23.2712V23.2749V23.2787V23.2824V23.2861V23.2899V23.2936V23.2973V23.3011V23.3048V23.3085V23.3123V23.316V23.3197V23.3235V23.3272V23.331V23.3347V23.3385V23.3422V23.346V23.3497V23.3535V23.3572V23.361V23.3647V23.3685V23.3722V23.376V23.3797V23.3835V23.3873V23.391V23.3948V23.3985V23.4023V23.4061V23.4098V23.4136V23.4174V23.4212V23.4249V23.4287V23.4325V23.4363V23.44V23.4438V23.4476V23.4514V23.4552V23.4589V23.4627V23.4665V23.4703V23.4741V23.4779V23.4817V23.4855V23.4892V23.493V23.4968V23.5006V23.5044V23.5082V23.512V23.5158V23.5196V23.5234V23.5272V23.531V23.5348V23.5387V23.5425V23.5463V23.5501V23.5539V23.5577V23.5615V23.5653V23.5692V23.573V23.5768V23.5806V23.5844V23.5883V23.5921V23.5959V23.5997V23.6036V23.6074V23.6112V23.6151V23.6189V23.6227V23.6266V23.6304V23.6342V23.6381V23.6419V23.6458V23.6496V23.6534V23.6573V23.6611V23.665V23.6688V23.6727V23.6765V23.6804V23.6842V23.6881V23.6919V23.6958V23.6997V23.7035V23.7074V23.7112V23.7151V23.719V23.7228V23.7267V23.7306V23.7344V23.7383V23.7422V23.746V23.7499V23.7538V23.7577V23.7615V23.7654V23.7693V23.7732V23.7771V23.7809V23.7848V23.7887V23.7926V23.7965V23.8004V23.8043V23.8082V23.812V23.8159V23.8198V23.8237V23.8276V23.8315V23.8354V23.8393V23.8432V23.8471V23.851V23.8549V23.8588V23.8628V23.8667V23.8706V23.8745V23.8784V23.8823V23.8862V23.8901V23.8941V23.898V23.9019V23.9058V23.9097V23.9137V23.9176V23.9215V23.9254V23.9294V23.9333V23.9372V23.9412V23.9451V23.949V23.953V23.9569V23.9608V23.9648V23.9687V23.9726V23.9766V23.9805V23.9845V23.9884C14.3281 30.3653 19.1086 33.4837 22.2086 34.8379C22.6435 35.0279 22.9269 35.1504 23.2459 35.2321C23.5578 35.3119 23.9224 35.3566 24.5003 35.3566C25.0782 35.3566 25.4429 35.3119 25.7547 35.2321C26.0737 35.1504 26.3571 35.0279 26.792 34.8379M14.685 16.083L14.2758 15.7957M14.685 16.083C14.7351 16.0117 14.8566 15.8979 15.1199 15.745C15.3761 15.5962 15.7275 15.4322 16.1926 15.2433C17.1237 14.865 18.4444 14.4127 20.2332 13.8004M14.685 16.083L20.2332 13.8004M26.792 34.8379L26.9874 35.2852L26.792 34.8379C26.792 34.8379 26.792 34.8379 26.792 34.8379ZM26.792 34.8379C29.892 33.4837 34.6725 30.3653 34.6725 23.9884V23.9845V23.9805V23.9766V23.9726V23.9687V23.9648V23.9608V23.9569V23.953V23.949V23.9451V23.9412V23.9372V23.9333V23.9294V23.9254V23.9215V23.9176V23.9137V23.9097V23.9058V23.9019V23.898V23.8941V23.8901V23.8862V23.8823V23.8784V23.8745V23.8706V23.8667V23.8628V23.8588V23.8549V23.851V23.8471V23.8432V23.8393V23.8354V23.8315V23.8276V23.8237V23.8198V23.8159V23.812V23.8082V23.8043V23.8004V23.7965V23.7926V23.7887V23.7848V23.7809V23.7771V23.7732V23.7693V23.7654V23.7615V23.7577V23.7538V23.7499V23.746V23.7422V23.7383V23.7344V23.7306V23.7267V23.7228V23.719V23.7151V23.7112V23.7074V23.7035V23.6997V23.6958V23.6919V23.6881V23.6842V23.6804V23.6765V23.6727V23.6688V23.665V23.6611V23.6573V23.6534V23.6496V23.6458V23.6419V23.6381V23.6342V23.6304V23.6266V23.6227V23.6189V23.6151V23.6112V23.6074V23.6036V23.5997V23.5959V23.5921V23.5883V23.5844V23.5806V23.5768V23.573V23.5692V23.5653V23.5615V23.5577V23.5539V23.5501V23.5463V23.5425V23.5387V23.5348V23.531V23.5272V23.5234V23.5196V23.5158V23.512V23.5082V23.5044V23.5006V23.4968V23.493V23.4892V23.4855V23.4817V23.4779V23.4741V23.4703V23.4665V23.4627V23.4589V23.4552V23.4514V23.4476V23.4438V23.44V23.4363V23.4325V23.4287V23.4249V23.4212V23.4174V23.4136V23.4098V23.4061V23.4023V23.3985V23.3948V23.391V23.3873V23.3835V23.3797V23.376V23.3722V23.3685V23.3647V23.361V23.3572V23.3535V23.3497V23.346V23.3422V23.3385V23.3347V23.331V23.3272V23.3235V23.3197V23.316V23.3123V23.3085V23.3048V23.3011V23.2973V23.2936V23.2899V23.2861V23.2824V23.2787V23.2749V23.2712V23.2675V23.2638V23.26V23.2563V23.2526V23.2489V23.2452V23.2415V23.2377V23.234V23.2303V23.2266V23.2229V23.2192V23.2155V23.2118V23.2081V23.2044V23.2006V23.1969V23.1932V23.1895V23.1858V23.1821V23.1784V23.1748V23.1711V23.1674V23.1637V23.16V23.1563V23.1526V23.1489V23.1452V23.1415V23.1379V23.1342V23.1305V23.1268V23.1231V23.1195V23.1158V23.1121V23.1084V23.1048V23.1011V23.0974V23.0937V23.0901V23.0864V23.0827V23.0791V23.0754V23.0718V23.0681V23.0644V23.0608V23.0571V23.0535V23.0498V23.0461V23.0425V23.0388V23.0352V23.0315V23.0279V23.0242V23.0206V23.0169V23.0133V23.0097V23.006V23.0024V22.9987V22.9951V22.9915V22.9878V22.9842V22.9806V22.9769V22.9733V22.9697V22.966V22.9624V22.9588V22.9551V22.9515V22.9479V22.9443V22.9407V22.937V22.9334V22.9298V22.9262V22.9226V22.9189V22.9153V22.9117V22.9081V22.9045V22.9009V22.8973V22.8937V22.8901V22.8865V22.8829V22.8793V22.8757V22.8721V22.8685V22.8649V22.8613V22.8577V22.8541V22.8505V22.8469V22.8433V22.8397V22.8361V22.8325V22.829V22.8254V22.8218V22.8182V22.8146V22.811V22.8075V22.8039V22.8003V22.7967V22.7932V22.7896V22.786V22.7824V22.7789V22.7753V22.7717V22.7682V22.7646V22.761V22.7575V22.7539V22.7504V22.7468V22.7432V22.7397V22.7361V22.7326V22.729V22.7255V22.7219V22.7184V22.7148V22.7113V22.7077V22.7042V22.7006V22.6971V22.6935V22.69V22.6865V22.6829V22.6794V22.6758V22.6723V22.6688V22.6652V22.6617V22.6582V22.6546V22.6511V22.6476V22.6441V22.6405V22.637V22.6335V22.63V22.6264V22.6229V22.6194V22.6159V22.6124V22.6089V22.6053V22.6018V22.5983V22.5948V22.5913V22.5878V22.5843V22.5808V22.5773V22.5738V22.5703V22.5668V22.5633V22.5598V22.5563V22.5528V22.5493V22.5458V22.5423V22.5388V22.5353V22.5318V22.5283V22.5248V22.5214V22.5179V22.5144V22.5109V22.5074V22.5039V22.5005V22.497V22.4935V22.49V22.4865V22.4831V22.4796V22.4761V22.4727V22.4692V22.4657V22.4622V22.4588V22.4553V22.4519V22.4484V22.4449V22.4415V22.438V22.4345V22.4311V22.4276V22.4242V22.4207V22.4173V22.4138V22.4104V22.4069V22.4035V22.4V22.3966V22.3931V22.3897V22.3862V22.3828V22.3794V22.3759V22.3725V22.369V22.3656V22.3622V22.3587V22.3553V22.3519V22.3484V22.345V22.3416V22.3382V22.3347V22.3313V22.3279V22.3245V22.321V22.3176V22.3142V22.3108V22.3074V22.304V22.3005V22.2971V22.2937V22.2903V22.2869V22.2835V22.2801V22.2767V22.2733V22.2699V22.2664V22.263V22.2596V22.2562V22.2528V22.2494V22.2461V22.2427V22.2393V22.2359V22.2325V22.2291V22.2257V22.2223V22.2189V22.2155V22.2121V22.2088V22.2054V22.202V22.1986V22.1952V22.1919V22.1885V22.1851V22.1817V22.1783V22.175V22.1716V22.1682V22.1649V22.1615V22.1581V22.1548V22.1514V22.148V22.1447V22.1413V22.1379V22.1346V22.1312V22.1279V22.1245V22.1211C34.6725 20.2189 34.6723 18.8136 34.6173 17.8029C34.5898 17.298 34.5494 16.9087 34.4927 16.6146C34.4344 16.3122 34.3671 16.1563 34.3156 16.083C34.2656 16.0117 34.1441 15.8979 33.8808 15.745C33.6246 15.5962 33.2731 15.4322 32.8081 15.2433C31.877 14.865 30.5563 14.4127 28.7675 13.8004L28.0883 13.5679C26.1982 12.921 25.3601 12.6406 24.5003 12.6406C23.6406 12.6406 22.8024 12.921 20.9124 13.5679L20.7508 13.0958L20.9124 13.5679L20.2332 13.8004L20.0713 13.3274M20.0713 13.3274L20.7505 13.0949L20.7508 13.0948C22.6091 12.4587 23.5382 12.1406 24.5003 12.1406C25.4624 12.1406 26.3916 12.4587 28.2498 13.0947L28.2502 13.0949L28.9294 13.3274L28.9296 13.3274C32.4947 14.5478 34.2773 15.1579 34.7249 15.7957C35.1725 16.4336 35.1725 18.3294 35.1725 22.1211V23.9884C35.1725 30.674 30.1459 33.9184 26.9922 35.2961L26.9919 35.2962C26.1366 35.6698 25.7089 35.8566 24.5003 35.8566C23.2918 35.8566 22.864 35.6698 22.0088 35.2962L22.0084 35.2961C18.8547 33.9184 13.8281 30.674 13.8281 23.9884V22.1211C13.8281 18.3294 13.8281 16.4336 14.2758 15.7957M20.0713 13.3274L20.2332 13.8004M20.0713 13.3274L20.2332 13.8004M14.2758 15.7957L14.276 15.7959L14.2758 15.7957Z" stroke="#1A4DBE"/>
<path d="M24.5005 22.8135C25.8103 22.8135 26.8721 21.7517 26.8721 20.4419C26.8721 19.1321 25.8103 18.0703 24.5005 18.0703C23.1907 18.0703 22.1289 19.1321 22.1289 20.4419C22.1289 21.7517 23.1907 22.8135 24.5005 22.8135Z" stroke="#1A4DBE"/>
<path d="M29.2442 27.5591C29.2442 28.8689 29.2442 29.9307 24.501 29.9307C19.7578 29.9307 19.7578 28.8689 19.7578 27.5591C19.7578 26.2493 21.8814 25.1875 24.501 25.1875C27.1206 25.1875 29.2442 26.2493 29.2442 27.5591Z" stroke="#1A4DBE"/>
</svg>
