<svg width="28" height="28" viewBox="0 0 28 28" fill="none" xmlns="http://www.w3.org/2000/svg">
<rect width="28" height="28" rx="14" fill="url(#paint0_linear_2342_72068)"/>
<path d="M6 13.5333C6 10.4535 6 8.91357 6.95678 7.95678C7.91357 7 9.45349 7 12.5333 7H15.8C18.8798 7 20.4198 7 21.3765 7.95678C22.3333 8.91357 22.3333 10.4535 22.3333 13.5333C22.3333 16.6131 22.3333 18.1531 21.3765 19.1099C20.4198 20.0667 18.8798 20.0667 15.8 20.0667H12.5333C9.45349 20.0667 7.91357 20.0667 6.95678 19.1099C6 18.1531 6 16.6131 6 13.5333Z" stroke="white"/>
<path opacity="0.5" d="M12.5323 17.207H9.26562" stroke="white" stroke-linecap="round"/>
<path opacity="0.5" d="M10.899 14.7578H9.26562" stroke="white" stroke-linecap="round"/>
<path opacity="0.5" d="M6 11.8984H22.3333" stroke="white" stroke-linecap="round"/>
<path opacity="0.5" d="M15.8008 15.9849C15.8008 15.2149 15.8008 14.83 16.04 14.5908C16.2792 14.3516 16.6642 14.3516 17.4341 14.3516C18.2041 14.3516 18.589 14.3516 18.8282 14.5908C19.0674 14.83 19.0674 15.2149 19.0674 15.9849C19.0674 16.7548 19.0674 17.1398 18.8282 17.379C18.589 17.6182 18.2041 17.6182 17.4341 17.6182C16.6642 17.6182 16.2792 17.6182 16.04 17.379C15.8008 17.1398 15.8008 16.7548 15.8008 15.9849Z" stroke="white"/>
<defs>
<linearGradient id="paint0_linear_2342_72068" x1="0" y1="0" x2="33.5889" y2="11.1236" gradientUnits="userSpaceOnUse">
<stop stop-color="#EDAD67"/>
<stop offset="1" stop-color="#4EC1D3"/>
</linearGradient>
</defs>
</svg>
