<svg width="80" height="80" viewBox="0 0 80 80" fill="none" xmlns="http://www.w3.org/2000/svg">
<circle cx="40" cy="40" r="39" fill="url(#paint0_linear_2342_71979)" stroke="white" stroke-width="2"/>
<path d="M56.3263 30.891C56.1525 30.7524 55.9752 30.6113 55.7954 30.4679C52.7125 28.0092 48.8319 24.9128 46.8855 23.3529C46.4332 22.9904 45.9373 22.7928 45.3845 23.051C44.8182 23.3155 44.7041 23.8476 44.7046 24.4181C44.7055 25.7978 44.6764 27.1786 44.7174 28.5571C44.7337 29.1074 44.5572 29.2324 44.0373 29.2107C42.3208 29.1391 40.6283 29.3504 39.0026 29.9077C38.5233 30.0721 38.0563 30.2594 37.6031 30.4679C36.1583 31.1332 34.8519 32.0153 33.7162 33.0661C30.4342 36.1013 28.5759 40.541 28.9145 45.2023C29.0538 47.1215 29.4827 48.9744 30.2685 50.7375C30.4493 50.0595 30.6128 49.3765 30.8129 48.7045C32.5971 42.7186 37.7407 38.9582 43.9624 39.0433C44.5774 39.0517 44.74 39.2199 44.7179 39.8205C44.671 41.0901 44.7044 42.3625 44.7048 43.6337C44.705 44.2061 44.835 44.7223 45.4081 44.9847C45.9751 45.2443 46.4574 45.0211 46.9022 44.6621C47.2384 44.3909 47.577 44.1224 47.9148 43.853C49.5378 42.5587 51.1607 41.2644 52.7839 39.9698C53.9646 39.0282 55.1453 38.0866 56.3263 37.145C56.3344 37.1384 56.3423 37.1321 56.3505 37.1256L60.2658 34.0318C60.2658 34.0317 58.5661 32.6772 56.3263 30.891ZM56.4431 35.2674C56.4042 35.2987 56.3652 35.3297 56.3263 35.3607C55.1467 36.3047 53.9658 37.2465 52.7839 38.1872C50.6046 39.9219 48.4226 41.6533 46.2426 43.3875C45.9126 43.5128 46.1092 43.2555 46.0793 43.1627C46.0703 41.5945 46.0336 40.0259 46.0672 38.4585C46.0791 37.9031 45.9228 37.7433 45.3705 37.707C38.7933 37.2745 33.8132 39.8004 30.5881 45.6193C30.5633 45.6636 30.5162 45.6955 30.3739 45.8423C30.223 44.7255 30.2275 43.6989 30.3385 42.6857C30.77 38.7492 32.814 35.2782 35.8361 33.066C38.1948 31.339 41.1489 30.3788 44.3973 30.5616C45.1451 30.6038 45.5543 30.6192 45.7786 30.4678C46.0502 30.2845 46.0508 29.8563 46.0534 28.934C46.0569 27.5553 46.0702 26.1763 46.079 24.7975C46.0949 24.7112 46.1105 24.6249 46.1264 24.5387C46.1593 24.5639 46.1919 24.589 46.2246 24.6142C48.673 26.5658 51.1235 28.5149 53.571 30.4679C54.49 31.2012 55.4083 31.935 56.3262 32.6698C56.3563 32.6938 56.3866 32.7178 56.4167 32.7421C57.9895 34.0011 57.9928 34.0272 56.4431 35.2674Z" fill="white"/>
<path d="M52.7836 42.6558V54.3209H23.8077V33.0669H30.8188C31.5757 32.1678 32.4231 31.3493 33.3514 30.6218C33.4172 30.5702 33.4834 30.5191 33.5501 30.4688H20.2656V56.9192H56.326V39.8309L52.7836 42.6558Z" fill="white"/>
<defs>
<linearGradient id="paint0_linear_2342_71979" x1="0" y1="0" x2="95.9684" y2="31.7816" gradientUnits="userSpaceOnUse">
<stop stop-color="#EDAD67"/>
<stop offset="1" stop-color="#4EC1D3"/>
</linearGradient>
</defs>
</svg>
