<svg width="42" height="42" viewBox="0 0 42 42" fill="none" xmlns="http://www.w3.org/2000/svg">
<path d="M15.8173 35.5C15.188 35.5 14.6577 35.2824 14.2262 34.8472C13.7948 34.412 13.5796 33.8776 13.5806 33.2439C13.5816 32.6102 13.7968 32.0752 14.2262 31.639C14.6577 31.2048 15.188 30.9878 15.8173 30.9878C16.4465 30.9878 16.9764 31.2048 17.4068 31.639C17.8373 32.0732 18.053 32.6082 18.054 33.2439C18.055 33.8796 17.8392 34.4141 17.4068 34.8472C16.9744 35.2804 16.4445 35.498 15.8173 35.5ZM29.81 35.5C29.1818 35.5 28.6519 35.2824 28.2205 34.8472C27.789 34.412 27.5733 33.8776 27.5733 33.2439C27.5733 32.6102 27.789 32.0752 28.2205 31.639C28.6519 31.2048 29.1818 30.9878 29.81 30.9878C30.4383 30.9878 30.9686 31.2048 31.4011 31.639C31.8315 32.0742 32.0467 32.6092 32.0467 33.2439C32.0467 33.8776 31.8315 34.412 31.4011 34.8472C30.9696 35.2824 30.4393 35.5 29.81 35.5ZM12.9603 10.5082H32.3748C33.0229 10.5082 33.51 10.7749 33.8361 11.3083C34.1641 11.8408 34.1815 12.3898 33.8883 12.9553L29.6266 20.7886C29.4109 21.1546 29.1306 21.4418 28.7856 21.6504C28.4407 21.859 28.0614 21.9633 27.6479 21.9633H16.9982L15.1865 25.3174C15.0334 25.549 15.0285 25.7997 15.1716 26.0694C15.3148 26.3391 15.53 26.4745 15.8173 26.4755H31.3012C31.5139 26.4755 31.6913 26.5472 31.8335 26.6906C31.9756 26.834 32.0467 27.013 32.0467 27.2275C32.0467 27.4421 31.9756 27.6206 31.8335 27.763C31.6913 27.9054 31.5139 27.9776 31.3012 27.9796H15.8173C14.9474 27.9796 14.2983 27.6096 13.8699 26.8696C13.4414 26.1296 13.431 25.3866 13.8385 24.6405L16.0812 20.6096L10.5983 9.00408H8.64792C8.43618 9.00408 8.25873 8.93239 8.11559 8.789C7.97244 8.64561 7.90136 8.46662 7.90235 8.25204C7.90335 8.03746 7.97443 7.85847 8.11559 7.71508C8.25675 7.57169 8.43419 7.5 8.64792 7.5H10.7847C11.0193 7.5 11.2325 7.56066 11.4244 7.68199C11.6153 7.80332 11.7634 7.97278 11.8688 8.19037L12.9603 10.5082Z" fill="white"/>
</svg>
