<svg width="17" height="17" viewBox="0 0 17 17" fill="none" xmlns="http://www.w3.org/2000/svg">
<path d="M7.77388 0.873185C7.99573 0.375446 8.10671 0.126577 8.26119 0.0499388C8.39536 -0.0166463 8.55291 -0.0166463 8.68708 0.0499388C8.84156 0.126577 8.95253 0.375446 9.17439 0.873185L10.9416 4.83774C11.0072 4.98489 11.04 5.05846 11.0908 5.1148C11.1356 5.16465 11.1905 5.20453 11.2518 5.23182C11.3211 5.26268 11.4012 5.27113 11.5614 5.28804L15.878 5.74364C16.42 5.80083 16.6909 5.82943 16.8115 5.95266C16.9163 6.05969 16.965 6.20958 16.9431 6.35778C16.918 6.52836 16.7156 6.71073 16.3108 7.07557L13.0863 9.98142C12.9667 10.0892 12.9068 10.1432 12.869 10.2088C12.8354 10.267 12.8144 10.3315 12.8074 10.3982C12.7995 10.4736 12.8162 10.5524 12.8496 10.71L13.7502 14.9561C13.8633 15.4893 13.9199 15.7558 13.8399 15.9085C13.7705 16.0414 13.643 16.1339 13.4953 16.1589C13.3253 16.1877 13.0893 16.0516 12.6172 15.7793L8.85718 13.6106C8.71765 13.5301 8.64788 13.49 8.5737 13.4742C8.50806 13.4603 8.44021 13.4603 8.37456 13.4742C8.30039 13.49 8.23062 13.5301 8.09109 13.6106L4.33109 15.7793C3.85903 16.0516 3.623 16.1877 3.45298 16.1589C3.3053 16.1339 3.1778 16.0414 3.10838 15.9085C3.02846 15.7558 3.08499 15.4893 3.19807 14.9561L4.09867 10.71C4.1321 10.5524 4.14881 10.4736 4.14088 10.3982C4.13385 10.3315 4.11289 10.267 4.07935 10.2088C4.04145 10.1432 3.98161 10.0892 3.86194 9.98142L0.637516 7.07557C0.232706 6.71073 0.0302967 6.52836 0.00513087 6.35778C-0.0167191 6.20958 0.0319739 6.05969 0.136758 5.95266C0.257393 5.82943 0.528361 5.80083 1.0703 5.74364L5.38691 5.28804C5.54712 5.27113 5.62722 5.26268 5.69649 5.23182C5.75778 5.20453 5.81265 5.16465 5.85756 5.1148C5.9083 5.05846 5.9411 4.98489 6.00669 4.83774L7.77388 0.873185Z" fill="#FFBE57"/>
</svg>
