<svg width="80" height="80" viewBox="0 0 80 80" fill="none" xmlns="http://www.w3.org/2000/svg">
<circle cx="40" cy="40" r="39" fill="url(#paint0_linear_2342_71764)" stroke="white" stroke-width="2"/>
<path d="M27.0269 34.3195C31.939 34.3195 35.921 30.3375 35.921 25.4254C35.921 20.5133 31.939 16.5312 27.0269 16.5312C22.1148 16.5312 18.1328 20.5133 18.1328 25.4254C18.1328 30.3375 22.1148 34.3195 27.0269 34.3195Z" stroke="white" stroke-miterlimit="10"/>
<path d="M29.0601 28.1435C28.052 27.251 26.5137 27.3455 25.6211 28.3536" stroke="white" stroke-miterlimit="10"/>
<path d="M30.5076 26.7235C28.6542 25.0854 25.8295 25.2534 24.1914 27.1068" stroke="white" stroke-miterlimit="10"/>
<path d="M32.0651 25.3317C29.2982 22.8798 25.0769 23.1371 22.625 25.904" stroke="white" stroke-miterlimit="10"/>
<path d="M33.7352 23.9312C29.9864 20.6077 24.2635 20.9542 20.9453 24.703" stroke="white" stroke-miterlimit="10"/>
<path d="M27.3498 30.2621C27.7674 30.2621 28.1059 29.9236 28.1059 29.5061C28.1059 29.0885 27.7674 28.75 27.3498 28.75C26.9322 28.75 26.5938 29.0885 26.5938 29.5061C26.5938 29.9236 26.9322 30.2621 27.3498 30.2621Z" stroke="white" stroke-miterlimit="10"/>
<g clip-path="url(#clip0_2342_71764)">
<path d="M25.8113 47.7566C25.7353 47.5427 25.6688 47.3194 25.607 47.0866C25.4739 46.8728 25.4026 46.6589 25.3599 46.4879C25.051 45.2381 25.7685 43.651 26.6048 43.0048C27.2606 42.4963 28.306 42.178 29.4084 42.0734V40.2155C28.6434 39.6168 28.1159 39.1938 27.9876 39.075C26.6856 37.8871 26.258 35.8676 27.0753 34.7509C27.3937 34.309 28.0732 33.772 29.3894 34.0667L29.3657 25.2711C29.3657 24.2114 30.2257 23.3466 31.2854 23.3419L45.1083 23.3086H45.1131C45.6263 23.3086 46.1062 23.5082 46.4721 23.8693C46.8332 24.2304 47.0376 24.7151 47.0376 25.2283L47.0566 34.0049C47.3132 33.9384 47.5888 33.9194 47.8739 33.9574C48.3681 34.0192 48.6912 34.0572 50.3876 39.7688C50.7202 40.8807 51.3379 42.2445 51.9367 43.5607C52.5877 44.9815 53.2006 46.3215 53.424 47.3051C54.9635 54.0194 54.9493 57.4217 54.9398 59.9069C54.935 60.5959 54.935 61.2136 54.9636 61.8219C54.9731 62.05 54.9873 62.2828 55.0111 62.5109C55.8569 67.9327 53.6371 60.211 54.9961 62.5109C55.1767 62.815 59.2449 81.7367 58.9408 81.9172C58.6367 82.0978 58.2423 81.9932 58.0617 81.6891C58.0047 81.5893 53.8121 63.3425 53.7551 63.2237C53.7551 63.2237 53.7551 63.2237 53.7423 62.6725C53.7376 62.663 53.7376 62.6487 53.7376 62.6392C53.7328 62.5917 53.7281 62.5489 53.7281 62.5014C53.7186 62.3873 53.7138 62.2685 53.7043 62.145C53.6996 62.0357 53.6901 61.9217 53.6806 61.8076C53.6521 61.1946 53.6521 60.5769 53.6568 59.9022C53.6616 58.8045 53.6663 57.531 53.5333 55.8536C53.5285 55.8394 53.5285 55.8299 53.5285 55.8204C53.4192 54.4756 53.2196 52.879 52.8633 50.9165C52.6779 49.9091 52.4546 48.8067 52.1743 47.595C51.9794 46.7349 51.3902 45.4519 50.7725 44.0929C50.1547 42.7339 49.5132 41.3322 49.1569 40.1347C48.14 36.6992 47.6743 35.5825 47.489 35.2261C47.3274 35.2451 47.1896 35.3021 47.0613 35.4162C47.0186 35.4494 46.9805 35.4922 46.9378 35.5397C46.7097 35.8106 46.5434 36.205 46.4246 36.6706V36.6801C46.0397 38.177 46.1775 40.3628 46.4151 41.1896C46.4198 41.2134 46.4293 41.2371 46.4341 41.2656V41.2751C46.7002 42.2682 46.8095 43.8173 46.8902 45.0005C46.8902 45.0386 46.895 45.0718 46.895 45.1098C46.895 45.1431 46.895 45.1811 46.895 45.2144V45.2239C46.8998 45.2761 46.9045 45.3236 46.9045 45.3712C46.9188 45.528 46.9283 45.6658 46.9378 45.7846C46.9473 45.9366 46.9615 46.0602 46.971 46.141C46.9853 46.2312 46.9758 46.331 46.9473 46.4213C46.9378 46.4546 46.9283 46.4926 46.914 46.5258C46.7477 47.0913 46.5909 47.7186 46.4483 48.3838V48.3933C46.1727 49.7048 45.9542 51.1399 45.8164 52.4894C45.8069 52.5797 45.7973 52.6699 45.7878 52.7602C45.7451 53.2021 45.7118 53.6345 45.688 54.0432C45.6643 54.3758 45.65 54.6942 45.6453 54.9935C45.6358 55.2596 45.6358 55.5115 45.6453 55.7443C45.6453 55.9867 45.6548 56.21 45.6691 56.4096C45.6738 56.4524 45.6738 56.4904 45.6785 56.5284C45.6928 56.6757 45.65 56.8135 45.5788 56.9275C45.4695 57.0891 45.2984 57.2031 45.0941 57.2221C44.7377 57.2506 44.4288 56.9893 44.4003 56.6377C44.3956 56.5854 44.3908 56.5284 44.3861 56.4714L34.0652 56.4999C34.0604 56.766 34.0129 57.0368 33.9084 57.3029C33.9654 57.5548 34.0557 57.7353 34.1697 57.8209C34.816 58.3056 35.3624 58.9138 35.9992 59.6171C37.2916 61.0521 38.9073 62.8435 42.4331 64.8203C42.6137 64.92 42.7372 65.1006 42.7562 65.3049C42.8275 65.9037 44.4383 79.9405 44.5571 81.3422V81.3993C44.5524 81.7319 44.3053 82.0075 43.9727 82.036C43.9537 82.0408 43.9346 82.0408 43.9156 82.0408C43.5878 82.0408 43.3074 81.7889 43.2789 81.4515C43.1696 80.1828 41.7678 67.9374 41.5207 65.7754C38.0044 63.7606 36.2985 61.8647 35.044 60.4724C34.4548 59.8214 33.9464 59.2559 33.3999 58.852C33.2669 58.7522 33.1528 58.6334 33.053 58.4861C32.6349 58.8283 32.1407 59.0183 31.6513 59.0183H31.6275C30.9385 59.0088 30.1449 58.5764 29.4845 58.1107C28.824 57.6355 28.2965 57.1271 28.1207 56.956C27.4317 56.2718 27.3224 54.946 27.8783 54.0004C27.9069 53.9482 27.9401 53.9007 27.9781 53.8531C26.6904 53.0358 25.3884 51.9191 24.8467 50.7407C24.8087 50.6599 24.7897 50.5744 24.7849 50.4889C24.7612 49.5765 25.07 48.4123 25.8113 47.7566ZM29.3894 35.3972C28.7717 35.1976 28.3107 35.2308 28.1112 35.5064C27.7358 36.0196 28.0066 37.3596 28.8525 38.1247C28.9285 38.196 29.1186 38.3528 29.3989 38.5761L29.3894 35.3972ZM30.3493 47.671C30.335 47.5665 30.316 47.4525 30.2875 47.3432C30.2542 47.1864 30.2067 47.0296 30.1544 46.868C30.1259 46.7825 30.0927 46.6969 30.0594 46.6114C29.8836 46.1505 29.646 45.699 29.4132 45.3427C29.3181 45.1954 29.2279 45.0718 29.1423 44.9625C29.1043 44.9102 29.071 44.858 29.052 44.8009C28.9427 44.5443 29.014 44.245 29.2373 44.0644C29.2896 44.0217 29.3514 43.9884 29.4132 43.9694V43.3564C28.5721 43.4562 27.8118 43.6938 27.3889 44.0169C27.042 44.2878 26.6334 45.0243 26.5763 45.6896C26.5716 45.7228 26.5668 45.7561 26.5668 45.7893L26.6144 45.7703C26.6286 45.8083 26.6381 45.8464 26.6476 45.8844C26.6951 46.1172 26.7427 46.3405 26.7949 46.5544C26.8234 46.6636 26.852 46.7682 26.8805 46.8727C26.9185 47.001 26.9565 47.1293 26.9945 47.2529C27.0183 47.3289 27.042 47.4002 27.0705 47.4715C27.0753 47.4857 27.08 47.5047 27.0848 47.519C27.1323 47.6473 27.1798 47.7756 27.2273 47.8944C27.2654 47.9799 27.2986 48.0607 27.3366 48.1367C27.3461 48.1605 27.3556 48.1842 27.3651 48.2032C27.4364 48.3553 27.5077 48.4979 27.5837 48.6309C27.8308 49.0633 28.1064 49.415 28.401 49.662C28.5911 49.8189 28.9095 49.8426 29.2373 49.7286C29.2706 49.7191 29.3086 49.7048 29.3419 49.6906C29.3704 49.6811 29.3942 49.6668 29.4227 49.6478C29.4654 49.6335 29.513 49.6098 29.551 49.5813C29.608 49.5528 29.6603 49.5147 29.7078 49.472C29.7505 49.4387 29.7933 49.4007 29.8313 49.3627C29.8693 49.3294 29.9026 49.2914 29.9359 49.2534C29.9644 49.2201 29.9929 49.1869 30.0119 49.1488C30.0309 49.1251 30.0499 49.1013 30.0642 49.0776C30.0974 49.03 30.1259 48.9825 30.1449 48.935C30.1639 48.9017 30.1782 48.8732 30.1925 48.84H30.1972C30.2257 48.7687 30.2495 48.7022 30.2732 48.6356C30.3017 48.5549 30.3208 48.4646 30.3398 48.3791C30.354 48.2983 30.3635 48.2175 30.3683 48.1367C30.373 48.0939 30.373 48.0464 30.373 47.9989C30.373 47.8944 30.3635 47.7851 30.3493 47.671ZM45.7546 25.2331C45.7546 25.062 45.6881 24.9005 45.5645 24.7769C45.441 24.6534 45.2841 24.5916 45.1131 24.5916L31.2901 24.6248C30.9337 24.6248 30.6486 24.9147 30.6486 25.2663V25.789L45.7546 25.751V25.2331ZM45.688 46.1742C45.6785 46.0554 45.6643 45.9129 45.65 45.7513C45.6548 45.7466 45.65 45.7418 45.65 45.7371C45.65 45.6563 45.6405 45.566 45.6358 45.4757C45.6263 45.3854 45.6215 45.2904 45.6168 45.1906C45.612 45.1241 45.6073 45.0576 45.6025 44.991V44.9768C45.5883 44.7487 45.574 44.4969 45.5503 44.2355V44.2022C45.4742 43.2519 45.3649 42.1922 45.1796 41.546C44.885 40.5243 44.5571 36.7657 45.7783 34.9552L45.7593 27.034L30.6534 27.072L30.6724 34.5418V36.0101L30.6819 39.593V40.4008L30.6867 41.2181V42.0497L30.6914 43.3231V44.9863C31.1096 45.7038 31.5135 46.6352 31.6228 47.5237C31.6275 47.5427 31.6275 47.557 31.6323 47.576C31.6513 47.7803 31.6608 47.9799 31.6465 48.1747V48.2318C31.6465 48.2318 31.6418 48.2745 31.6418 48.2935C31.6275 48.4693 31.5942 48.6404 31.5515 48.8067C31.542 48.8542 31.5325 48.9018 31.5135 48.9445C31.4469 49.1774 31.3519 49.4007 31.2378 49.6098C32.0504 50.2465 32.8107 50.926 33.2099 51.5057C33.2431 51.558 33.2764 51.6103 33.3049 51.6625C33.514 52.0189 33.6232 52.4086 33.628 52.7935H34.7352L44.5049 52.765C44.7092 50.5601 45.1226 48.0512 45.688 46.1742ZM30.7057 49.2059V49.2486C30.7057 49.2486 30.7199 49.2296 30.7247 49.2201C30.7199 49.2201 30.7104 49.2106 30.7057 49.2059ZM32.5636 55.2217L32.5779 55.2359C32.5779 55.2359 32.5779 55.2264 32.5779 55.2217H32.5588H32.5636ZM32.6491 54.4804C32.6491 54.4804 32.6586 54.4899 32.6681 54.4946V54.4851C32.6681 54.4851 32.6539 54.4756 32.6491 54.4804ZM33.2621 54.965C33.3667 55.0553 33.4617 55.1409 33.5472 55.2217H33.8941L44.3623 55.1884C44.3671 54.832 44.3813 54.4518 44.4051 54.0479L34.6639 54.0717H34.1982L33.3904 54.0765C33.3476 54.0574 33.3001 54.0432 33.2574 54.0242C33.2479 54.0432 33.2384 54.0622 33.2241 54.0765C33.2194 54.086 33.2098 54.0955 33.2051 54.105C33.0911 54.2665 32.9628 54.4138 32.8154 54.5421C32.8012 54.5516 32.7869 54.5659 32.7727 54.5754C32.9485 54.7084 33.1148 54.8415 33.2621 54.965ZM29.0283 56.0485C29.8551 56.8705 31.062 57.7306 31.6465 57.7353H31.6513C31.9649 57.7353 32.345 57.4787 32.5779 57.1081V57.1033C32.7062 56.899 32.7774 56.6947 32.7774 56.5046C32.7822 56.3953 32.7679 56.2955 32.7299 56.2052C32.6872 56.1577 32.6159 56.0912 32.5303 56.0152C32.4733 55.9677 32.4163 55.9249 32.3498 55.8631H32.345C32.1122 55.6778 31.8081 55.4497 31.4944 55.2264L31.3947 55.1551C31.3186 55.1646 31.2426 55.1694 31.1666 55.1694C31.1428 55.1694 31.1143 55.1694 31.0905 55.1646C30.91 55.1646 30.7342 55.1409 30.5536 55.0933C30.4253 55.0601 30.2875 55.0126 30.1307 54.9556H30.1259C29.9169 54.8748 29.684 54.7797 29.4369 54.6609C29.3276 54.6086 29.2088 54.5516 29.09 54.4946C29.052 54.5374 29.014 54.5897 28.9807 54.6467C28.7004 55.1219 28.7764 55.8014 29.0235 56.0485H29.0283ZM26.7427 51.2444H26.7474C27.1941 51.7196 27.7548 52.171 28.3298 52.5606C28.5578 52.7127 28.7812 52.86 29.0045 52.9883H29.0093C29.0425 53.0073 29.071 53.0216 29.0995 53.0406C29.2136 53.1023 29.3229 53.1689 29.4322 53.2259C29.6555 53.3447 29.8693 53.454 30.0737 53.5443C30.0974 53.5538 30.1212 53.568 30.1449 53.5728C30.354 53.6678 30.5488 53.7438 30.7199 53.7961C30.7817 53.8151 30.8387 53.8341 30.891 53.8484C30.9908 53.8769 31.0858 53.8864 31.1808 53.8864C31.3471 53.8864 31.504 53.8436 31.6465 53.7771C31.7843 53.7106 31.9079 53.625 32.0077 53.5253C32.0647 53.473 32.1122 53.416 32.155 53.3589C32.2215 53.2686 32.2975 53.1356 32.3213 52.9646C32.3355 52.9123 32.3403 52.8552 32.3403 52.7935C32.3403 52.6272 32.2832 52.4371 32.1454 52.228C31.8793 51.8336 31.3424 51.3394 30.7057 50.831C30.6011 50.7407 30.4918 50.6552 30.3778 50.5649C30.278 50.6361 30.1734 50.7027 30.0642 50.7597C29.9881 50.7977 29.9121 50.8357 29.8361 50.869C29.6983 50.926 29.5605 50.9736 29.4227 51.0068C29.2279 51.0543 29.033 51.0781 28.843 51.0781C28.3725 51.0781 27.9259 50.9308 27.579 50.6409C27.1893 50.3225 26.8377 49.8949 26.5288 49.3769C26.4718 49.2819 26.4195 49.1821 26.3673 49.0823C26.1772 49.4435 26.0727 49.9139 26.0632 50.3178C26.2247 50.6267 26.4575 50.9355 26.7379 51.2396L26.7427 51.2444Z" fill="white"/>
<path d="M33.2243 54.0757H33.3906C33.3479 54.0567 33.3003 54.0424 33.2576 54.0234C33.2481 54.0424 33.2386 54.0614 33.2243 54.0757Z" fill="white"/>
<path d="M33.2243 54.0757H33.3906C33.3479 54.0567 33.3003 54.0424 33.2576 54.0234C33.2481 54.0424 33.2386 54.0614 33.2243 54.0757Z" fill="white"/>
<path d="M27.0697 47.4727C27.0697 47.4727 27.0792 47.5059 27.0839 47.5202C27.0934 47.5059 27.1029 47.5012 27.1172 47.4917C27.1029 47.4821 27.0839 47.4774 27.0697 47.4727Z" fill="white"/>
<path d="M35.4842 50.8789C35.4842 50.8789 35.5122 50.8957 35.5234 50.9069V50.8957C35.5234 50.8957 35.4954 50.8845 35.4842 50.8789Z" fill="white"/>
<path d="M33.2817 42.7695V42.8218H33.3672C33.3387 42.8028 33.3102 42.7885 33.2817 42.7695Z" fill="white"/>
<path d="M33.9805 43.5447V43.5352H33.6811L33.6906 43.5447H33.9805Z" fill="white"/>
<path d="M33.2686 43.5V43.5428H33.3398C33.3398 43.5428 33.3303 43.538 33.3256 43.5333C33.3066 43.5238 33.2876 43.5095 33.2686 43.5Z" fill="white"/>
<path d="M27.0697 47.4727C27.0697 47.4727 27.0792 47.5059 27.0839 47.5202C27.0934 47.5059 27.1029 47.5012 27.1172 47.4917C27.1029 47.4821 27.0839 47.4774 27.0697 47.4727Z" fill="white"/>
<path d="M36.1326 44.2525H36.7266C36.7266 44.2525 36.7218 44.243 36.717 44.2383H36.1326V44.2525Z" fill="white"/>
<path d="M33.9805 43.5447V43.5352H33.6811L33.6906 43.5447H33.9805Z" fill="white"/>
<path d="M42.3443 43.7305C42.6057 43.8968 42.8623 44.0583 43.1094 44.2104V43.7305H42.3443Z" fill="white"/>
<path d="M32.5802 55.2227C32.5802 55.2227 32.5802 55.2341 32.5802 55.2398L32.563 55.2227H32.5859H32.5802Z" fill="white"/>
<path d="M33.2243 54.0757H33.3906C33.3479 54.0567 33.3003 54.0424 33.2576 54.0234C33.2481 54.0424 33.2386 54.0614 33.2243 54.0757Z" fill="white"/>
<path d="M43.1055 37.2383V40.4743L39.879 40.479L39.8695 37.2478L43.1055 37.2383ZM40.2021 40.1559H42.7871L42.7824 37.5614L40.1926 37.5709L40.2021 40.1559Z" fill="white"/>
<path d="M42.2656 44.5758L42.2695 46.1914L40.6539 46.1954L40.65 44.5798L42.2656 44.5758Z" fill="white"/>
<path d="M41.6869 43.7305H43.1077V45.9923L43.1172 46.9617L39.886 46.9712V46.6576L39.8765 43.7352H41.6869V43.7305ZM40.2044 46.6481L42.7941 46.6386V44.2532L42.7893 44.0536H40.1996L40.2044 46.5911V46.6481Z" fill="white"/>
<path d="M35.7773 38.0836L35.7812 39.6992L34.1656 39.7032L34.1617 38.0876L35.7773 38.0836Z" fill="white"/>
<path d="M33.6965 37.2595H34.8417L36.6046 37.25V39.2077L36.6094 40.486L33.3781 40.4955L33.3686 37.8107V37.2595H33.6965ZM33.7013 40.1676H36.2863V38.2194L36.2815 37.5779H34.1812L33.6918 37.5826V38.0245L33.7013 40.1676Z" fill="white"/>
<path d="M38.2482 37.1172L38.2529 37.83H38.9609V37.1172H38.2482Z" fill="white"/>
<path d="M37.5216 37.1337V37.8464H37.5406L38.2344 37.8417V37.1289L37.5406 37.1337H37.5216Z" fill="white"/>
<path d="M36.8263 37.1211V37.8339L37.5201 37.8291H37.5391V37.1211H36.8263Z" fill="white"/>
<path d="M38.963 37.829V38.537H39.6758L39.671 37.8242H39.6568L38.963 37.829Z" fill="white"/>
<path d="M38.963 38.5391H39.6758V39.2518H38.963V38.5391Z" fill="white"/>
<path d="M38.2601 38.5294L38.2617 39.2422L37.549 39.2438L37.5473 38.531L38.2601 38.5294Z" fill="white"/>
<path d="M36.8302 38.543V39.2557H37.543V39.0562L37.5382 38.543H36.8302Z" fill="white"/>
<path d="M38.2512 39.25V39.5304L38.256 39.9628H38.9688L38.964 39.2595V39.25H38.2512Z" fill="white"/>
<path d="M37.5492 39.2443L37.5508 39.957L36.838 39.9586L36.8364 39.2459L37.5492 39.2443Z" fill="white"/>
<path d="M38.9513 39.9727V40.6854H38.9703L39.6641 40.6807V39.9727H38.9513Z" fill="white"/>
<path d="M38.264 39.9513L38.2656 40.6641L37.5529 40.6657L37.5512 39.9529L38.264 39.9513Z" fill="white"/>
<path d="M36.8185 39.9805V40.6932H36.8375L37.5312 40.6885V39.9805H36.8185Z" fill="white"/>
<path d="M41.8166 41.3911L41.8214 41.871V42.8024H42.5152V42.0991H42.5294V42.0896H43.2422V41.3768L43.2374 40.6641L42.5294 40.6688V41.3768H42.5104V41.3911H41.8166Z" fill="white"/>
<path d="M41.1036 40.668H41.8164V41.3807H41.1036V40.668Z" fill="white"/>
<path d="M40.3771 40.6836V41.3964H40.3961L41.0803 41.3916H41.0898V40.6836H40.3771Z" fill="white"/>
<path d="M39.6859 40.6622L39.6875 41.375L38.9747 41.3766L38.9731 40.6639L39.6859 40.6622Z" fill="white"/>
<path d="M38.9436 40.7013L38.9453 41.4141L38.2325 41.4158L38.2308 40.703L38.9436 40.7013Z" fill="white"/>
<path d="M37.5217 40.7013L37.5234 41.4141L36.8107 41.4158L36.8089 40.703L37.5217 40.7013Z" fill="white"/>
<path d="M36.1232 40.6836V41.3964L36.8217 41.3916H36.8359V40.6836H36.1232Z" fill="white"/>
<path d="M33.9904 40.6875V41.4003L34.6841 41.3955H34.7031V40.6875H33.9904Z" fill="white"/>
<path d="M41.8141 41.3798V41.3892H42.5078V41.375L41.8141 41.3798Z" fill="white"/>
<path d="M40.3694 41.4044L40.3711 42.1172L39.6583 42.1189L39.6566 41.4062L40.3694 41.4044Z" fill="white"/>
<path d="M38.9789 41.3693L38.9805 42.082L38.2677 42.0836L38.2661 41.3709L38.9789 41.3693Z" fill="white"/>
<path d="M38.2326 41.4122L38.2344 42.125L37.5216 42.1267L37.5199 41.414L38.2326 41.4122Z" fill="white"/>
<path d="M36.8108 41.4161L36.8125 42.1289L36.0997 42.1306L36.098 41.4179L36.8108 41.4161Z" fill="white"/>
<path d="M36.1273 41.381L36.1289 42.0938L35.4161 42.0954L35.4145 41.3826L36.1273 41.381Z" fill="white"/>
<path d="M34.674 41.4279L34.6758 42.1406L33.963 42.1424L33.9613 41.4296L34.674 41.4279Z" fill="white"/>
<path d="M33.2786 41.3984V41.6075L33.2833 42.1112L33.9248 42.1064H33.9961L33.9913 41.408V41.3984H33.2786Z" fill="white"/>
<path d="M42.5122 42.0977V42.8009H42.5312V42.7106L42.5265 42.3257V42.0977H42.5122Z" fill="white"/>
<path d="M41.1117 42.0802L41.1133 42.793L40.4005 42.7946L40.3989 42.0818L41.1117 42.0802Z" fill="white"/>
<path d="M38.9789 42.0841L38.9805 42.7969L38.2677 42.7985L38.2661 42.0857L38.9789 42.0841Z" fill="white"/>
<path d="M38.2326 42.1193L38.2344 42.832L37.5216 42.8338L37.5199 42.121L38.2326 42.1193Z" fill="white"/>
<path d="M36.8421 42.0919L36.8438 42.8047L36.131 42.8063L36.1294 42.0935L36.8421 42.0919Z" fill="white"/>
<path d="M36.0998 42.1271L36.1016 42.8398L35.3888 42.8416L35.3871 42.1288L36.0998 42.1271Z" fill="white"/>
<path d="M42.5333 42.8008V43.5136H42.7281L43.1891 43.5088H43.2461L43.2413 43.0526V42.8008H42.5333Z" fill="white"/>
<path d="M41.0842 42.8302L41.0859 43.543L40.3732 43.5447L40.3714 42.8319L41.0842 42.8302Z" fill="white"/>
<path d="M40.4007 42.795L40.4023 43.5078L39.6896 43.5094L39.688 42.7967L40.4007 42.795Z" fill="white"/>
<path d="M39.6898 42.795L39.6914 43.5078L38.9786 43.5094L38.977 42.7967L39.6898 42.795Z" fill="white"/>
<path d="M37.5256 42.8341L37.5273 43.5469L36.8146 43.5486L36.8128 42.8358L37.5256 42.8341Z" fill="white"/>
<path d="M36.1351 42.799L36.1367 43.5117L35.424 43.5133L35.4223 42.8006L36.1351 42.799Z" fill="white"/>
<path d="M33.3892 42.832H33.8169H33.9737V43.5353H33.6791L33.6886 43.5448H33.9784V43.5353H34.5819L34.6864 43.5305V43.5448H35.3992V44.0105V44.2528V44.7565C35.3992 44.7565 35.4135 44.766 35.4182 44.766V44.2528H36.112V44.2385H36.131V43.7966L36.1262 43.54H36.8247V44.2385H36.8438V44.9513H36.131V45.1889C36.131 45.1889 36.1215 45.1842 36.1167 45.1794V44.9608H35.7508L35.4182 44.9656V44.8658C35.4182 44.8658 35.4087 44.8611 35.404 44.8563V44.9561H34.7102V44.3479L34.7054 44.2433H33.9974L33.2847 44.2481V43.5448H33.3369C33.3369 43.5448 33.3274 43.54 33.3227 43.5353C33.3037 43.5258 33.2847 43.5115 33.2657 43.502V42.8368H33.3892V42.832ZM36.7154 44.2338H36.131V44.2481H36.725C36.725 44.2481 36.7202 44.2386 36.7154 44.2338Z" fill="white"/>
<path d="M33.9805 43.5352H33.6811L33.6906 43.5447H33.9805V43.5352Z" fill="white"/>
<path d="M33.2686 43.5V43.5428H33.3398C33.3398 43.5428 33.3303 43.538 33.3256 43.5333C33.3066 43.5238 33.2876 43.5095 33.2686 43.5Z" fill="white"/>
<path d="M36.838 43.5234H37.5508V44.2362H36.838V43.5234Z" fill="white"/>
<path d="M36.717 44.2383H36.1326V44.2525H36.7266C36.7266 44.2525 36.7218 44.243 36.717 44.2383Z" fill="white"/>
<path d="M36.1138 43.5391V44.2376H36.1328L36.1281 43.7956V43.5391H36.1138Z" fill="white"/>
<path d="M34.6886 44.2422H34.707V44.2545H34.6886V44.2422Z" fill="white"/>
<path d="M34.6841 43.5273H34.707V43.5445H34.6841V43.5273Z" fill="white"/>
<path d="M33.9805 43.5352H33.6811L33.6906 43.5447H33.9805V43.5352Z" fill="white"/>
<path d="M33.2876 43.5352V43.5447H33.3398C33.3398 43.5447 33.3303 43.5399 33.3256 43.5352H33.2876Z" fill="white"/>
<path d="M38.9591 44.2422L38.9639 44.9455V44.955H39.6719V44.2422H38.9591Z" fill="white"/>
<path d="M38.2404 44.2599L38.2422 44.9727L37.5294 44.9744L37.5277 44.2616L38.2404 44.2599Z" fill="white"/>
<path d="M36.1326 44.243V44.2525H36.7266C36.7266 44.2525 36.7218 44.243 36.717 44.2383H36.1326V44.243Z" fill="white"/>
<path d="M36.1172 44.957L35.7513 44.9618H36.1172V44.957Z" fill="white"/>
<path d="M35.4219 44.861C35.4219 44.861 35.4124 44.8563 35.4076 44.8516V44.9608H35.4219V44.861Z" fill="white"/>
<path d="M35.4029 44.25V44.7537C35.4029 44.7537 35.4171 44.7632 35.4219 44.7632V44.25H35.4029Z" fill="white"/>
<path d="M35.4219 44.861C35.4219 44.861 35.4124 44.8563 35.4076 44.8516V44.9513H35.4219V44.861Z" fill="white"/>
<path d="M35.4029 44.2517V44.7554C35.4029 44.7554 35.4171 44.7649 35.4219 44.7649V44.2422H35.4076V44.2517H35.4029Z" fill="white"/>
<path d="M33.2872 44.2461V44.9589L33.981 44.9541H34V44.2461H33.2872Z" fill="white"/>
<path d="M38.9867 44.9279L38.9883 45.6406L38.2755 45.6422L38.2739 44.9295L38.9867 44.9279Z" fill="white"/>
<path d="M38.2757 44.9279L38.2773 45.6406L37.5646 45.6422L37.563 44.9295L38.2757 44.9279Z" fill="white"/>
<path d="M37.5295 44.9708L37.5312 45.6836L36.8185 45.6853L36.8167 44.9726L37.5295 44.9708Z" fill="white"/>
<path d="M35.4044 44.9618V45.6746H35.6895L35.9651 45.6698H36.1172V44.957L35.7513 44.9618H35.4044Z" fill="white"/>
<path d="M33.9982 44.9531H34.7109V45.6659H33.9982V44.9531Z" fill="white"/>
<path d="M38.9786 45.6571V45.9184L38.9834 46.1323V46.3651H39.6914V45.6523H39.6772L38.9786 45.6571Z" fill="white"/>
<path d="M36.8539 45.6427L36.8555 46.3555L36.1427 46.3571L36.1411 45.6443L36.8539 45.6427Z" fill="white"/>
<path d="M36.1429 45.6505L36.1445 46.3633L35.4318 46.3649L35.4301 45.6521L36.1429 45.6505Z" fill="white"/>
<path d="M33.9982 45.668L34.0029 46.3807L34.6967 46.376H34.7109V45.668H33.9982Z" fill="white"/>
<path d="M33.2716 45.6805V46.3886H33.9844V45.6758L33.2716 45.6805Z" fill="white"/>
<path d="M38.9825 46.3672V47.08H39.6953L39.6906 46.7045V46.3672H38.9825Z" fill="white"/>
<path d="M38.2716 46.3719V47.08H38.9844V46.3672H38.9654L38.5092 46.3719H38.2716Z" fill="white"/>
<path d="M37.545 46.3789V47.0917H38.2578V46.9776L38.2531 46.4454V46.3789H37.545Z" fill="white"/>
<path d="M36.8497 46.3711V47.0839H37.5625V46.7797L37.5577 46.4709V46.3711H36.8497Z" fill="white"/>
<path d="M35.4239 46.375V47.0878H35.4287L35.8611 47.083H36.1367V46.375H35.4239Z" fill="white"/>
<path d="M33.2911 46.3789V47.0917L33.9849 47.0869H34.0039V46.3789H33.2911Z" fill="white"/>
<path d="M32.5802 55.2227C32.5802 55.2227 32.5802 55.2341 32.5802 55.2398L32.563 55.2227H32.5859H32.5802Z" fill="white"/>
<path d="M30.7245 49.2213C30.7245 49.2213 30.715 49.2403 30.7055 49.2498V49.207C30.7055 49.207 30.7197 49.2166 30.7245 49.2213ZM30.7245 49.2213C30.7245 49.2213 30.715 49.2403 30.7055 49.2498V49.207C30.7055 49.207 30.7197 49.2166 30.7245 49.2213ZM30.7245 49.2213C30.7245 49.2213 30.715 49.2403 30.7055 49.2498V49.207C30.7055 49.207 30.7197 49.2166 30.7245 49.2213ZM30.7245 49.2213C30.7245 49.2213 30.715 49.2403 30.7055 49.2498V49.207C30.7055 49.207 30.7197 49.2166 30.7245 49.2213ZM27.1179 47.4917C27.1179 47.4917 27.0941 47.5059 27.0846 47.5202C27.0799 47.5059 27.0751 47.4869 27.0704 47.4727C27.0846 47.4774 27.1036 47.4821 27.1179 47.4917ZM32.668 54.4863V54.4958C32.668 54.4958 32.6585 54.4863 32.649 54.4816C32.6537 54.4768 32.6632 54.4815 32.668 54.4863ZM30.7245 49.2213C30.7245 49.2213 30.715 49.2403 30.7055 49.2498V49.207C30.7055 49.207 30.7197 49.2166 30.7245 49.2213ZM30.7245 49.2213C30.7245 49.2213 30.715 49.2403 30.7055 49.2498V49.207C30.7055 49.207 30.7197 49.2166 30.7245 49.2213ZM30.7245 49.2213C30.7245 49.2213 30.715 49.2403 30.7055 49.2498V49.207C30.7055 49.207 30.7197 49.2166 30.7245 49.2213ZM30.7245 49.2213C30.7245 49.2213 30.715 49.2403 30.7055 49.2498V49.207C30.7055 49.207 30.7197 49.2166 30.7245 49.2213ZM30.7245 49.2213C30.7245 49.2213 30.715 49.2403 30.7055 49.2498V49.207C30.7055 49.207 30.7197 49.2166 30.7245 49.2213ZM30.7245 49.2213C30.7245 49.2213 30.715 49.2403 30.7055 49.2498V49.207C30.7055 49.207 30.7197 49.2166 30.7245 49.2213Z" fill="white"/>
<path d="M30.7076 49.207V49.2498C30.7076 49.2498 30.7218 49.2308 30.7266 49.2213C30.7218 49.2213 30.7123 49.2118 30.7076 49.207Z" fill="white"/>
<path d="M26.5658 45.7912L26.6133 45.7722C26.6038 45.7437 26.5895 45.7152 26.5753 45.6914C26.5705 45.7247 26.5658 45.7579 26.5658 45.7912Z" fill="white"/>
<path d="M53.679 61.8086C53.6838 61.9179 53.6885 62.0272 53.6933 62.1412C53.7028 62.26 53.7123 62.3788 53.7266 62.5023C53.7171 62.3883 53.7123 62.2695 53.7028 62.146C53.698 62.0367 53.6885 61.9226 53.679 61.8086Z" fill="white"/>
</g>
<defs>
<linearGradient id="paint0_linear_2342_71764" x1="0" y1="0" x2="95.9684" y2="31.7816" gradientUnits="userSpaceOnUse">
<stop stop-color="#EDAD67"/>
<stop offset="1" stop-color="#4EC1D3"/>
</linearGradient>
<clipPath id="clip0_2342_71764">
<rect width="38.9647" height="40.3903" fill="white" transform="translate(22.3672 23.3086)"/>
</clipPath>
</defs>
</svg>
