<svg width="28" height="29" viewBox="0 0 28 29" fill="none" xmlns="http://www.w3.org/2000/svg">
<g clip-path="url(#clip0_1620_57724)">
<path d="M14 0.0117188C6.26719 0.0117188 0 6.27891 0 14.0117C0 21.7445 6.26719 28.0117 14 28.0117C21.7328 28.0117 28 21.7445 28 14.0117C28 6.27891 21.7328 0.0117188 14 0.0117188ZM19.5891 11.8352C19.5945 11.9555 19.5945 12.0813 19.5945 12.207C19.5945 16.0078 16.7016 20.3938 11.4078 20.3938C9.78359 20.3938 8.26875 19.918 7 19.1031C7.22422 19.1305 7.45391 19.1414 7.68906 19.1414C9.03438 19.1414 10.2758 18.682 11.2602 17.9109C10.0023 17.8891 8.93594 17.0578 8.575 15.9148C8.75 15.9477 8.93047 15.9641 9.11641 15.9641C9.37891 15.9641 9.63594 15.9312 9.87656 15.8602C8.55859 15.5977 7.56875 14.4328 7.56875 13.0383V13.0055C7.95703 13.2188 8.4 13.35 8.87031 13.3664C8.09922 12.8523 7.59063 11.9664 7.59063 10.9711C7.59063 10.4461 7.73281 9.94844 7.97891 9.52187C9.40078 11.2664 11.5172 12.4094 13.907 12.5297C13.8578 12.3219 13.8305 12.1031 13.8305 11.8734C13.8305 10.2875 15.1211 8.99687 16.707 8.99687C17.5328 8.99687 18.282 9.34687 18.807 9.90469C19.4633 9.77344 20.0758 9.53828 20.6336 9.20469C20.4203 9.87734 19.9609 10.4406 19.3703 10.7961C19.95 10.725 20.5078 10.5719 21.0219 10.3422C20.6391 10.9219 20.1523 11.425 19.5891 11.8352Z" fill="white"/>
</g>
<defs>
<clipPath id="clip0_1620_57724">
<rect width="28" height="28" fill="white" transform="translate(0 0.0117188)"/>
</clipPath>
</defs>
</svg>
